<svg xmlns="http://www.w3.org/2000/svg" viewBox="0 0 500 500"><defs><style>.cls-1{fill:#1d1d1b;}.cls-2{fill:#fff;stroke:#fff;stroke-miterlimit:10;stroke-width:1.5px;}</style></defs><title>1IMD_Brian_Cautaerts_woordlogo</title><g id="Layer_2" data-name="Layer 2"><g id="v3.2"><g id="Background"><rect class="cls-1" width="500" height="500"/></g><g id="Scheef"><path class="cls-2" d="M142.49,214.44h-37.4l-6.88,18.92H123.4l5.9,9.46-10.37,28.49-12.83,9.57H79.48l-6-9.57,2.76-7.59L91,253.27l-6.57,18H108l10.37-28.49H93.33l-6-9.46,6.88-18.92,13-9.57h29.26Z"/><path class="cls-2" d="M183,271.31l-13,9.57H142.73l-6-9.57,20.69-56.87,13-9.57h27.17l6.08,9.57-2.88,7.92-14.89,11,6.88-18.92H168.34l-20.7,56.87h24.42l2.93-8,14.85-10.89Z"/><path class="cls-2" d="M243.27,280.88H232.38l13.85-38.06H220.49l-13.85,38.06H195.75l27.67-76h10.89l-10.37,28.49h25.74l10.37-28.49h10.89Z"/><path class="cls-2" d="M303,280.88H265.05l26.35-76h39.27l-3.49,9.57H300.12l-6.88,18.92H320.3l-3.45,9.46H289.79l-10.37,28.49h27.06Z"/><path class="cls-2" d="M357.23,280.88h-38l26.35-76h39.26l-3.48,9.57H354.35l-6.88,18.92h27.06l-3.45,9.46H344l-10.37,28.49h27.06Z"/><path class="cls-2" d="M425.31,242.82H398.25L384.4,280.88H373.51l26.35-76h39.27l-3.49,9.57H408.58l-6.88,18.92h27.05Z"/></g></g></g></svg>