<svg id="Layer_1" data-name="Layer 1" xmlns="http://www.w3.org/2000/svg" viewBox="0 0 469.57 496.54"><defs><style>.cls-1{fill:#2c88ff;}</style></defs><path d="M168.33,198.46l1.22-1.19,9.62,9.81-1.21,1.2Z" transform="translate(-15.23)"/><path d="M178.36,189.51l1.34-1,8.5,10.81-1.34,1Z" transform="translate(-15.23)"/><path d="M189.31,181.72l1.44-.9L198,192.49l-1.45.9Z" transform="translate(-15.23)"/><path d="M201.11,175.14l1.54-.74,5.93,12.41-1.54.74Z" transform="translate(-15.23)"/><path d="M213.51,169.94l1.61-.56,4.51,13-1.61.56Z" transform="translate(-15.23)"/><path d="M226.42,166.14l1.66-.38,3,13.41-1.66.37Z" transform="translate(-15.23)"/><path d="M239.69,163.79l1.69-.19,1.55,13.66-1.69.19Z" transform="translate(-15.23)"/><path d="M253,162.92l1.7,0,.22,13.75-1.7,0Z" transform="translate(-15.23)"/><path d="M266.58,163.5l1.69.18-1.44,13.67-1.7-.18Z" transform="translate(-15.23)"/><path d="M279.87,165.55l1.66.37-2.95,13.43-1.66-.37Z" transform="translate(-15.23)"/><path d="M292.87,169.07l1.61.55-4.42,13-1.61-.55Z" transform="translate(-15.23)"/><path d="M305.43,174l1.54.72-5.84,12.44-1.54-.72Z" transform="translate(-15.23)"/><path d="M317.34,180.32l1.45.89-7.18,11.73-1.45-.89Z" transform="translate(-15.23)"/><path d="M328.45,187.88l1.34,1-8.41,10.87-1.35-1Z" transform="translate(-15.23)"/><path d="M338.71,196.64l1.23,1.18-9.56,9.89-1.23-1.19Z" transform="translate(-15.23)"/><path d="M347.92,206.44l1.09,1.31-10.59,8.78-1.09-1.32Z" transform="translate(-15.23)"/><path d="M356,217.2l.93,1.43-11.48,7.56-.94-1.42Z" transform="translate(-15.23)"/><path d="M362.85,228.78l.78,1.52-12.25,6.25-.77-1.52Z" transform="translate(-15.23)"/><path d="M368.4,241.1l.6,1.59-12.86,4.85-.6-1.59Z" transform="translate(-15.23)"/><path d="M372.54,253.91l.42,1.66L359.64,259l-.42-1.66Z" transform="translate(-15.23)"/><path d="M375.23,267.11l.23,1.68-13.61,1.9-.24-1.68Z" transform="translate(-15.23)"/><path d="M376.45,280.52l.05,1.7-13.74.4-.05-1.7Z" transform="translate(-15.23)"/><path d="M376.2,294l-.13,1.69-13.71-1.09.14-1.7Z" transform="translate(-15.23)"/><path d="M374.49,307.3l-.32,1.68-13.5-2.6.32-1.67Z" transform="translate(-15.23)"/><path d="M371.31,320.39,370.8,322l-13.13-4.08.51-1.62Z" transform="translate(-15.23)"/><path d="M366.69,333.06l-.68,1.56-12.6-5.51.68-1.56Z" transform="translate(-15.23)"/><path d="M360.72,345.12l-.86,1.47L348,339.72l.85-1.47Z" transform="translate(-15.23)"/><path d="M353.42,356.47l-1,1.38-11.09-8.14,1-1.38Z" transform="translate(-15.23)"/><path d="M344.94,366.93l-1.15,1.25-10.13-9.3,1.16-1.26Z" transform="translate(-15.23)"/><path d="M335.38,376.38l-1.28,1.12-9.05-10.36,1.29-1.12Z" transform="translate(-15.23)"/><path d="M324.83,384.73l-1.4,1-7.85-11.29,1.4-1Z" transform="translate(-15.23)"/><path d="M313.41,391.89l-1.49.81-6.56-12.08,1.5-.81Z" transform="translate(-15.23)"/><path d="M301.28,397.74l-1.57.65-5.19-12.73,1.57-.65Z" transform="translate(-15.23)"/><path d="M288.57,402.22l-1.64.46-3.74-13.23,1.64-.46Z" transform="translate(-15.23)"/><path d="M275.45,405.25l-1.68.28L271.51,392l1.68-.28Z" transform="translate(-15.23)"/><path d="M262.08,406.82l-1.7.09-.75-13.73,1.7-.09Z" transform="translate(-15.23)"/><path d="M248.62,406.91l-1.7-.09.74-13.73,1.7.1Z" transform="translate(-15.23)"/><path d="M235.22,405.54l-1.68-.28,2.26-13.56,1.68.28Z" transform="translate(-15.23)"/><path d="M222.07,402.7l-1.64-.46L224.16,389l1.64.46Z" transform="translate(-15.23)"/><path d="M209.29,398.42l-1.58-.65L212.89,385l1.58.65Z" transform="translate(-15.23)"/><path d="M197.06,392.74l-1.49-.81,6.56-12.08,1.49.81Z" transform="translate(-15.23)"/><path d="M185.55,385.75l-1.4-1L192,373.5l1.4,1Z" transform="translate(-15.23)"/><path d="M174.87,377.55l-1.28-1.12,9-10.36,1.28,1.12Z" transform="translate(-15.23)"/><path d="M165.19,368.24,164,367l10.12-9.31,1.15,1.25Z" transform="translate(-15.23)"/><path d="M156.56,357.92l-1-1.37,11.07-8.15,1,1.37Z" transform="translate(-15.23)"/><path d="M149.09,346.66l-.86-1.48,11.92-6.86.85,1.47Z" transform="translate(-15.23)"/><path d="M142.93,334.7l-.68-1.56,12.6-5.51.68,1.56Z" transform="translate(-15.23)"/><path d="M138.13,322.1l-.51-1.62,13.13-4.09.51,1.63Z" transform="translate(-15.23)"/><path d="M134.75,309.07l-.32-1.68,13.5-2.6.33,1.67Z" transform="translate(-15.23)"/><path d="M132.85,295.76l-.14-1.7L146.42,293l.13,1.7Z" transform="translate(-15.23)"/><path d="M132.4,282.32l0-1.71,13.75.39,0,1.7Z" transform="translate(-15.23)"/><path d="M133.44,268.88l.23-1.69,13.62,1.9-.24,1.68Z" transform="translate(-15.23)"/><path d="M135.93,255.64l.42-1.65,13.32,3.39-.42,1.65Z" transform="translate(-15.23)"/><path d="M139.88,242.77l.6-1.6L153.34,246l-.6,1.59Z" transform="translate(-15.23)"/><path d="M145.25,230.37l.77-1.52,12.25,6.25-.78,1.52Z" transform="translate(-15.23)"/><path d="M151.92,218.71l.94-1.43,11.48,7.56-.93,1.42Z" transform="translate(-15.23)"/><path d="M159.85,207.82l1.09-1.31,10.58,8.76-1.08,1.32Z" transform="translate(-15.23)"/><path class="cls-1" d="M389.21,268.48H422.4A168.89,168.89,0,0,0,308.28,125L271,73.4v76.81A135.81,135.81,0,0,1,389.21,268.48Z" transform="translate(-15.23)"/><path class="cls-1" d="M238,150.21V117A168.9,168.9,0,0,0,94.48,231.15L42.89,268.48h76.8A135.83,135.83,0,0,1,238,150.21Z" transform="translate(-15.23)"/><path class="cls-1" d="M119.69,301.46H86.51A168.87,168.87,0,0,0,200.63,444.94L238,496.54V419.73A135.81,135.81,0,0,1,119.69,301.46Z" transform="translate(-15.23)"/><path class="cls-1" d="M271,419.73v33.18A168.89,168.89,0,0,0,414.43,338.8L466,301.46H389.21A135.79,135.79,0,0,1,271,419.73Z" transform="translate(-15.23)"/><polygon class="cls-1" points="239.22 230.21 195.78 339.73 239.22 298.39 282.67 339.73 239.22 230.21"/><path d="M66.27,123,51.88,142.53,72,157.39l-7.49,10.16L15.23,131.19,38.9,99.08l8.24,6.07L31,127.1l12.74,9.39L58.07,117Z" transform="translate(-15.23)"/><path d="M100.12,94.7l-7.78,6.36,14.19,17.37-9.78,8L58,79l17.63-14.4q8.4-6.87,16-6.85t13.21,6.86a18.87,18.87,0,0,1,4.52,9.82,18.54,18.54,0,0,1-2.15,10.37l26.1,11,.37.46-10.49,8.57ZM85.87,93.14l7.88-6.44q3.69-3,4.18-6.53a8.7,8.7,0,0,0-2.2-6.82,9.27,9.27,0,0,0-6.22-3.72q-3.48-.36-7.42,2.86L74.23,78.9Z" transform="translate(-15.23)"/><path d="M178.79,43.37a37.07,37.07,0,0,1,3.33,15.83,24,24,0,0,1-4.25,13.28,27,27,0,0,1-25,10.81,24.34,24.34,0,0,1-12.64-6,35.89,35.89,0,0,1-9.23-13l-1.2-2.79a36.73,36.73,0,0,1-3.29-15.92,24.2,24.2,0,0,1,4.29-13.34,27,27,0,0,1,25-10.76,24.37,24.37,0,0,1,12.64,6.06,36.68,36.68,0,0,1,9.27,13.31Zm-12.85,2.5Q162.13,37,157,33.78a12.19,12.19,0,0,0-18.08,7.71q-1.22,5.91,2.52,14.7l1.18,2.74q3.7,8.63,8.92,12a12.09,12.09,0,0,0,18.17-7.61q1.16-5.92-2.58-14.71Z" transform="translate(-15.23)"/><path d="M253.16,60.76l-12.51,1.62L211.1,25.56l5.17,40-12.51,1.62L195.88,6.4,208.4,4.78,238,41.68,232.82,1.62,245.29,0Z" transform="translate(-15.23)"/><path d="M322.68,18.8l-18.53-3L296,66.21l-12.46-2,8.11-50.39-18.28-3L275,.77,324.31,8.7Z" transform="translate(-15.23)"/><path d="M370.57,63.84l-22.21-9.7-6.57,15,26.07,11.39-4.06,9.29L326.16,73.41l24.53-56.14,37.56,16.41-4.1,9.37-26-11.36-5.84,13.38,22.21,9.71Z" transform="translate(-15.23)"/><path d="M419.9,97.89l-19.27-14.7-9.95,13,22.61,17.25-6.15,8.06L374.49,96.64l37.16-48.71,32.59,24.86L438,80.92l-22.55-17.2-8.85,11.61L425.9,90Z" transform="translate(-15.23)"/><path d="M447.66,134.32l-6.21-7.91-17.64,13.86-7.8-9.93,48.18-37.85,14.06,17.91q6.72,8.53,6.54,16.16t-7.11,13.08a18.86,18.86,0,0,1-9.9,4.32,18.5,18.5,0,0,1-10.33-2.35L446,167.5l-.46.36-8.37-10.65Zm1.83-14.22,6.29,8q2.94,3.73,6.45,4.29a8.67,8.67,0,0,0,6.86-2.07,9.26,9.26,0,0,0,3.84-6.14c.28-2.32-.62-4.81-2.72-7.48l-6.26-8Z" transform="translate(-15.23)"/></svg>