<svg id="Layer_1" data-name="Layer 1" xmlns="http://www.w3.org/2000/svg" viewBox="0 0 469.56 496.54"><defs><style>.cls-1{fill:#2c88ff;}.cls-2{fill:#fff;}</style></defs><path d="M153.1,198.46l1.22-1.19,9.62,9.81-1.21,1.2Z"/><path d="M163.13,189.51l1.34-1,8.5,10.81-1.34,1Z"/><path d="M174.08,181.72l1.44-.9,7.25,11.67-1.45.9Z"/><path d="M185.88,175.14l1.54-.74,5.93,12.41-1.54.74Z"/><path d="M198.28,169.94l1.61-.56,4.51,13-1.61.56Z"/><path d="M211.19,166.14l1.66-.38,3,13.41-1.66.37Z"/><path d="M224.46,163.79l1.69-.19,1.55,13.66-1.69.19Z"/><path d="M237.77,162.92h1.7l.22,13.75H238Z"/><path d="M251.35,163.5l1.69.18-1.44,13.67-1.7-.18Z"/><path d="M264.64,165.55l1.66.37-2.95,13.43-1.66-.37Z"/><path d="M277.64,169.07l1.61.55-4.42,13-1.61-.55Z"/><path d="M290.2,174l1.54.72-5.84,12.44-1.54-.72Z"/><path d="M302.11,180.32l1.45.89-7.18,11.73-1.45-.89Z"/><path d="M313.22,187.88l1.34,1-8.41,10.87-1.35-1Z"/><path d="M323.48,196.64l1.23,1.18-9.56,9.89-1.23-1.19Z"/><path d="M332.69,206.44l1.09,1.31-10.59,8.78-1.09-1.32Z"/><path d="M340.77,217.2l.93,1.43-11.48,7.56-.94-1.42Z"/><path d="M347.62,228.78l.78,1.52-12.25,6.25-.77-1.52Z"/><path d="M353.17,241.1l.6,1.59-12.86,4.85-.6-1.59Z"/><path d="M357.31,253.91l.42,1.66L344.41,259l-.42-1.66Z"/><path d="M360,267.11l.23,1.68-13.61,1.9-.24-1.68Z"/><path d="M361.22,280.52l0,1.7-13.74.4,0-1.7Z"/><path d="M361,294l-.13,1.69-13.71-1.09.14-1.7Z"/><path d="M359.26,307.3l-.32,1.68-13.5-2.6.32-1.67Z"/><path d="M356.08,320.39l-.51,1.61-13.13-4.08.51-1.62Z"/><path d="M351.46,333.06l-.68,1.56-12.6-5.51.68-1.56Z"/><path d="M345.49,345.12l-.86,1.47-11.86-6.87.85-1.47Z"/><path d="M338.19,356.47l-1,1.38-11.09-8.14,1-1.38Z"/><path d="M329.71,366.93l-1.15,1.25-10.13-9.3,1.16-1.26Z"/><path d="M320.15,376.38l-1.28,1.12-9.05-10.36,1.29-1.12Z"/><path d="M309.6,384.73l-1.4,1-7.85-11.29,1.4-1Z"/><path d="M298.18,391.89l-1.49.81-6.56-12.08,1.5-.81Z"/><path d="M286.05,397.74l-1.57.65-5.19-12.73,1.57-.65Z"/><path d="M273.34,402.22l-1.64.46L268,389.45l1.64-.46Z"/><path d="M260.22,405.25l-1.68.28L256.28,392l1.68-.28Z"/><path d="M246.85,406.82l-1.7.09-.75-13.73,1.7-.09Z"/><path d="M233.39,406.91l-1.7-.09.74-13.73,1.7.1Z"/><path d="M220,405.54l-1.68-.28,2.26-13.56,1.68.28Z"/><path d="M206.84,402.7l-1.64-.46L208.93,389l1.64.46Z"/><path d="M194.06,398.42l-1.58-.65L197.66,385l1.58.65Z"/><path d="M181.83,392.74l-1.49-.81,6.56-12.08,1.49.81Z"/><path d="M170.32,385.75l-1.4-1,7.85-11.25,1.4,1Z"/><path d="M159.64,377.55l-1.28-1.12,9-10.36,1.28,1.12Z"/><path d="M150,368.24,148.77,367l10.12-9.31,1.15,1.25Z"/><path d="M141.33,357.92l-1-1.37,11.07-8.15,1,1.37Z"/><path d="M133.86,346.66l-.86-1.48,11.92-6.86.85,1.47Z"/><path d="M127.7,334.7l-.68-1.56,12.6-5.51.68,1.56Z"/><path d="M122.9,322.1l-.51-1.62,13.13-4.09L136,318Z"/><path d="M119.52,309.07l-.32-1.68,13.5-2.6.33,1.67Z"/><path d="M117.62,295.76l-.14-1.7L131.19,293l.13,1.7Z"/><path d="M117.17,282.32v-1.71l13.75.39v1.7Z"/><path d="M118.21,268.88l.23-1.69,13.62,1.9-.24,1.68Z"/><path d="M120.7,255.64l.42-1.65,13.32,3.39L134,259Z"/><path d="M124.65,242.77l.6-1.6L138.11,246l-.6,1.59Z"/><path d="M130,230.37l.77-1.52L143,235.1l-.78,1.52Z"/><path d="M136.69,218.71l.94-1.43,11.48,7.56-.93,1.42Z"/><path d="M144.62,207.82l1.09-1.31,10.58,8.76-1.08,1.32Z"/><path class="cls-1" d="M374,268.48h33.19A168.87,168.87,0,0,0,293.05,125L255.77,73.4v76.81A135.82,135.82,0,0,1,374,268.48Z"/><path class="cls-1" d="M222.77,150.21V117A168.9,168.9,0,0,0,79.25,231.15L27.66,268.48h76.8A135.83,135.83,0,0,1,222.77,150.21Z"/><path class="cls-1" d="M104.46,301.46H71.28A168.87,168.87,0,0,0,185.4,444.94l37.37,51.6V419.73A135.8,135.8,0,0,1,104.46,301.46Z"/><path class="cls-1" d="M255.77,419.73v33.18A168.88,168.88,0,0,0,399.2,338.8l51.57-37.34H374A135.79,135.79,0,0,1,255.77,419.73Z"/><polygon class="cls-1" points="239.22 230.21 195.78 339.73 239.22 298.39 282.67 339.73 239.22 230.21"/><path class="cls-2" d="M51,123,36.65,142.53l20.12,14.86-7.49,10.16L0,131.19,23.67,99.08l8.24,6.07L15.77,127.1l12.74,9.39L42.84,117Z"/><path class="cls-2" d="M84.89,94.7l-7.78,6.36L91.3,118.43l-9.78,8L42.77,79,60.4,64.6q8.4-6.87,16-6.85t13.21,6.86a18.92,18.92,0,0,1,4.52,9.82A18.51,18.51,0,0,1,92,84.8l26.1,11,.37.46L108,104.83ZM70.64,93.14l7.88-6.44q3.69-3,4.18-6.53a8.7,8.7,0,0,0-2.2-6.82,9.26,9.26,0,0,0-6.22-3.72q-3.48-.36-7.42,2.86L59,78.9Z"/><path class="cls-2" d="M163.56,43.37a37.08,37.08,0,0,1,3.33,15.83,24,24,0,0,1-4.25,13.28,27,27,0,0,1-25,10.81,24.39,24.39,0,0,1-12.64-6,35.92,35.92,0,0,1-9.23-13l-1.2-2.79a36.68,36.68,0,0,1-3.29-15.92,24.23,24.23,0,0,1,4.29-13.34,27,27,0,0,1,25-10.76,24.4,24.4,0,0,1,12.64,6.06,36.79,36.79,0,0,1,9.27,13.31Zm-12.85,2.5Q146.9,37,141.77,33.78a12.19,12.19,0,0,0-18.08,7.71q-1.22,5.91,2.52,14.7l1.18,2.74q3.71,8.63,8.92,12a12.09,12.09,0,0,0,18.17-7.61q1.16-5.93-2.58-14.71Z"/><path class="cls-2" d="M237.93,60.76l-12.51,1.62L195.87,25.56l5.17,40-12.51,1.62L180.65,6.4l12.52-1.62,29.6,36.9L217.59,1.62,230.06,0Z"/><path class="cls-2" d="M307.45,18.8l-18.53-3-8.15,50.41-12.46-2,8.11-50.39-18.28-3,1.63-10L309.08,8.7Z"/><path class="cls-2" d="M355.34,63.84l-22.21-9.7-6.57,15,26.07,11.39-4.06,9.29L310.93,73.41l24.53-56.14L373,33.68l-4.1,9.37-26-11.36-5.84,13.38,22.21,9.71Z"/><path class="cls-2" d="M404.67,97.89,385.4,83.19l-9.95,13,22.61,17.25-6.15,8.06L359.26,96.64l37.16-48.71L429,72.79l-6.24,8.13-22.55-17.2-8.85,11.61L410.67,90Z"/><path class="cls-2" d="M432.43,134.32l-6.21-7.91-17.64,13.86-7.8-9.93L449,92.49,463,110.4q6.72,8.53,6.54,16.16t-7.11,13.08a18.87,18.87,0,0,1-9.9,4.32,18.53,18.53,0,0,1-10.33-2.35L430.77,167.5l-.46.36-8.37-10.65Zm1.83-14.22,6.29,8q2.94,3.74,6.45,4.29a8.66,8.66,0,0,0,6.86-2.07,9.25,9.25,0,0,0,3.84-6.14c.28-2.32-.62-4.81-2.72-7.48l-6.26-8Z"/></svg>