<?xml version="1.0" encoding="utf-8"?>
<!-- Generator: Adobe Illustrator 24.1.2, SVG Export Plug-In . SVG Version: 6.00 Build 0)  -->
<svg version="1.1" id="Capa_1" xmlns="http://www.w3.org/2000/svg" xmlns:xlink="http://www.w3.org/1999/xlink" x="0px" y="0px"
	 viewBox="0 0 447.2 447.2" style="enable-background:new 0 0 447.2 447.2;" xml:space="preserve">
<style type="text/css">
	.st0{fill:#FFFFFF;}
</style>
<g>
	<g>
		<path class="st0" d="M26.9,255c1.8,0.3,3.7,0.4,5.5,0.4h315.5L234.5,359.9c-11.7,11.1-13.6,29-4.6,42.4
			c10.4,14.3,30.5,17.4,44.7,6.9c1.2-0.8,2.2-1.8,3.3-2.8l160-160c12.5-12.5,12.5-32.8,0-45.3c0,0,0,0,0,0l-160-160
			c-12.5-12.5-32.8-12.5-45.3,0.1c-1,1-1.9,2-2.7,3.1c-9,13.4-7,31.3,4.6,42.4l113.9,104.6H34.2c-16.3-0.6-30.7,10.8-33.8,26.9
			C-2.4,235.7,9.4,252.2,26.9,255z"/>
	</g>
</g>
</svg>
