<svg id="Capa_1" data-name="Capa 1" xmlns="http://www.w3.org/2000/svg" viewBox="0 0 383.69 447.29"><defs><style>.cls-1{fill:#fff;}</style></defs><path class="cls-1" d="M192.21,26.85a33.93,33.93,0,0,0-.4,5.5v315.5L87.31,234.45a33,33,0,0,0-42.4-4.6,31.88,31.88,0,0,0-6.9,44.7,28.78,28.78,0,0,0,2.8,3.3l160,160a32,32,0,0,0,45.3,0h0l160-160a32,32,0,0,0-.1-45.3,26.06,26.06,0,0,0-3.1-2.7,33.14,33.14,0,0,0-42.4,4.6l-104.6,113.9V34.15A33.21,33.21,0,0,0,229,.35,32,32,0,0,0,192.21,26.85Z" transform="translate(-31.79 0.06)"/></svg>