<svg id="Layer_2" data-name="Layer 2" xmlns="http://www.w3.org/2000/svg" viewBox="0 0 512 443.87"><defs><style>.cls-1{fill:#2c88ff;}.cls-2{fill:#fff;}</style></defs><path class="cls-1" d="M497,428.87H15M500,81.24H12a12,12,0,0,0-12,12V431.87a12,12,0,0,0,12,12H500a12,12,0,0,0,12-12V93.24A12,12,0,0,0,500,81.24Z" transform="translate(0)"/><path class="cls-1" d="M175.94,88.74a7.5,7.5,0,0,1-7.5-7.5h0V7.5a7.5,7.5,0,0,1,7.5-7.5H256a7.5,7.5,0,0,1,0,15H183.44V81.24a7.5,7.5,0,0,1-7.5,7.5Z" transform="translate(0)"/><path class="cls-1" d="M336.06,88.74a7.5,7.5,0,0,1-7.5-7.5h0V15H256a7.5,7.5,0,0,1,0-15h80.06a7.5,7.5,0,0,1,7.5,7.5V81.24a7.5,7.5,0,0,1-7.5,7.5Z" transform="translate(0)"/><path class="cls-2" d="M256,328.08a40.2,40.2,0,0,1-40.16-40.16V255.13a40.16,40.16,0,0,1,80.32,0h0v32.79A40.2,40.2,0,0,1,256,328.08ZM256,230a25.19,25.19,0,0,0-25.16,25.16V288a25.16,25.16,0,0,0,50.32,0V255.13A25.19,25.19,0,0,0,256,230Z" transform="translate(0)"/><path class="cls-2" d="M225.84,264.45,0,184.62v15.91l220.84,78a7.59,7.59,0,0,0,2.5.43v0a7.51,7.51,0,0,0,2.5-14.58Z" transform="translate(0)"/><path class="cls-2" d="M286.16,264.42a7.52,7.52,0,0,0,5,14.18L512,200.5V184.59Z" transform="translate(0)"/></svg>