<svg id="Layer_2" data-name="Layer 2" xmlns="http://www.w3.org/2000/svg" viewBox="0 0 512 443.87"><defs><style>.cls-1{fill:#2c88ff;}</style></defs><path class="cls-1" d="M497,96.24V428.87H15V96.24H497m3-15H12a12,12,0,0,0-12,12V431.87a12,12,0,0,0,12,12H500a12,12,0,0,0,12-12V93.24a12,12,0,0,0-12-12Z"/><path class="cls-1" d="M175.94,88.74a7.5,7.5,0,0,1-7.5-7.5V7.5a7.5,7.5,0,0,1,7.5-7.5H256a7.5,7.5,0,0,1,0,15H183.44V81.24A7.5,7.5,0,0,1,175.94,88.74Z"/><path class="cls-1" d="M336.06,88.74a7.5,7.5,0,0,1-7.5-7.5V15H256a7.5,7.5,0,0,1,0-15h80.06a7.5,7.5,0,0,1,7.5,7.5V81.24A7.5,7.5,0,0,1,336.06,88.74Z"/><path class="cls-1" d="M256,328.08a40.2,40.2,0,0,1-40.16-40.16V255.13a40.16,40.16,0,0,1,80.32,0v32.79A40.2,40.2,0,0,1,256,328.08ZM256,230a25.19,25.19,0,0,0-25.16,25.16v32.79a25.16,25.16,0,0,0,50.32,0V255.13A25.19,25.19,0,0,0,256,230Z"/><path class="cls-1" d="M223.34,279a7.51,7.51,0,0,1-2.5-.43L5.55,202.49a7.5,7.5,0,1,1,5-14.14l215.29,76.1a7.51,7.51,0,0,1-2.5,14.58Z"/><path class="cls-1" d="M288.66,279a7.51,7.51,0,0,1-2.5-14.58l215.29-76.1a7.5,7.5,0,0,1,5,14.14L291.16,278.6A7.56,7.56,0,0,1,288.66,279Z"/></svg>