<svg id="Layer_2" data-name="Layer 2" xmlns="http://www.w3.org/2000/svg" viewBox="0 0 512 479.93"><defs><style>.cls-1{fill:#2c88ff;}.cls-2,.cls-3{fill:none;stroke:#2c88ff;stroke-linejoin:round;stroke-width:15px;}.cls-3{stroke-linecap:round;}</style></defs><path class="cls-1" d="M497,15V403.14H15V15H497m3-15H12A12,12,0,0,0,0,12V406.14a12,12,0,0,0,12,12H500a12,12,0,0,0,12-12V12A12,12,0,0,0,500,0Z" transform="translate(0)"/><line class="cls-2" y1="313.91" x2="512" y2="313.91"/><line class="cls-3" x1="273.9" y1="77.66" x2="238.1" y2="252.54"/><polyline class="cls-3" points="190.87 97.79 128 165.1 190.87 232.39"/><polyline class="cls-3" points="321.13 232.39 384 165.08 321.13 97.79"/><line class="cls-3" x1="134.3" y1="472.43" x2="377.7" y2="472.43"/><line class="cls-3" x1="178.05" y1="472.43" x2="178.05" y2="418.14"/><line class="cls-3" x1="334.74" y1="418.14" x2="334.74" y2="472.43"/></svg>