<?xml version="1.0" encoding="utf-8"?>
<!-- Generator: Adobe Illustrator 24.0.1, SVG Export Plug-In . SVG Version: 6.00 Build 0)  -->
<svg version="1.1" id="Capa_1" xmlns="http://www.w3.org/2000/svg" xmlns:xlink="http://www.w3.org/1999/xlink" x="0px" y="0px"
	 viewBox="0 0 426.7 426.7" style="enable-background:new 0 0 426.7 426.7;" xml:space="preserve">
<style type="text/css">
	.st0{fill:url(#SVGID_1_);}
	.st1{fill:url(#SVGID_2_);}
</style>
<g>
	<g>
		<linearGradient id="SVGID_1_" gradientUnits="userSpaceOnUse" x1="0" y1="213.333" x2="426.666" y2="213.333">
			<stop  offset="0" style="stop-color:#2C88FF"/>
			<stop  offset="1" style="stop-color:#0A41D3"/>
		</linearGradient>
		<path class="st0" d="M213.3,0C95.5,0,0,95.5,0,213.3s95.5,213.3,213.3,213.3s213.3-95.5,213.3-213.3S331.2,0,213.3,0z
			 M213.3,388.1c-96.5,0-174.7-78.2-174.7-174.7S116.8,38.6,213.3,38.6c96.4,0.1,174.6,78.3,174.7,174.7
			C388.1,309.8,309.8,388.1,213.3,388.1z"/>
	</g>
</g>
<g>
	<g>
		<linearGradient id="SVGID_2_" gradientUnits="userSpaceOnUse" x1="94.507" y1="215.36" x2="329.6" y2="215.36">
			<stop  offset="0" style="stop-color:#2C88FF"/>
			<stop  offset="1" style="stop-color:#0A41D3"/>
		</linearGradient>
		<path class="st1" d="M153.2,156.8L94.5,333.2l176.2-58.7l58.9-177.1L153.2,156.8z M236.2,240.9l-86.8,36.5l37.1-87.7l49.7,49.7
			V240.9z"/>
	</g>
</g>
</svg>
