<svg xmlns="http://www.w3.org/2000/svg" viewBox="0 0 512.89 473.15"><defs><style>.cls-1,.cls-3{fill:#fff;}.cls-2{fill:#2c88ff;}.cls-3{stroke:#2c88ff;stroke-linecap:round;stroke-linejoin:round;stroke-width:15px;}</style></defs><g id="Layer_2" data-name="Layer 2"><rect class="cls-1" x="89.39" y="7.5" width="416" height="289.86" rx="4.5"/><path class="cls-2" d="M496.87,15V289.86h-401V15h401m3-15h-407a12,12,0,0,0-12,12V292.86a12,12,0,0,0,12,12h407a12,12,0,0,0,12-12V12a12,12,0,0,0-12-12Z" transform="translate(1.02)"/><polyline class="cls-3" points="93.56 12.39 297.39 160.63 499.86 12.39"/><line class="cls-3" x1="93.56" y1="295.51" x2="255.49" y2="134.47"/><line class="cls-3" x1="499.86" y1="290.26" x2="333.97" y2="133.85"/></g><g id="Layer_3" data-name="Layer 3"><path class="cls-3" d="M344.13,465.65C61.74,466.72-26.62,204.52,17.05,124.3l61-34.66,66.24,98.21L93.61,231.94c39.43,72,88.81,124.8,154.3,146.57l30.8-37.94L381,406l-36.82,59.62" transform="translate(1.02)"/></g></svg>