<svg id="Layer_1" data-name="Layer 1" xmlns="http://www.w3.org/2000/svg" viewBox="0 0 512.91 473.15"><defs><style>.cls-1{fill:#fff;}.cls-2{fill:#2c88ff;}</style></defs><polygon class="cls-1" points="497.91 278.09 497.91 23.13 345.69 134.57 497.91 278.09"/><polygon class="cls-1" points="96.91 24.09 96.91 281.62 246.49 132.87 96.91 24.09"/><path class="cls-1" d="M301.82,166.68a7.5,7.5,0,0,1-8.84,0l-34.23-24.9L109.88,289.86H488.5L333.36,143.59Z" transform="translate(0.02 0)"/><path class="cls-2" d="M505.91,8a7.46,7.46,0,0,1,1.44,4.43h5.54V12a12,12,0,0,0-12-12h-3V5.16A7.5,7.5,0,0,1,505.91,8Z" transform="translate(0.02 0)"/><path class="cls-2" d="M505.39,17.46V285.2a7.48,7.48,0,0,1,1.95,4.66h5.55V12.39h-5.54A7.51,7.51,0,0,1,505.39,17.46Z" transform="translate(0.02 0)"/><path class="cls-2" d="M87.49,8a7.51,7.51,0,0,1,9.4-2.3V0h-3a12,12,0,0,0-12,12v.39h4.18A7.45,7.45,0,0,1,87.49,8Z" transform="translate(0.02 0)"/><path class="cls-2" d="M507.34,289.86a7.47,7.47,0,0,1-7.48,7.9,7.31,7.31,0,0,1-2-.27v7.37h3a12,12,0,0,0,12-12v-3Z" transform="translate(0.02 0)"/><path class="cls-2" d="M98,6.32,99.59,7.5H493.84l1.59-1.16a7.34,7.34,0,0,1,2.46-1.18V0h-401V5.68A7.47,7.47,0,0,1,98,6.32Z" transform="translate(0.02 0)"/><path class="cls-2" d="M93.56,303a7.5,7.5,0,0,1-5.29-12.82l.33-.33H81.89v3a12,12,0,0,0,12,12h3v-2.63A7.64,7.64,0,0,1,93.56,303Z" transform="translate(0.02 0)"/><path class="cls-2" d="M89.39,289.08V18.63l-.24-.17a7.47,7.47,0,0,1-3.08-6.07H81.89V289.86H88.6Z" transform="translate(0.02 0)"/><path class="cls-2" d="M497.46,297.36H102.34l-3.49,3.47a7.57,7.57,0,0,1-2,1.4v2.63h401v-7.37A4.14,4.14,0,0,1,497.46,297.36Z" transform="translate(0.02 0)"/><polygon class="cls-2" points="96.91 24.09 89.41 18.63 89.41 289.08 96.91 281.62 96.91 24.09"/><path class="cls-2" d="M497.89,23.13v255L505,284.8l.38.4V17.46a8,8,0,0,1-1.1,1Z" transform="translate(0.02 0)"/><path class="cls-2" d="M488.5,289.86H109.88l-7.54,7.5H497.46a7.57,7.57,0,0,1-2.75-1.64Z" transform="translate(0.02 0)"/><polygon class="cls-2" points="487.19 12.39 493.87 7.5 99.61 7.5 106.33 12.39 487.19 12.39"/><polygon class="cls-1" points="483.62 15 109.92 15 297.4 151.34 483.62 15"/><polygon class="cls-1" points="483.62 15 487.19 12.39 106.33 12.39 109.92 15 483.62 15"/><rect class="cls-2" x="93.58" y="12.39" width="404.33" height="277.47"/><path class="cls-1" d="M327.92,138.28l-30.53,22.35L262.9,135.55a7.41,7.41,0,0,1-2.12,4.24l-2,2L293,166.7a7.5,7.5,0,0,0,8.84,0l31.54-23.09-4.54-4.28A7.91,7.91,0,0,1,327.92,138.28Z" transform="translate(0.02 0)"/><path class="cls-1" d="M250.2,129.15a7.28,7.28,0,0,1,2-1.4L97.15,15h-.26v9.09L246.47,132.87Z" transform="translate(0.02 0)"/><polygon class="cls-1" points="340.15 129.34 345.69 134.57 497.91 23.13 497.91 15 496.32 15 340.15 129.34"/><path class="cls-2" d="M500.89,7.5a4.49,4.49,0,0,1,4.5,4.5v.39h2a7.48,7.48,0,0,0-9.46-7.23V7.5Z" transform="translate(0.02 0)"/><path class="cls-2" d="M505.39,17.46a7.51,7.51,0,0,0,2-5.07h-2Z" transform="translate(0.02 0)"/><path class="cls-2" d="M497.89,5.16a7.34,7.34,0,0,0-2.46,1.18L493.84,7.5h4.05Z" transform="translate(0.02 0)"/><path class="cls-2" d="M86.07,12.39a7.47,7.47,0,0,0,3.08,6.07l.24.17V12.39Z" transform="translate(0.02 0)"/><path class="cls-2" d="M89.39,12a4.49,4.49,0,0,1,4.5-4.5h3V5.68a7.47,7.47,0,0,0-10.82,6.71h3.32Z" transform="translate(0.02 0)"/><path class="cls-2" d="M99.59,7.5,98,6.32a7.47,7.47,0,0,0-1.08-.64V7.5Z" transform="translate(0.02 0)"/><path class="cls-2" d="M505.39,12.39V12a4.49,4.49,0,0,0-4.5-4.5h-3v4.89h7.5Z" transform="translate(0.02 0)"/><polygon class="cls-2" points="96.91 14.81 96.91 15 97.17 15 96.91 14.81"/><polygon class="cls-1" points="497.91 15 497.91 13.83 496.32 15 497.91 15"/><path class="cls-2" d="M96.89,7.5h-3a4.49,4.49,0,0,0-4.5,4.5v.39h7.5Z" transform="translate(0.02 0)"/><polygon class="cls-2" points="96.91 15 96.91 14.81 93.58 12.39 89.41 12.39 89.41 18.63 96.91 24.09 96.91 15"/><polygon class="cls-2" points="96.91 12.39 106.33 12.39 99.61 7.5 96.91 7.5 96.91 12.39"/><polygon class="cls-2" points="497.91 12.39 497.91 7.5 493.87 7.5 487.19 12.39 497.91 12.39"/><path class="cls-2" d="M499.86,12.39l-2,1.44v9.3l6.4-4.69a8,8,0,0,0,1.1-1V12.39Z" transform="translate(0.02 0)"/><path class="cls-1" d="M260.81,129.18a7.46,7.46,0,0,1,2.09,6.37l34.49,25.08,30.53-22.35a7.5,7.5,0,0,1,11.2-9.89l1,1L496.3,15H483.6L297.38,151.35,109.9,15H97.15l155,112.75A7.49,7.49,0,0,1,260.81,129.18Z" transform="translate(0.02 0)"/><polygon class="cls-2" points="93.58 12.39 96.91 14.81 96.91 12.39 93.58 12.39"/><polygon class="cls-1" points="109.92 15 106.33 12.39 96.91 12.39 96.91 14.81 97.17 15 109.92 15"/><polygon class="cls-2" points="499.88 12.39 497.91 12.39 497.91 13.83 499.88 12.39"/><polygon class="cls-1" points="496.32 15 497.91 12.39 487.19 12.39 483.62 15 496.32 15"/><polygon class="cls-1" points="246.49 132.87 96.91 281.62 96.91 289.86 109.9 289.86 258.78 141.8 246.49 132.87"/><polygon class="cls-2" points="89.41 289.08 88.63 289.86 89.41 289.86 89.41 289.08"/><path class="cls-2" d="M93.89,297.36a4.49,4.49,0,0,1-4.5-4.5v-3H88.6l-.33.33A7.5,7.5,0,0,0,93.56,303a7.64,7.64,0,0,0,3.33-.78v-4.87Z" transform="translate(0.02 0)"/><path class="cls-2" d="M96.89,302.23a7.57,7.57,0,0,0,2-1.4l3.49-3.47H96.89Z" transform="translate(0.02 0)"/><path class="cls-2" d="M89.39,292.86a4.49,4.49,0,0,0,4.5,4.5h3v-7.5h-7.5Z" transform="translate(0.02 0)"/><polygon class="cls-2" points="96.91 289.86 96.91 281.62 89.41 289.08 89.41 289.86 96.91 289.86"/><polygon class="cls-2" points="96.91 289.86 96.91 297.36 102.36 297.36 109.9 289.86 96.91 289.86"/><path class="cls-1" d="M262.9,135.55l-10.72-7.8a7.28,7.28,0,0,0-2,1.4l-3.73,3.72,12.28,8.93,2-2A7.41,7.41,0,0,0,262.9,135.55Z" transform="translate(0.02 0)"/><path class="cls-1" d="M260.81,129.18a7.49,7.49,0,0,0-8.63-1.43l10.72,7.8A7.46,7.46,0,0,0,260.81,129.18Z" transform="translate(0.02 0)"/><polygon class="cls-1" points="345.69 134.57 333.39 143.59 488.53 289.86 497.91 289.86 497.91 278.09 345.69 134.57"/><path class="cls-2" d="M505.39,289.86h1.95a7.48,7.48,0,0,0-1.95-4.66Z" transform="translate(0.02 0)"/><path class="cls-2" d="M497.46,297.36a4.14,4.14,0,0,0,.43.13v-.13Z" transform="translate(0.02 0)"/><path class="cls-2" d="M505.39,292.86a4.49,4.49,0,0,1-4.5,4.5h-3v.13a7.31,7.31,0,0,0,2,.27,7.47,7.47,0,0,0,7.48-7.9h-1.95Z" transform="translate(0.02 0)"/><path class="cls-2" d="M497.89,297.36h3a4.49,4.49,0,0,0,4.5-4.5v-3h-7.5Z" transform="translate(0.02 0)"/><path class="cls-2" d="M497.89,289.86H488.5l6.21,5.86a7.57,7.57,0,0,0,2.75,1.64h.43Z" transform="translate(0.02 0)"/><path class="cls-2" d="M497.89,278.09v11.77h7.5V285.2l-.38-.4Z" transform="translate(0.02 0)"/><path class="cls-1" d="M327.92,138.28a7.91,7.91,0,0,0,.9,1l4.54,4.28,12.31-9-5.55-5.23Z" transform="translate(0.02 0)"/><path class="cls-1" d="M328.51,128.71a7.5,7.5,0,0,0-.59,9.57l12.2-8.94-1-1A7.51,7.51,0,0,0,328.51,128.71Z" transform="translate(0.02 0)"/><g id="Layer_3" data-name="Layer 3"><path class="cls-2" d="M345.15,465.65C62.76,466.72-25.6,204.52,18.07,124.3l61-34.66,66.24,98.21L94.63,231.94c39.43,72,88.81,124.8,154.3,146.57l30.8-37.94L382,406,345.2,465.62" transform="translate(0.02 0)"/><path class="cls-2" d="M343.42,473.15c-71.09,0-134.7-16.38-189.12-48.7A324.85,324.85,0,0,1,41.72,311.88C1,243.68-11.69,163.29,11.48,120.71a7.58,7.58,0,0,1,2.88-2.93l61-34.66a7.5,7.5,0,0,1,9.93,2.33l66.24,98.21a7.49,7.49,0,0,1-1.3,9.85l-46.1,40.1c40.16,71.44,86.79,116,142.29,136.09l27.49-33.86a7.5,7.5,0,0,1,9.86-1.59l102.29,65.43a7.51,7.51,0,0,1,2.34,10.26l-36.82,59.62a7.6,7.6,0,0,1-6.4,3.59ZM76.74,99.59" transform="translate(0.02 0)"/></g></svg>