<svg id="Layer_1" data-name="Layer 1" xmlns="http://www.w3.org/2000/svg" viewBox="0 0 512.92 473.15"><defs><style>.cls-1{fill:#fff;}.cls-2{fill:#2c88ff;}</style></defs><g id="Layer_2" data-name="Layer 2"><rect class="cls-1" x="89.42" y="7.5" width="416" height="289.86" rx="4.5"/><path class="cls-2" d="M497.91,15V289.86h-401V15h401m3-15h-407a12,12,0,0,0-12,12V292.86a12,12,0,0,0,12,12h407a12,12,0,0,0,12-12V12A12,12,0,0,0,500.91,0Z" transform="translate(0.01)"/><path class="cls-2" d="M297.41,168.13A7.45,7.45,0,0,1,293,166.7L89.17,18.46A7.51,7.51,0,0,1,98,6.32l199.41,145,198.05-145a7.5,7.5,0,0,1,8.86,12.1L301.84,166.68A7.5,7.5,0,0,1,297.41,168.13Z" transform="translate(0.01)"/><path class="cls-2" d="M93.58,303a7.5,7.5,0,0,1-5.29-12.82l161.93-161a7.5,7.5,0,0,1,10.58,10.64h0l-161.93,161A7.5,7.5,0,0,1,93.58,303Z" transform="translate(0.01)"/><path class="cls-2" d="M499.88,297.76a7.5,7.5,0,0,1-5.15-2L328.84,139.31a7.51,7.51,0,0,1,10.3-10.92L505,284.8a7.5,7.5,0,0,1-5.15,13Z" transform="translate(0.01)"/></g><g id="Layer_3" data-name="Layer 3"><path class="cls-1" d="M345.17,465.65C62.78,466.72-25.58,204.52,18.09,124.3l61-34.66,66.24,98.21L94.65,231.94c39.43,72,88.81,124.8,154.3,146.57l30.8-37.94L382,406l-36.8,59.62" transform="translate(0.01)"/><path class="cls-2" d="M343.44,473.15c-71.09,0-134.7-16.38-189.12-48.7A324.85,324.85,0,0,1,41.74,311.88C1,243.68-11.67,163.29,11.5,120.71a7.58,7.58,0,0,1,2.88-2.93l61-34.66a7.5,7.5,0,0,1,9.93,2.33l66.24,98.21a7.49,7.49,0,0,1-1.3,9.85l-46.1,40.1c40.16,71.44,86.79,116,142.29,136.09l27.49-33.86a7.5,7.5,0,0,1,9.86-1.59l102.29,65.43a7.5,7.5,0,0,1,2.34,10.26L351.6,469.56a7.59,7.59,0,0,1-6.4,3.59ZM23.72,129.73c-8.6,17.25-10.94,42.93-6.58,72.68,5,33.81,17.92,69,37.48,101.78A309.58,309.58,0,0,0,162,411.55c51.45,30.56,111.67,46.23,179,46.6l30.76-49.81L281.35,350.5l-26.58,32.74a7.52,7.52,0,0,1-8.19,2.39C183.8,364.76,132,315.63,88.07,235.54a7.5,7.5,0,0,1,1.66-9.26l45.67-39.74L76.76,99.59Z" transform="translate(0.01)"/></g></svg>