<svg id="Layer_1" data-name="Layer 1" xmlns="http://www.w3.org/2000/svg" viewBox="0 0 500 500"><defs><style>.cls-1{fill:#2c88ff;}.cls-2{fill:#fff;}</style></defs><circle class="cls-1" cx="250" cy="250" r="250"/><path class="cls-2" d="M136.58,346.23l35.79,61.93a28.41,28.41,0,0,0,49.14-28.41l-21.3-36.93,18.46-10.65a7.18,7.18,0,0,0,2.63-9.73l-9.23-16c1.13-.21,8.31-1.63,136-26.7a21.31,21.31,0,0,0,17.26-31.89L341.74,207,356.8,184.1a7.07,7.07,0,0,0,.21-7.45l-14.2-24.58a7.19,7.19,0,0,0-6.61-3.55l-27.34,1.64-26.2-45.38a21,21,0,0,0-18.18-10.65h-.29a21.16,21.16,0,0,0-18,9.8L153.55,222.17,93.26,257a49.71,49.71,0,0,0,43.32,89.27Z"/><path class="cls-2" d="M421.42,109.32l-39.56,22a7.11,7.11,0,0,0,6.89,12.43l39.56-22a7.11,7.11,0,0,0-6.89-12.43Z"/><path class="cls-2" d="M417.3,182.9l-27.41-7.32a7.1,7.1,0,1,0-4.46,13.48,5.77,5.77,0,0,0,.84.23l27.41,7.38a7.12,7.12,0,0,0,3.62-13.77Z"/><path class="cls-2" d="M348.35,83.54,341,111a7.1,7.1,0,1,0,13.48,4.46c.09-.28.17-.56.23-.84l7.38-27.41a7.1,7.1,0,0,0-13.7-3.63Z"/></svg>