<svg id="Layer_1" data-name="Layer 1" xmlns="http://www.w3.org/2000/svg" viewBox="0 0 512 512"><defs><style>.cls-1{fill:#2c88ff;}.cls-2{fill:#fff;}</style></defs><path d="M297.3,508.7c-2.1.3-4.3.7-6.4,1C293,509.3,295.1,509,297.3,508.7Z"/><path d="M302.4,507.8a28.68,28.68,0,0,1-3.1.5A28.68,28.68,0,0,0,302.4,507.8Z"/><path d="M285.1,510.3c-2.5.3-5,.5-7.5.7C280.1,510.9,282.6,510.6,285.1,510.3Z"/><path d="M290.1,509.7c-1.2.2-2.4.3-3.6.4C287.6,510,288.9,509.9,290.1,509.7Z"/><path d="M309.4,506.4l-2.7.6Z"/><path d="M326.7,502.1l-2.2.6C325.2,502.5,325.9,502.3,326.7,502.1Z"/><path d="M321.4,503.5l-2.4.6A9.38,9.38,0,0,0,321.4,503.5Z"/><path d="M314.6,505.3l-2.5.6A11.36,11.36,0,0,1,314.6,505.3Z"/><path d="M277.5,511.1l-4,.3Z"/><path class="cls-1" d="M512,256C512,114.6,397.4,0,256,0S0,114.6,0,256,114.6,512,256,512c1.5,0,3,0,4.5-.1V312.7h-55V248.6h55V201.4c0-54.7,33.4-84.5,82.2-84.5,23.4,0,43.5,1.7,49.3,2.5v57.2H358.4c-26.5,0-31.7,12.6-31.7,31.1v40.8h63.5v64.1H326.7V502.1C433.7,471.4,512,372.9,512,256Z"/><path d="M272.9,511.4c-2.7.2-5.3.3-8,.4C267.6,511.7,270.2,511.6,272.9,511.4Z"/><path d="M264.8,511.8c-1.4,0-2.8.1-4.2.1C261.9,511.9,263.3,511.9,264.8,511.8Z"/><path class="cls-2" d="M260.5,201.4"/><path class="cls-2" d="M260.5,248.6h-55v64.1h55V512s39.9-.7,66.2-9.8V312.7h63.5V248.6H326.7V207.8S320,176.7,356,176.7h36V119.5s-131.5-29.3-131.5,82"/></svg>