<svg id="Layer_1" data-name="Layer 1" xmlns="http://www.w3.org/2000/svg" viewBox="0 0 513.51 513.58"><defs><style>.cls-1{fill:#2c88ff;}.cls-2{fill:#fff;}</style></defs><path class="cls-1" d="M32,34.8C-8.2,76.6,0,121,0,255.9c0,112-19.5,224.3,82.7,250.7,31.9,8.2,314.9,8.2,346.8,0,42.6-11,77.2-45.5,82-105.7.7-8.4.7-281.3,0-289.9C506.5,46.9,467,9.9,414.9,2.4,403,.6,400.6.1,339.4,0,122.4.1,74.8-9.6,32,34.8Z" transform="translate(1.49 0.83)"/><path class="cls-2" d="M256,67c-77.5,0-151-6.9-179.1,65.2-11.7,29.8-10,68.4-10,123.8,0,48.6-1.6,94.3,9.9,123.8C104.8,451.9,179,445,255.9,445c74.2,0,150.7,7.7,179.1-65.2,11.6-30.1,9.9-68.2,9.9-123.8,0-73.9,4.1-121.5-31.7-157.3C376.9,62.4,327.9,67,256,67Zm-17,34c161.6-.3,182.1-18.2,170.8,231.3-4,88.3-71.2,78.6-153.8,78.6-150.6,0-154.9-4.3-154.9-155C101,103.5,113,101.1,239,101Zm117.9,31.4a22.7,22.7,0,1,0,22.7,22.7A22.75,22.75,0,0,0,356.9,132.4ZM256,158.9A97.1,97.1,0,1,0,353,256a97.13,97.13,0,0,0-97-97.1Zm0,34.1c83.3,0,83.4,126,0,126S172.5,193,256,193Z" transform="translate(1.49 0.83)"/></svg>