<svg id="Husky" xmlns="http://www.w3.org/2000/svg" xmlns:xlink="http://www.w3.org/1999/xlink" viewBox="0 0 1000 1000"><defs><style>.cls-1{fill:#8fbbe7;}.cls-2{fill:#02052b;}.cls-3{fill:#fff;}.cls-4{fill:#21315b;}.cls-5{fill:#e7effa;}.cls-6{fill:#01052b;}.cls-7{fill:url(#radial-gradient);}.cls-8{fill:url(#radial-gradient-2);}</style><radialGradient id="radial-gradient" cx="433.46" cy="454.92" r="21.62" gradientUnits="userSpaceOnUse"><stop offset="0.28" stop-color="aqua"/><stop offset="0.87" stop-color="#1c89dd"/></radialGradient><radialGradient id="radial-gradient-2" cx="9084.57" cy="454.94" r="21.62" gradientTransform="matrix(-1, 0, 0, 1, 9651.22, 0)" gradientUnits="userSpaceOnUse"><stop offset="0.28" stop-color="#ffe900"/><stop offset="0.87" stop-color="#ff4f00"/></radialGradient></defs><title>IMDB_Brian_Cautaerts_Object</title><g id="Background"><rect class="cls-1" width="1000" height="1000"/></g><g id="Head"><g id="Main_shape" data-name="Main shape"><path class="cls-2" d="M466.09,786.51,417.93,773l-30.88-26.11-31.72-15.69L303,695.92l-2.78-61.36-84.24-81.19,35.18-11.85-51.37-57,14.32-1.16L275.44,432a156.35,156.35,0,0,0,29.61-76.49c9.61-92.29,27.85-142.45,57.41-157.87l6.08-3.17,81.38,71.65a242.86,242.86,0,0,0,41,3.65c2.91,0,5.83-.06,8.7-.18l.41,0,.41,0c2.87.12,5.79.18,8.7.18a242.77,242.77,0,0,0,41-3.65l81.38-71.65,6.08,3.17c29.56,15.42,47.8,65.58,57.41,157.87A156.45,156.45,0,0,0,724.56,432l61.37,51.4,14.32,1.16-51.37,57,35.18,11.85-84.24,81.19L697,695.92l-52.37,35.31L613,746.92,582.07,773l-48.16,13.48L500,804.88Z"/><path class="cls-3" d="M632.91,206.5c27.2,14.18,43.54,67.92,52.09,150q4.69,45,32.21,82.33l57.3,48-7.21,5.05,12,1-48,53.26,34,11.45L690,630.12l-2.73,60.32-47.65,32.13L607.42,738.5,577.28,764l-47.15,13.2L500,793.5l-30.13-16.31L422.72,764,392.58,738.5l-32.21-15.93-47.65-32.13L310,630.12l-75.26-72.53,34-11.45-48-53.26,12-1-7.21-5.05,57.3-48q27.54-37.37,32.21-82.33c8.55-82.12,24.89-135.86,52.08-150l78.33,69a254,254,0,0,0,45.48,4.29c3.07,0,6.1-.07,9.11-.19,3,.12,6,.19,9.11.19a254,254,0,0,0,45.48-4.29l78.32-69M500,793.5h0M630,182.42l-10.3,9.07-74.08,65.23a230.59,230.59,0,0,1-36.51,3c-2.77,0-5.56-.06-8.28-.17l-.83,0-.83,0c-2.72.11-5.5.17-8.28.17a230.59,230.59,0,0,1-36.51-3L380.3,191.49,370,182.42l-12.16,6.34c-18.19,9.49-32.17,29.41-42.75,60.92-8.85,26.35-15.39,60.63-20,104.78-2.69,25.88-11.55,49-27,70.66l-55.41,46.42-2.56,2.14-31.32,2.53,27.11,30.07,27.62,30.63-5.15,1.73-31.2,10.51L220.85,572l69.52,67,2.37,52.35.46,10.06,8.34,5.62,47.65,32.13,1.11.75,1.2.6,30,14.84,28.28,23.92,3.32,2.81,4.2,1.18,45,12.59,28.16,15.25,9.52,5.16,9.52-5.16,28.16-15.25,45-12.59,4.2-1.18,3.32-2.81,28.28-23.92,30-14.84,1.2-.6,1.11-.75L698.46,707l8.34-5.62.46-10.06L709.63,639l69.52-67,23.7-22.84-31.2-10.51-5.15-1.73,27.62-30.63,27.1-30.07-31.31-2.53-2.56-2.14-55.41-46.42c-15.49-21.64-24.35-44.78-27-70.66-4.6-44.15-11.14-78.43-20-104.78-10.58-31.51-24.56-51.43-42.75-60.92L630,182.42Z"/></g><path id="Inner_shape" data-name="Inner shape" class="cls-4" d="M500,768.44l22.62-12.26,45.08-12.62,28.75-24.3,32.69-16,38.68-26.1,2.64-58.23,57.27-55.19s-31.41-10.51-27.1-15.76l41.08-42.58-26.52-1.89,26.52-20.39L702.57,450.3c-21.79-32.14-34.46-63.68-37.74-94.62,0,0-8.13-99.5-32.74-124.12l-68.16,60A256.82,256.82,0,0,1,500,297.22a256.82,256.82,0,0,1-63.93-5.63l-68.16-60c-24.61,24.62-32.74,124.12-32.74,124.12a189.06,189.06,0,0,1-37.74,94.62l-39.14,32.78L289.59,505l-27,2.2,36.76,40.77c4.31,5.25-27.1,15.76-27.1,15.76l57.27,55.19,2.64,58.23,38.68,26.1,32.69,16,28.75,24.3,45.08,12.62Z"/><g id="Face"><polygon class="cls-5" points="459.26 717.48 377.57 671.41 365.38 608.85 357.9 576.32 344.02 543.27 331.56 485.92 358.34 467.87 370.61 417.52 412.92 397.32 437.8 356.66 478.57 389.62 479.08 391.12 478.9 350.51 500 324.62 521.1 350.51 520.92 391.13 521.43 389.61 562.24 356.66 587.09 397.32 629.39 417.52 641.66 467.87 668.44 485.92 655.98 543.27 642.1 576.32 634.62 608.85 622.43 671.41 540.78 717.46 500 740.22 459.26 717.48"/><path class="cls-6" d="M500,340.45l11.08,13.6-.43,98.9L530,395.57l29.67-24,20.45,33.47,40.7,19.43L632.86,474l24.37,16.42-10.82,49.82-13.87,33-7.7,33.54L613.5,665l-77.63,43.78-35.87,20-35.87-20L386.5,665l-11.34-58.19-7.7-33.54-13.87-33-10.82-49.82L367.14,474l12.06-49.5,40.7-19.43,20.48-33.47,29.64,24L489.35,453l-.43-98.9L500,340.45m0-31.67-15.51,19-11.08,13.6L468.89,347l0,7.17L469,369l-16-13-17.73-14.33-11.9,19.44-17.39,28.41-35.35,16.88L362,410.54l-2.25,9.23-10.23,42-18,12.09-11.24,7.58,2.88,13.25,10.82,49.83.39,1.8.71,1.7,13.2,31.41,7.25,31.53,11.27,57.86,1.77,9.06,8,4.54,77.63,43.78,0,0,0,0,35.87,20,9.74,5.44,9.74-5.44,35.87-20,0,0,0,0,77.63-43.78,8-4.54,1.77-9.06,11.27-57.86,7.25-31.53L664.85,548l.71-1.7.39-1.8,10.82-49.83,2.88-13.25-11.24-7.58-17.95-12.09-10.23-42L638,410.54l-8.56-4.09-35.35-16.87-17.35-28.41-11.89-19.45L547.09,356,531,369l.06-14.88,0-7.17-4.52-5.55-11.08-13.6-15.51-19Z"/></g></g><g id="Eyes"><path class="cls-2" d="M371.22,455.38l15.37,26.13a83.07,83.07,0,0,1-1.73-8.5,47.21,47.21,0,0,1-.27-5.33l.69-.23c1.71,2.43,3.45,4.82,5.13,7.3,8,11.91,17.1,21.21,28.13,25.36,6.3,2.37,12.51,1.94,18.72,1.33,8.06-.8,16-3.13,24.28-1.45,4.35.88,10.57-12.78,14.51-22.8a17.7,17.7,0,0,0-3.59-18.57,115.12,115.12,0,0,0-25.57-21.08c-7.73-4.54-15.71-8.66-23.72-11.1-10.36-3.15-23.38-7.57-34-7.56a24.06,24.06,0,0,0-10.5,5.62C378.41,424.22,373.27,440.17,371.22,455.38ZM402,445.61c-.82-4.24-.34-4.81,2.72-4.14,5.83,1.27,11.68,2.77,17.51,3.49,12.65,1.55,24.11,8.5,34.49,20.06,2,2.19,3.13,6.24,4.29,9.64.72,2.12.12,3.92-1.87,2.74-4.33-2.56-8.27-1.12-12.09,1.08-5.07.94-10.1,2.28-15.23,2.66a16.68,16.68,0,0,1-9.22-1.86C411.69,473.2,405.09,461.45,402,445.61Z"/><path class="cls-7" d="M435.84,471.93a19,19,0,0,1-10.52-3,15.78,15.78,0,0,1-6.48-10.54,17.72,17.72,0,0,1,2.65-13.45l.8-1.09,1.35.07c9,.47,24.19,7.15,33,17.14l1.92,2.17-2.43,1.58c-5,3.24-12.59,7.12-20.27,7.12Z"/><path class="cls-6" d="M423.51,446.42c8.71.45,23.22,7.18,31.24,16.29-5.65,3.66-12.47,6.71-18.91,6.71a16.55,16.55,0,0,1-9.16-2.59c-6.16-4-7.43-14.61-3.17-20.41m-2.44-5.14-1.59,2.18a20.26,20.26,0,0,0-3.1,15.38A18.3,18.3,0,0,0,424,471a21.49,21.49,0,0,0,11.89,3.4c8.29,0,16.34-4.08,21.63-7.51l4.86-3.16-3.83-4.35c-9.23-10.47-25.21-17.48-34.73-18l-2.7-.14Z"/><circle class="cls-2" cx="439.92" cy="453.34" r="8.43"/><path class="cls-5" d="M439.36,451.38a4,4,0,0,1-5.26,1.84,3.87,3.87,0,0,1-2.19-5A41.36,41.36,0,0,1,439.36,451.38Z"/><path class="cls-2" d="M621.34,424.51a23.82,23.82,0,0,0-10.42-5.61c-10.6,0-23.62,4.41-34,7.57-8,2.43-16,6.55-23.72,11.09a115.9,115.9,0,0,0-25.57,21.08,17.73,17.73,0,0,0-3.58,18.58c3.93,10,10.15,23.67,14.5,22.8,8.32-1.68,16.23.64,24.29,1.44,6.21.61,12.41,1.05,18.71-1.32,11-4.15,20.09-13.46,28.13-25.36,1.68-2.49,3.42-4.88,5.13-7.31l.69.23a47.09,47.09,0,0,1-.27,5.33,78.2,78.2,0,0,1-1.73,8.51l15.37-26.13C626.85,440.2,621.63,424.23,621.34,424.51ZM577.5,479.3a16.58,16.58,0,0,1-9.22,1.86c-5.13-.38-10.15-1.72-15.22-2.66-3.83-2.2-7.76-3.64-12.09-1.08-2,1.18-2.6-.61-1.88-2.73,1.16-3.41,2.33-7.45,4.3-9.64,10.37-11.56,21.83-18.51,34.48-20.07,5.83-.71,11.68-2.22,17.52-3.49,3.06-.67,3.53-.09,2.71,4.15C595,461.48,588.42,473.22,577.5,479.3Z"/><path class="cls-8" d="M564.27,472c-7.67,0-15.26-3.87-20.27-7.12l-2.43-1.57,1.92-2.18c8.79-10,24-16.67,33-17.14l1.34-.06.8,1.08a17.73,17.73,0,0,1,2.66,13.45A15.77,15.77,0,0,1,574.79,469,19,19,0,0,1,564.27,472Z"/><path class="cls-6" d="M576.6,446.44c4.26,5.81,3,16.4-3.17,20.41a16.46,16.46,0,0,1-9.16,2.6c-6.43,0-13.25-3.05-18.91-6.72,8-9.1,22.53-15.84,31.24-16.29m2.44-5.13-2.69.14c-9.53.49-25.51,7.51-34.74,18l-3.83,4.35,4.86,3.15c5.3,3.43,13.35,7.52,21.63,7.52a21.43,21.43,0,0,0,11.88-3.4,18.31,18.31,0,0,0,7.59-12.19,20.23,20.23,0,0,0-3.1-15.37l-1.6-2.18Z"/><circle class="cls-2" cx="560.19" cy="453.36" r="8.43"/><path class="cls-5" d="M560.76,451.41a4,4,0,0,0,5.25,1.84,3.87,3.87,0,0,0,2.19-5A40.33,40.33,0,0,0,560.76,451.41Z"/></g><g id="Ears"><path class="cls-5" d="M356.77,337.33c4-23.45,10.51-56.74,16.94-75l38.44,35.83C395.71,308.32,375.25,323.56,356.77,337.33Z"/><path class="cls-6" d="M377.32,276,400,297.08c-10.23,6.75-21.42,14.81-32.47,22.95,3-15.68,6.42-31.68,9.83-44m-6.26-26.34c-12.28,21.67-24.62,104.71-24.62,104.71C370.08,337,403.52,311,424.65,299.58l-53.59-49.94Z"/><path class="cls-5" d="M643.22,337.33c-18.47-13.77-38.93-29-55.37-39.14l38.44-35.83C632.72,280.59,639.22,313.88,643.22,337.33Z"/><path class="cls-6" d="M622.68,276c3.41,12.37,6.85,28.37,9.83,44-11-8.14-22.24-16.2-32.47-22.95L622.68,276m6.26-26.34-53.59,49.94C596.48,311,629.92,337,653.56,354.35c0,0-12.34-83-24.62-104.71Z"/></g><g id="Mouth"><g id="Mouth-2" data-name="Mouth"><path class="cls-2" d="M468.43,694.41c-58.9-30.4-66.16-88.51-66.23-89.09l-.3-2.69,1.24,2.4c13.32,25.66,21.33,28.48,23.26,28.78-1.67-58.42,13.85-114.42,14-115l1.19-4.25-.21,4.41c0,.36-1.73,36.28-1.27,72.06.78,59.5,6.71,72.87,11.56,73.61l.3.05.09.29c0,.07,3.42,7.78,43.15,16.13l.1-12.09A116.91,116.91,0,0,1,479.23,665C467.44,661,459.49,656,455.6,650.12c-.16-.2-17-23.25,5.83-71.24l.87-1.82.08,2c0,.17.75,16.52,8.42,18.7h0c.08,0,.95.06,2.7.06,3.67,0,12-.3,26.92-2.37h.14c14.88,2.07,23.25,2.37,26.92,2.37,1.91,0,2.78-.08,2.79-.08,7.59-2.15,8.34-18.51,8.34-18.68l.08-2,.87,1.82c22.87,48,6,71,5.81,71.26C541.51,656,533.56,661,521.77,665A116.91,116.91,0,0,1,505.68,669l.1,12.09c39.73-8.35,43.12-16.06,43.15-16.14l.1-.27.29-.06c4.85-.74,10.78-14.11,11.56-73.61.46-35.78-1.25-71.7-1.27-72.06l-.21-4.41,1.19,4.25c.16.56,15.68,56.55,14,115,2.07-.34,10.06-3.33,23.26-28.77l1.24-2.4-.3,2.69c-.07.58-7.33,58.69-66.17,89.07L500.5,705.58Z"/><path class="cls-6" d="M560.11,519s15.78,56.15,14,115.36h.14c1.17,0,9.53-1.05,24.08-29.08,0,0-6.62,58.08-65.89,88.68L500.5,705.05l-31.91-11.11c-59.27-30.6-65.89-88.68-65.89-88.68,14.55,28,22.91,29.08,24.08,29.08h.14c-1.81-59.21,14-115.36,14-115.36s-6.95,143.49,10.71,146.19c0,0,2.64,7.94,44.12,16.58l.1-13.13s-30.56-4.72-39.81-18.77c0,0-17.13-22.47,5.87-70.75,0,0,.67,16.86,8.79,19.16,0,0,.87.08,2.84.08,3.94,0,12.3-.34,27-2.38,14.69,2,23,2.38,27,2.38,2,0,2.84-.08,2.84-.08,8.12-2.3,8.79-19.16,8.79-19.16,23,48.28,5.87,70.75,5.87,70.75-9.25,14-39.81,18.77-39.81,18.77l.1,13.13c41.48-8.64,44.12-16.58,44.12-16.58C567.06,662.46,560.11,519,560.11,519m-117.8-8.77-2.39,8.5c-.15.56-15.58,56.21-14,114.46-2.51-.79-10.21-5.08-22.29-28.36l-2.5-4.81.62,5.38c0,.15,1.78,14.91,10.81,33.2a125.72,125.72,0,0,0,55.62,56.26l.06,0,.07,0L500.17,706l.33.11.33-.11,31.9-11.11.07,0,.06,0a125.72,125.72,0,0,0,55.62-56.26c9-18.29,10.8-33.05,10.81-33.2l.62-5.38-2.5,4.81c-6.07,11.7-11.74,20-16.85,24.78a14.88,14.88,0,0,1-5.44,3.59c1.54-58.26-13.89-113.91-14-114.47l-2.38-8.5.42,8.82c0,.36,1.73,36.26,1.27,72-.81,62.26-7.32,72.54-11.13,73.12l-.61.09-.19.58s-3.68,7.52-42.18,15.67l-.08-11c5.14-.89,31-6,39.61-19,.39-.52,4.48-6.26,5.87-17.73,2.36-19.5-5-40.14-11.65-54L538.29,575l-.17,4a44.85,44.85,0,0,1-1.33,8.54c-1,3.81-3,8.56-6.65,9.67-.25,0-1.1.07-2.65.07-3.65,0-12-.3-26.85-2.37l-.14,0-.14,0c-14.85,2.07-23.2,2.37-26.85,2.37-1.55,0-2.39-.05-2.65-.07-3.68-1.11-5.65-5.86-6.65-9.67a44.85,44.85,0,0,1-1.33-8.54l-.17-4L461,578.66c-6.62,13.89-14,34.53-11.65,54,1.39,11.47,5.48,17.21,5.87,17.73,4,6,12,11.06,23.87,15a116.42,116.42,0,0,0,15.74,4l-.08,11c-19.82-4.2-30.19-8.18-35.42-10.81-5.87-2.94-6.77-4.88-6.78-4.9l-.19-.58-.59-.05c-3.81-.58-10.32-10.86-11.13-73.13-.46-35.77,1.25-71.66,1.27-72l.42-8.82Z"/></g><path class="cls-5" d="M494.41,636.46s-6.52-7.81-8-13.72c0,0,0-9.91-7.08-12.87,0,0-12.66-3-14.9,6.76,0,0-3.35,11.6,7.64,7.59,0,0,4.28-3,6.15.42C478.21,624.64,484,636.67,494.41,636.46Z"/><path class="cls-5" d="M508.14,636.46s6.52-7.81,8-13.72c0,0,0-9.91,7.08-12.87,0,0,12.66-3,14.9,6.76,0,0,3.35,11.6-7.64,7.59,0,0-4.28-3-6.15.42C524.34,624.64,518.57,636.67,508.14,636.46Z"/></g></svg>