<?xml version="1.0" encoding="utf-8"?>
<!-- Generator: Adobe Illustrator 24.0.1, SVG Export Plug-In . SVG Version: 6.00 Build 0)  -->
<svg version="1.1" id="Layer_1" xmlns="http://www.w3.org/2000/svg" xmlns:xlink="http://www.w3.org/1999/xlink" x="0px" y="0px"
	 viewBox="0 0 512 512" style="enable-background:new 0 0 512 512;" xml:space="preserve">
<style type="text/css">
	.st0{fill:url(#SVGID_1_);}
	.st1{fill:#FFFFFF;}
</style>
<linearGradient id="SVGID_1_" gradientUnits="userSpaceOnUse" x1="0" y1="256" x2="512" y2="256">
	<stop  offset="0" style="stop-color:#2C88FF"/>
	<stop  offset="1" style="stop-color:#0A41D3"/>
</linearGradient>
<path class="st0" d="M437,0H75C33.6,0,0,33.6,0,75v362c0,41.4,33.6,75,75,75h362c41.4,0,75-33.6,75-75V75C512,33.6,478.4,0,437,0z
	 M181,406h-60V196h60V406z M181,166h-60v-60h60V166z M391,406h-60V286c0-16.5-13.5-30-30-30s-30,13.5-30,30v120h-60V196h60v11.3
	c15.7-4.9,25.9-11.3,45-11.3c40.7,0,75,36.5,75,79.7V406z"/>
<rect x="121" y="106" class="st1" width="60" height="60"/>
<rect x="121" y="196" class="st1" width="60" height="210"/>
<path class="st1" d="M211,196h60v11.3c0,0,28.3-11.3,45-11.3c0,0,75-1.9,75,79.7V406h-60V286c0,0-2.1-29.9-30-30s-30,30-30,30v120
	h-60V196z"/>
</svg>
