<svg id="Layer_1" data-name="Layer 1" xmlns="http://www.w3.org/2000/svg" viewBox="0 0 512 512"><defs><style>.cls-1{fill:#2c88ff;}.cls-2{fill:#fff;}</style></defs><path class="cls-1" d="M437,0H75A75,75,0,0,0,0,75V437a75,75,0,0,0,75,75H437a75,75,0,0,0,75-75V75A75,75,0,0,0,437,0ZM181,406H121V196h60Zm0-240H121V106h60ZM391,406H331V286a30,30,0,0,0-60,0V406H211V196h60v11.3c15.7-4.9,25.9-11.3,45-11.3,40.7,0,75,36.5,75,79.7Z"/><rect class="cls-2" x="121" y="106" width="60" height="60"/><rect class="cls-2" x="121" y="196" width="60" height="210"/><path class="cls-2" d="M211,196h60v11.3S299.3,196,316,196c0,0,75-1.9,75,79.7V406H331V286s-2.1-29.9-30-30-30,30-30,30V406H211Z"/></svg>