<svg id="Layer_2" data-name="Layer 2" xmlns="http://www.w3.org/2000/svg" viewBox="0 0 509.5 410.47"><defs><style>.cls-1{fill:#2c88ff;}</style></defs><path class="cls-1" d="M379.18,295.72H331.25a7.45,7.45,0,0,1-5-1.89C257.56,232.91,10,234.74,7.55,234.77h0A7.49,7.49,0,0,1,0,227.29V68.46a7.52,7.52,0,0,1,2.22-5.33A7.35,7.35,0,0,1,7.58,61c2.49,0,250,1.85,318.7-59.07a7.45,7.45,0,0,1,5-1.89h47.93a7.5,7.5,0,0,1,7.5,7.5h0V288.22a7.49,7.49,0,0,1-7.48,7.5ZM371.68,15" transform="translate(0 -0.04)"/><path class="cls-1" d="M380.24,192h-1.06a7.5,7.5,0,0,1,0-15h1.06c17.55,0,31.84-13,31.84-29.09s-14.29-29.09-31.84-29.09h-1.06a7.5,7.5,0,0,1,0-15h1.06c25.83,0,46.84,19.78,46.84,44.09S406.07,192,380.24,192Z" transform="translate(0 -0.04)"/><path class="cls-1" d="M502,155.36H466.1a7.5,7.5,0,0,1,0-15H502a7.5,7.5,0,0,1,0,15Z" transform="translate(0 -0.04)"/><path class="cls-1" d="M446.82,108.15a7.5,7.5,0,0,1-5.31-12.8L466.9,70a7.5,7.5,0,0,1,10.6,10.6L452.12,106A7.5,7.5,0,0,1,446.82,108.15Z" transform="translate(0 -0.04)"/><path class="cls-1" d="M446.82,108.15a7.5,7.5,0,0,1-5.31-12.8L466.9,70a7.5,7.5,0,0,1,10.6,10.6L452.12,106A7.5,7.5,0,0,1,446.82,108.15Z" transform="translate(0 -0.04)"/><path class="cls-1" d="M472.2,228a7.46,7.46,0,0,1-5.3-2.19l-25.39-25.38a7.5,7.5,0,0,1,10.61-10.61L477.5,215.2a7.5,7.5,0,0,1-5.3,12.8Z" transform="translate(0 -0.04)"/><path class="cls-1" d="M107.38,410.51H36.73a7.5,7.5,0,0,1-7.5-7.52,7.29,7.29,0,0,1,.1-1.23L58.87,227.27a7.5,7.5,0,0,1,14.79,2.5l53.06,2.15a7.5,7.5,0,0,1,14.82,2.33L114.79,404.18A7.5,7.5,0,0,1,107.38,410.51Z" transform="translate(0 -0.04)"/><path class="cls-1" d="M150.23,345.08H117.67a7.5,7.5,0,0,1,0-15h26l7.81-57.39h-17.4a7.5,7.5,0,0,1,0-15h26a7.51,7.51,0,0,1,7.51,7.51,8.26,8.26,0,0,1-.07,1l-9.85,72.39A7.51,7.51,0,0,1,150.23,345.08Z" transform="translate(0 -0.04)"/></svg>