<svg id="Layer_2" data-name="Layer 2" xmlns="http://www.w3.org/2000/svg" viewBox="0 0 509.48 410.51"><defs><style>.cls-1{fill:#2c88ff;}</style></defs><path class="cls-1" d="M379.18,295.72H331.25a7.47,7.47,0,0,1-5-1.89c-68.69-60.92-316.21-59.09-318.7-59.06H7.5a7.49,7.49,0,0,1-7.5-7.5V68.46a7.52,7.52,0,0,1,2.22-5.33A7.39,7.39,0,0,1,7.58,61c2.49,0,250,1.85,318.7-59.07a7.47,7.47,0,0,1,5-1.89h47.93a7.5,7.5,0,0,1,7.5,7.5V288.22A7.49,7.49,0,0,1,379.18,295.72Zm-45.15-15h37.65V15H334c-31.74,26.41-95.9,44.66-190.77,54.28C86.08,75.07,34,75.88,15,76v143.8c19,.09,71.08.89,128.26,6.69C238.13,236.06,302.29,254.32,334,280.72Z"/><path class="cls-1" d="M380.24,192h-1.06a7.5,7.5,0,0,1,0-15h1.06c17.55,0,31.84-13,31.84-29.09s-14.29-29.09-31.84-29.09h-1.06a7.5,7.5,0,0,1,0-15h1.06c25.83,0,46.84,19.78,46.84,44.09S406.07,192,380.24,192Z"/><path class="cls-1" d="M502,155.36h-35.9a7.5,7.5,0,0,1,0-15H502a7.5,7.5,0,0,1,0,15Z"/><path class="cls-1" d="M446.82,108.15a7.5,7.5,0,0,1-5.31-12.8L466.9,70a7.5,7.5,0,0,1,10.6,10.6L452.12,106A7.47,7.47,0,0,1,446.82,108.15Z"/><path class="cls-1" d="M446.82,108.15a7.5,7.5,0,0,1-5.31-12.8L466.9,70a7.5,7.5,0,0,1,10.6,10.6L452.12,106A7.47,7.47,0,0,1,446.82,108.15Z"/><path class="cls-1" d="M472.2,228a7.47,7.47,0,0,1-5.3-2.19l-25.39-25.38a7.5,7.5,0,1,1,10.61-10.61l25.38,25.38a7.5,7.5,0,0,1-5.3,12.8Z"/><path class="cls-1" d="M107.38,410.51H36.73a7.51,7.51,0,0,1-7.4-8.75L58.87,227.27a7.5,7.5,0,0,1,14.79,2.5L45.6,395.51H101l25.72-163.59a7.5,7.5,0,0,1,14.82,2.33L114.79,404.18A7.5,7.5,0,0,1,107.38,410.51Z"/><path class="cls-1" d="M150.23,345.08H117.67a7.5,7.5,0,0,1,0-15h26l7.81-57.39h-17.4a7.5,7.5,0,1,1,0-15h26a7.51,7.51,0,0,1,7.44,8.51l-9.85,72.39A7.5,7.5,0,0,1,150.23,345.08Z"/><path class="cls-1" d="M331.25,295.72a7.5,7.5,0,0,1-7.5-7.5V7.5a7.5,7.5,0,0,1,15,0V288.22A7.49,7.49,0,0,1,331.25,295.72Z"/></svg>