<svg id="Layer_1" data-name="Layer 1" xmlns="http://www.w3.org/2000/svg" viewBox="0 0 500 500"><defs><style>.cls-1{fill:#2c88ff;}.cls-2{fill:#fff;}</style></defs><circle class="cls-1" cx="250" cy="250" r="250"/><g id="Computer"><path class="cls-2" d="M368.1,109.38H132.9a23.52,23.52,0,0,0-23.52,23.52V311.65a23.52,23.52,0,0,0,23.52,23.52h77.91L200.22,363.4H189.35a14.08,14.08,0,0,0-14.12,14v9.48a4.7,4.7,0,0,0,4.71,4.7H321.06a4.7,4.7,0,0,0,4.71-4.7v-9.41a14.08,14.08,0,0,0-14-14.11H300.78l-10.59-28.23H368.1a23.52,23.52,0,0,0,23.52-23.52V132.9A23.52,23.52,0,0,0,368.1,109.38Z"/><path class="cls-1" d="M250.5,292.84a14.08,14.08,0,1,0,.07,0Zm0,18.81a4.7,4.7,0,1,1,4.7-4.7A4.69,4.69,0,0,1,250.5,311.65Z"/></g></svg>