<svg xmlns="http://www.w3.org/2000/svg" viewBox="0 0 413.15 385"><defs><style>.cls-1{fill:#0073e4;}.cls-2{fill:#f0ff74;}.cls-3{fill:#fff;}.cls-4{fill:#ff9852;}.cls-5{fill:#d4fe4d;}.cls-6{fill:#efabff;}</style></defs><title>PKPxStuBru</title><g id="Background"><rect class="cls-1" y="41.47" width="413" height="193.42"/></g><g id="Title"><rect class="cls-2" width="413.15" height="41.47"/><path d="M101.81,17.46a6.35,6.35,0,0,0-1-3.54,6.44,6.44,0,0,0-2.76-2.31,10.25,10.25,0,0,0-4.24-.81H85.9V21.5h14.56a6.13,6.13,0,0,0,.38-.51A6.36,6.36,0,0,0,101.81,17.46Zm-5.29,2.35a4.49,4.49,0,0,1-2.91.82H90.15V14.26h3.46a4.49,4.49,0,0,1,2.91.83,2.91,2.91,0,0,1,1,2.37A2.9,2.9,0,0,1,96.52,19.81Z" transform="translate(0 0)"/><path d="M83.78,21.5v7.65H88V24.09h3.7a10.23,10.23,0,0,0,4.23-.8,6.27,6.27,0,0,0,2.38-1.79H83.78Z" transform="translate(0 0)"/><path d="M116,24.66a3.86,3.86,0,0,1-3,1.19h0q-3.84,0-4.07-4.35h-4.25a8.15,8.15,0,0,0,2.17,5.79,9.69,9.69,0,0,0,12.25,0,8.15,8.15,0,0,0,2.17-5.79H117A5.14,5.14,0,0,1,116,24.66Z" transform="translate(0 0)"/><path d="M108.85,21.5c0-.19,0-.38,0-.58V10.8h-4.25V21.08c0,.14,0,.28,0,.42h4.25Z" transform="translate(0 0)"/><path d="M121.21,10.8H117V20.92c0,.2,0,.39,0,.58h4.19c0-.14,0-.28,0-.42Z" transform="translate(0 0)"/><polygon points="125.4 29.15 129.62 29.15 129.62 24.51 132.09 21.94 137.96 29.15 142.91 29.15 136.86 21.5 125.4 21.5 125.4 29.15"/><polygon points="142.47 10.8 137.75 10.8 129.62 19.37 129.62 10.8 125.4 10.8 125.4 21.5 136.86 21.5 134.87 18.98 142.47 10.8"/><polygon points="144.8 21.5 144.8 29.15 149.02 29.15 149.02 24.51 151.49 21.94 157.36 29.15 162.31 29.15 156.25 21.5 146.91 21.5 144.8 21.5"/><polygon points="163.97 10.8 159.26 10.8 151.13 19.37 151.13 10.8 146.91 10.8 146.91 21.5 156.25 21.5 158.37 21.5 156.37 18.98 163.97 10.8"/><polygon points="164.2 21.5 164.2 29.15 178.41 29.15 178.41 25.74 168.42 25.74 168.42 21.5 166.31 21.5 164.2 21.5"/><polygon points="170.53 18.19 170.53 14.21 180.18 14.21 180.18 10.8 166.31 10.8 166.31 21.5 168.42 21.5 170.53 21.5 179.05 21.5 179.05 18.19 170.53 18.19"/><polygon points="183.9 10.8 183.9 21.5 186.03 21.5 188.14 21.5 188.14 10.8 183.9 10.8"/><polygon points="181.79 21.5 181.79 29.15 195.23 29.15 195.23 25.69 186.03 25.69 186.03 21.5 183.9 21.5 181.79 21.5"/><path d="M197.62,29.15h4.25V24.09h3.69a10.17,10.17,0,0,0,4.23-.8,6.19,6.19,0,0,0,2.38-1.79H197.62Z" transform="translate(0 0)"/><path d="M213.53,17.46a6.35,6.35,0,0,0-1-3.54,6.41,6.41,0,0,0-2.77-2.31,10.17,10.17,0,0,0-4.23-.81h-7.94V21.5h14.55a6.26,6.26,0,0,0,.39-.51A6.36,6.36,0,0,0,213.53,17.46Zm-5.29,2.35a4.49,4.49,0,0,1-2.91.82h-3.46V14.26h3.46a4.49,4.49,0,0,1,2.91.83,2.91,2.91,0,0,1,1,2.37A2.9,2.9,0,0,1,208.24,19.81Z" transform="translate(0 0)"/><path d="M231.26,21.5a5.67,5.67,0,0,1-.57,1.52,5.42,5.42,0,0,1-2.06,2.08,5.79,5.79,0,0,1-2.94.75h0a5.78,5.78,0,0,1-2.93-.75A5.35,5.35,0,0,1,220.7,23a6.05,6.05,0,0,1-.58-1.52h-4.35a9,9,0,0,0,4.77,6.73,11.29,11.29,0,0,0,10.29,0,9.23,9.23,0,0,0,3.59-3.39,8.93,8.93,0,0,0,1.2-3.34h-4.36Z" transform="translate(0 0)"/><path d="M220,20a6.09,6.09,0,0,1,.75-3,5.37,5.37,0,0,1,2.06-2.09,6.19,6.19,0,0,1,5.87,0,5.44,5.44,0,0,1,2.06,2.09,6.19,6.19,0,0,1,.74,3,6.81,6.81,0,0,1-.17,1.52h4.36a10.88,10.88,0,0,0,.11-1.52,9.17,9.17,0,0,0-4.9-8.26,11.38,11.38,0,0,0-10.29,0A9.16,9.16,0,0,0,217,15.11a9.36,9.36,0,0,0-1.3,4.87,9.54,9.54,0,0,0,.12,1.52h4.35A6.81,6.81,0,0,1,220,20Z" transform="translate(0 0)"/><path d="M256.93,17.46a6.35,6.35,0,0,0-1-3.54,6.41,6.41,0,0,0-2.77-2.31A10.17,10.17,0,0,0,249,10.8H241V21.5h14.55A6.26,6.26,0,0,0,256,21,6.36,6.36,0,0,0,256.93,17.46Zm-5.3,2.35a4.45,4.45,0,0,1-2.91.82h-5.54V14.26h5.54a4.45,4.45,0,0,1,2.91.83,2.89,2.89,0,0,1,1,2.37A2.87,2.87,0,0,1,251.63,19.81Z" transform="translate(0 0)"/><rect x="243.18" y="14.26" width="2.09" height="6.37"/><path d="M238.91,21.5v7.65h4.24V24.09h3.7a10.17,10.17,0,0,0,4.23-.8,6.27,6.27,0,0,0,2.38-1.79H238.91Z" transform="translate(0 0)"/><path d="M265.27,26.19v2.66h13.4V25.5H271l4.08-3.85.16-.15h-5Z" transform="translate(0 0)"/><path d="M277.48,18.77a6.28,6.28,0,0,0,.6-2.71,4.73,4.73,0,0,0-.82-2.78,5.39,5.39,0,0,0-2.3-1.82,8.61,8.61,0,0,0-3.46-.65,9.47,9.47,0,0,0-4.18.88,7,7,0,0,0-2.86,2.42l3,1.92A4,4,0,0,1,269,14.7a4.9,4.9,0,0,1,2.1-.44,3.34,3.34,0,0,1,2.11.57,1.93,1.93,0,0,1,.73,1.63,3.29,3.29,0,0,1-.38,1.48,7.51,7.51,0,0,1-1.47,1.79l-1.88,1.77h5A10.37,10.37,0,0,0,277.48,18.77Z" transform="translate(0 0)"/><path d="M292.31,24.29a3,3,0,0,1-5.07,0,6.39,6.39,0,0,1-.84-2.79h-4.15a10.48,10.48,0,0,0,.89,3.41,7.24,7.24,0,0,0,2.7,3.15,7.61,7.61,0,0,0,7.85,0,7.24,7.24,0,0,0,2.7-3.15,10.48,10.48,0,0,0,.89-3.41h-4.13A6.26,6.26,0,0,1,292.31,24.29Z" transform="translate(0 0)"/><path d="M294.54,15.06a7,7,0,0,0-6.63-4.25A7.22,7.22,0,0,0,284,11.9a7.32,7.32,0,0,0-2.7,3.16,11.39,11.39,0,0,0-1,4.92,14.85,14.85,0,0,0,.08,1.52h4.16a14.25,14.25,0,0,1-.08-1.52,7.94,7.94,0,0,1,.92-4.3,3,3,0,0,1,5.07,0,7.94,7.94,0,0,1,.92,4.3,14.25,14.25,0,0,1-.08,1.52h4.13a14.85,14.85,0,0,0,.08-1.52A11.39,11.39,0,0,0,294.54,15.06Z" transform="translate(0 0)"/><path d="M309.42,18.77a6.28,6.28,0,0,0,.61-2.71,4.73,4.73,0,0,0-.83-2.78,5.39,5.39,0,0,0-2.3-1.82,8.61,8.61,0,0,0-3.46-.65,9.47,9.47,0,0,0-4.18.88,7,7,0,0,0-2.86,2.42l3,1.92A4,4,0,0,1,301,14.7a4.9,4.9,0,0,1,2.1-.44,3.39,3.39,0,0,1,2.12.57,2,2,0,0,1,.72,1.63,3.29,3.29,0,0,1-.38,1.48,7.51,7.51,0,0,1-1.47,1.79l-1.87,1.77h5A10.37,10.37,0,0,0,309.42,18.77Z" transform="translate(0 0)"/><path d="M297.21,26.19v2.66h13.4V25.5H303l4.08-3.85.16-.15h-5Z" transform="translate(0 0)"/><path d="M325.09,21.5a6.26,6.26,0,0,1-.84,2.79,3,3,0,0,1-5.07,0,6.39,6.39,0,0,1-.84-2.79h-4.15a10.48,10.48,0,0,0,.89,3.41,7.06,7.06,0,0,0,6.63,4.24,7.16,7.16,0,0,0,3.92-1.09,7.24,7.24,0,0,0,2.7-3.15,10.48,10.48,0,0,0,.89-3.41Z" transform="translate(0 0)"/><path d="M316.41,20a7.94,7.94,0,0,1,.92-4.3,3,3,0,0,1,5.07,0,7.85,7.85,0,0,1,.92,4.3,14.25,14.25,0,0,1-.08,1.52h4.13a14.85,14.85,0,0,0,.08-1.52,11.39,11.39,0,0,0-1-4.92,7,7,0,0,0-6.63-4.25,7.22,7.22,0,0,0-3.92,1.09,7.32,7.32,0,0,0-2.7,3.16,11.39,11.39,0,0,0-1,4.92c0,.53,0,1,.08,1.52h4.16A14.25,14.25,0,0,1,316.41,20Z" transform="translate(0 0)"/></g><g id="CTA"><rect class="cls-3" y="234.89" width="413" height="150.11"/><g id="Button"><rect class="cls-4" x="74.13" y="341.46" width="264.73" height="43.54"/><polygon points="315.08 362.06 315.08 359.64 312.69 359.64 312.69 357.44 310.26 357.44 310.26 362.06 297.44 362.06 297.44 364.39 310.26 364.39 310.26 369.02 312.69 369.02 312.69 366.85 315.08 366.85 315.08 364.45 317.28 364.45 317.28 362.06 315.08 362.06"/><path d="M105.91,363.05h2.92v4.62a9.11,9.11,0,0,1-2.6,1.08,12.1,12.1,0,0,1-3,.37,9.36,9.36,0,0,1-3.86-.76,6.43,6.43,0,0,1-2.7-2.09,5.05,5.05,0,0,1-1-3,5,5,0,0,1,1-3,6.4,6.4,0,0,1,2.71-2.1,9.61,9.61,0,0,1,3.91-.76,10.28,10.28,0,0,1,3.29.5,6.65,6.65,0,0,1,2.48,1.47l-2,1.56a5.22,5.22,0,0,0-3.56-1.29,5.79,5.79,0,0,0-2.35.46,3.67,3.67,0,0,0-1.6,1.29,3.44,3.44,0,0,0,0,3.79,3.79,3.79,0,0,0,1.59,1.29,5.52,5.52,0,0,0,2.32.47,6.17,6.17,0,0,0,2.48-.49Z" transform="translate(0 0)"/><path d="M122.47,366.81v2.12H111.79v-11.4h10.43v2.12H115v2.47h6.41v2.05H115v2.64Z" transform="translate(0 0)"/><path d="M127.87,359.68h-4.41v-2.15h12v2.15h-4.41v9.25h-3.2Z" transform="translate(0 0)"/><path d="M149.4,364.89v4h-3.19v-4.07l-5.35-7.33h3.4l3.68,5.07,3.69-5.07h3.13Z" transform="translate(0 0)"/><path d="M158.32,368.36a6.55,6.55,0,0,1-2.7-2.11,5.19,5.19,0,0,1,0-6,6.55,6.55,0,0,1,2.7-2.11,9.46,9.46,0,0,1,3.88-.76,9.36,9.36,0,0,1,3.86.76,6.68,6.68,0,0,1,2.7,2.11,5.1,5.1,0,0,1,0,6,6.68,6.68,0,0,1-2.7,2.11,9.36,9.36,0,0,1-3.86.76A9.46,9.46,0,0,1,158.32,368.36Zm6.08-1.95a3.73,3.73,0,0,0,1.55-1.29,3.47,3.47,0,0,0,0-3.78,3.73,3.73,0,0,0-1.55-1.29,5.41,5.41,0,0,0-4.41,0,3.79,3.79,0,0,0-1.55,1.29,3.47,3.47,0,0,0,0,3.78,3.79,3.79,0,0,0,1.55,1.29,5.41,5.41,0,0,0,4.41,0Z" transform="translate(0 0)"/><path d="M173.68,367.77a4.71,4.71,0,0,1-1.65-3.86v-6.38h3.2v6.29q0,3.06,3.07,3.06a3.25,3.25,0,0,0,2.29-.74,3,3,0,0,0,.79-2.32v-6.29h3.15v6.38a4.73,4.73,0,0,1-1.64,3.86,8.53,8.53,0,0,1-9.21,0Z" transform="translate(0 0)"/><path d="M196.48,368.93l-2.66-3.18h-2.94v3.18h-3.19v-11.4h6a9.08,9.08,0,0,1,3.19.51,4.66,4.66,0,0,1,2.08,1.43,3.49,3.49,0,0,1,.73,2.2,3.43,3.43,0,0,1-.74,2.19,4.66,4.66,0,0,1-2.1,1.4l3.09,3.67Zm-.81-8.73a3.81,3.81,0,0,0-2.19-.52h-2.6v4h2.6a3.81,3.81,0,0,0,2.19-.52,1.81,1.81,0,0,0,0-2.93Z" transform="translate(0 0)"/><path d="M210.62,359.68H206.2v-2.15h12v2.15h-4.42v9.25h-3.19Z" transform="translate(0 0)"/><path d="M219.94,357.53h3.2v11.4h-3.2Z" transform="translate(0 0)"/><path d="M229.2,368.36a6.53,6.53,0,0,1-2.69-2.09,5.05,5.05,0,0,1-1-3,5,5,0,0,1,1-3,6.47,6.47,0,0,1,2.69-2.1,9.22,9.22,0,0,1,3.83-.76,9.41,9.41,0,0,1,3.24.52,6.62,6.62,0,0,1,2.44,1.5l-2.05,1.56a4.83,4.83,0,0,0-3.47-1.34,5.38,5.38,0,0,0-2.29.47,3.79,3.79,0,0,0-1.57,1.29,3.47,3.47,0,0,0,0,3.78,3.79,3.79,0,0,0,1.57,1.29,5.38,5.38,0,0,0,2.29.47,4.77,4.77,0,0,0,3.47-1.36l2.05,1.57a6.47,6.47,0,0,1-2.45,1.51,9.51,9.51,0,0,1-3.25.52A9.19,9.19,0,0,1,229.2,368.36Z" transform="translate(0 0)"/><path d="M245.88,364.45l-1.85,1.6v2.88h-3.17v-11.4H244v5.33l6.11-5.33h3.55L248,362.61l6.06,6.32H250.3Z" transform="translate(0 0)"/><path d="M266.13,366.81v2.12H255.45v-11.4h10.43v2.12h-7.26v2.47H265v2.05h-6.41v2.64Z" transform="translate(0 0)"/><path d="M271.53,359.68h-4.41v-2.15h12v2.15h-4.41v9.25h-3.2Z" transform="translate(0 0)"/><path d="M282.13,368.75a8,8,0,0,1-2.45-.95l1.08-2a8.16,8.16,0,0,0,2.11.86,9.37,9.37,0,0,0,2.44.33,4.68,4.68,0,0,0,2-.34,1,1,0,0,0,.65-.88.79.79,0,0,0-.39-.68,3.08,3.08,0,0,0-1-.43c-.41-.11-.95-.23-1.63-.36a26.16,26.16,0,0,1-2.58-.62,4.2,4.2,0,0,1-1.73-1,2.39,2.39,0,0,1-.72-1.82,2.83,2.83,0,0,1,.65-1.8,4.41,4.41,0,0,1,2-1.28,9.71,9.71,0,0,1,3.21-.47,13,13,0,0,1,2.58.26,8.31,8.31,0,0,1,2.21.75l-1,2a8.88,8.88,0,0,0-3.82-.89,4.19,4.19,0,0,0-2,.35,1.07,1.07,0,0,0-.64.95c0,.39.24.68.74.87a13.91,13.91,0,0,0,2.25.56,23.27,23.27,0,0,1,2.59.62,4.35,4.35,0,0,1,1.72,1,2.36,2.36,0,0,1,.72,1.81,2.75,2.75,0,0,1-.66,1.78,4.43,4.43,0,0,1-2,1.28,9.73,9.73,0,0,1-3.22.47A13.2,13.2,0,0,1,282.13,368.75Z" transform="translate(0 0)"/></g><path d="M100,273.18v2.89H88.44v-2.3l5.9-5.58a6.1,6.1,0,0,0,1.27-1.54,2.77,2.77,0,0,0,.33-1.28,1.71,1.71,0,0,0-.62-1.41,2.91,2.91,0,0,0-1.83-.49,4.29,4.29,0,0,0-1.82.38A3.47,3.47,0,0,0,90.32,265l-2.58-1.66a6,6,0,0,1,2.47-2.09,8.29,8.29,0,0,1,3.61-.76,7.4,7.4,0,0,1,3,.56,4.61,4.61,0,0,1,2,1.58,4.09,4.09,0,0,1,.71,2.39,5.28,5.28,0,0,1-.53,2.34,9.19,9.19,0,0,1-2,2.5l-3.53,3.32Z" transform="translate(0 0)"/><path d="M104.6,275.39a6.32,6.32,0,0,1-2.33-2.72,11.2,11.2,0,0,1,0-8.51,6.41,6.41,0,0,1,2.33-2.73,6.6,6.6,0,0,1,6.79,0,6.41,6.41,0,0,1,2.33,2.73,11.2,11.2,0,0,1,0,8.51,6.32,6.32,0,0,1-2.33,2.72,6.6,6.6,0,0,1-6.79,0Zm5.59-3.26a9,9,0,0,0,0-7.44,2.59,2.59,0,0,0-4.37,0,9,9,0,0,0,0,7.44,2.58,2.58,0,0,0,4.37,0Z" transform="translate(0 0)"/><path d="M118.25,260.49h1.13v15.84h-1.13Z" transform="translate(0 0)"/><path d="M134.49,273.18v2.89H122.92v-2.3l5.9-5.58a6.1,6.1,0,0,0,1.27-1.54,2.77,2.77,0,0,0,.33-1.28,1.71,1.71,0,0,0-.62-1.41,2.91,2.91,0,0,0-1.83-.49,4.29,4.29,0,0,0-1.82.38A3.47,3.47,0,0,0,124.8,265l-2.58-1.66a6,6,0,0,1,2.47-2.09,8.29,8.29,0,0,1,3.61-.76,7.4,7.4,0,0,1,3,.56,4.52,4.52,0,0,1,2,1.58A4,4,0,0,1,134,265a5.28,5.28,0,0,1-.53,2.34,9.19,9.19,0,0,1-2,2.5l-3.53,3.32Z" transform="translate(0 0)"/><path d="M141.86,260.76v15.31h-3.54V263.6h-3.07v-2.84Z" transform="translate(0 0)"/><path d="M146.49,260.76h1.13v15.31h-1.13Z" transform="translate(0 0)"/><path d="M162.73,273.18v2.89H151.16v-2.3l5.91-5.58a6.33,6.33,0,0,0,1.27-1.54,2.88,2.88,0,0,0,.32-1.28A1.68,1.68,0,0,0,158,264a2.89,2.89,0,0,0-1.83-.49,4.25,4.25,0,0,0-1.81.38A3.57,3.57,0,0,0,153,265l-2.58-1.66a6,6,0,0,1,2.47-2.09,8.29,8.29,0,0,1,3.61-.76,7.49,7.49,0,0,1,3,.56,4.64,4.64,0,0,1,2,1.58,4.09,4.09,0,0,1,.71,2.39,5.28,5.28,0,0,1-.53,2.34,9,9,0,0,1-2,2.5l-3.52,3.32Z" transform="translate(0 0)"/><path d="M175.64,273.18v2.89H164.07v-2.3l5.91-5.58a6.25,6.25,0,0,0,1.26-1.54,2.77,2.77,0,0,0,.33-1.28A1.71,1.71,0,0,0,171,264a2.91,2.91,0,0,0-1.83-.49,4.22,4.22,0,0,0-1.81.38A3.5,3.5,0,0,0,166,265l-2.58-1.66a6,6,0,0,1,2.47-2.09,8.29,8.29,0,0,1,3.61-.76,7.49,7.49,0,0,1,3,.56,4.64,4.64,0,0,1,2,1.58,4.09,4.09,0,0,1,.71,2.39,5.28,5.28,0,0,1-.53,2.34,9.19,9.19,0,0,1-2,2.5l-3.52,3.32Z" transform="translate(0 0)"/><path d="M179.07,260.49h1.13v15.58h-1.13Z" transform="translate(0 0)"/><path d="M195.31,273.18v2.89H183.74v-2.3l5.9-5.58a6.1,6.1,0,0,0,1.27-1.54,2.77,2.77,0,0,0,.33-1.28,1.71,1.71,0,0,0-.62-1.41,2.91,2.91,0,0,0-1.83-.49,4.29,4.29,0,0,0-1.82.38,3.47,3.47,0,0,0-1.35,1.15L183,263.34a6,6,0,0,1,2.47-2.09,8.29,8.29,0,0,1,3.61-.76,7.4,7.4,0,0,1,3,.56,4.61,4.61,0,0,1,2,1.58,4.09,4.09,0,0,1,.71,2.39,5.28,5.28,0,0,1-.53,2.34,9.19,9.19,0,0,1-2,2.5l-3.53,3.32Z" transform="translate(0 0)"/><path d="M207,268.49a4.12,4.12,0,0,1,1.08,2.9,4.63,4.63,0,0,1-.7,2.46,5,5,0,0,1-2.14,1.81,8.17,8.17,0,0,1-3.51.67,12.18,12.18,0,0,1-3.18-.42,8.17,8.17,0,0,1-2.66-1.22l1.38-2.71a6.62,6.62,0,0,0,2,1,7.84,7.84,0,0,0,2.35.36,3.75,3.75,0,0,0,2.1-.51,1.67,1.67,0,0,0,.77-1.46c0-1.25-1-1.88-2.87-1.88H200v-2.34l3.15-3.57h-6.51v-2.84h10.72v2.29L203.93,267A5.14,5.14,0,0,1,207,268.49Z" transform="translate(0 0)"/><path d="M227.12,272.24H219l-1.68,3.83H215L222,260.76h2.16l7,15.31h-2.3Zm-.77-1.75-3.3-7.5-3.3,7.5Z" transform="translate(0 0)"/><path d="M234.62,274.5a7,7,0,0,1-1.7-5v-8.7h2.19v8.62c0,3.28,1.43,4.92,4.31,4.92a4.16,4.16,0,0,0,3.21-1.21,5.36,5.36,0,0,0,1.12-3.71v-8.62h2.12v8.7a6.91,6.91,0,0,1-1.71,5.05,7.39,7.39,0,0,1-9.54,0Z" transform="translate(0 0)"/><path d="M261,268.33h2.1v6a7.94,7.94,0,0,1-2.64,1.44,9.81,9.81,0,0,1-3.15.51,8.54,8.54,0,0,1-4.18-1,7.49,7.49,0,0,1-2.92-2.8,8.15,8.15,0,0,1,0-8,7.32,7.32,0,0,1,2.93-2.8,8.76,8.76,0,0,1,4.21-1,8.91,8.91,0,0,1,3.34.6,6.83,6.83,0,0,1,2.55,1.76l-1.36,1.36a6.18,6.18,0,0,0-4.44-1.77,6.51,6.51,0,0,0-3.14.75,5.64,5.64,0,0,0-2.18,2.1,6,6,0,0,0-.79,3,5.88,5.88,0,0,0,.79,3,5.6,5.6,0,0,0,2.18,2.11,6.36,6.36,0,0,0,3.12.77,6.51,6.51,0,0,0,3.58-1Z" transform="translate(0 0)"/><path d="M283.13,273.18v2.89H271.55v-2.3l5.91-5.58a6.1,6.1,0,0,0,1.27-1.54,2.77,2.77,0,0,0,.33-1.28,1.69,1.69,0,0,0-.63-1.41,2.86,2.86,0,0,0-1.82-.49,4.29,4.29,0,0,0-1.82.38,3.57,3.57,0,0,0-1.36,1.15l-2.58-1.66a6.07,6.07,0,0,1,2.48-2.09,8.29,8.29,0,0,1,3.61-.76,7.44,7.44,0,0,1,3,.56,4.58,4.58,0,0,1,2,1.58,4,4,0,0,1,.71,2.39,5.28,5.28,0,0,1-.52,2.34,9.07,9.07,0,0,1-2,2.5l-3.52,3.32Z" transform="translate(0 0)"/><path d="M287.72,275.39a6.26,6.26,0,0,1-2.33-2.72,11.2,11.2,0,0,1,0-8.51,6.34,6.34,0,0,1,2.33-2.73,6.25,6.25,0,0,1,9.11,2.73,11.08,11.08,0,0,1,0,8.51,6.39,6.39,0,0,1-9.11,2.72Zm5.59-3.26a9,9,0,0,0,0-7.44,2.5,2.5,0,0,0-2.2-1.2,2.47,2.47,0,0,0-2.17,1.2,9,9,0,0,0,0,7.44,2.46,2.46,0,0,0,2.17,1.21A2.49,2.49,0,0,0,293.31,272.13Z" transform="translate(0 0)"/><path d="M310.71,273.18v2.89H299.14v-2.3l5.91-5.58a6.1,6.1,0,0,0,1.27-1.54,2.77,2.77,0,0,0,.33-1.28A1.69,1.69,0,0,0,306,264a2.87,2.87,0,0,0-1.83-.49,4.25,4.25,0,0,0-1.81.38A3.57,3.57,0,0,0,301,265l-2.58-1.66a6,6,0,0,1,2.47-2.09,8.32,8.32,0,0,1,3.61-.76,7.45,7.45,0,0,1,3,.56,4.58,4.58,0,0,1,2,1.58,4.09,4.09,0,0,1,.71,2.39,5.28,5.28,0,0,1-.52,2.34,9.07,9.07,0,0,1-2,2.5l-3.52,3.32Z" transform="translate(0 0)"/><path d="M315.31,275.39a6.26,6.26,0,0,1-2.33-2.72,11.2,11.2,0,0,1,0-8.51,6.34,6.34,0,0,1,2.33-2.73,6.58,6.58,0,0,1,6.78,0,6.34,6.34,0,0,1,2.33,2.73,11.2,11.2,0,0,1,0,8.51,6.26,6.26,0,0,1-2.33,2.72,6.58,6.58,0,0,1-6.78,0Zm5.59-3.26a9,9,0,0,0,0-7.44,2.6,2.6,0,0,0-4.38,0,9.15,9.15,0,0,0,0,7.44,2.59,2.59,0,0,0,4.38,0Z" transform="translate(0 0)"/><path d="M108.8,301.27v15.26h-3.53v-6.26H98.34v6.26H94.81V301.27h3.53v6h6.93v-6Z" transform="translate(0 0)"/><path d="M122.47,313.26h-7.09L114,316.53h-3.62l6.8-15.26h3.49l6.83,15.26h-3.71Zm-1.11-2.68-2.42-5.85-2.42,5.85Z" transform="translate(0 0)"/><path d="M130.63,316.3a8,8,0,0,1-2.71-1.28l1.2-2.66a8.06,8.06,0,0,0,2.33,1.16,8.75,8.75,0,0,0,2.7.43,4.27,4.27,0,0,0,2.22-.44,1.36,1.36,0,0,0,.72-1.19,1.16,1.16,0,0,0-.42-.91,3.12,3.12,0,0,0-1.09-.57,18,18,0,0,0-1.8-.48,24.77,24.77,0,0,1-2.85-.83A4.63,4.63,0,0,1,129,308.2a3.59,3.59,0,0,1-.8-2.44,4.24,4.24,0,0,1,.72-2.41,4.81,4.81,0,0,1,2.17-1.71,8.9,8.9,0,0,1,3.54-.63,11.85,11.85,0,0,1,2.86.34,8.56,8.56,0,0,1,2.44,1L138.86,305a8.51,8.51,0,0,0-4.23-1.2,4,4,0,0,0-2.19.48,1.47,1.47,0,0,0-.71,1.26,1.23,1.23,0,0,0,.82,1.17,13.31,13.31,0,0,0,2.5.75,24.77,24.77,0,0,1,2.85.83,4.74,4.74,0,0,1,1.91,1.31,3.49,3.49,0,0,1,.79,2.42,4.1,4.1,0,0,1-.73,2.38,4.83,4.83,0,0,1-2.19,1.72,9,9,0,0,1-3.55.63A12.38,12.38,0,0,1,130.63,316.3Z" transform="translate(0 0)"/><path d="M144.54,316.3a8.2,8.2,0,0,1-2.72-1.28l1.2-2.66a8.12,8.12,0,0,0,2.34,1.16,8.75,8.75,0,0,0,2.7.43,4.3,4.3,0,0,0,2.22-.44,1.36,1.36,0,0,0,.72-1.19,1.16,1.16,0,0,0-.42-.91,3.21,3.21,0,0,0-1.09-.57q-.68-.22-1.8-.48a25,25,0,0,1-2.86-.83,4.66,4.66,0,0,1-1.9-1.33,3.59,3.59,0,0,1-.8-2.44,4.24,4.24,0,0,1,.72-2.41,4.81,4.81,0,0,1,2.17-1.71,8.86,8.86,0,0,1,3.54-.63,11.91,11.91,0,0,1,2.86.34,8.56,8.56,0,0,1,2.44,1L152.77,305a8.51,8.51,0,0,0-4.23-1.2,4,4,0,0,0-2.19.48,1.47,1.47,0,0,0-.71,1.26,1.23,1.23,0,0,0,.82,1.17,13.16,13.16,0,0,0,2.49.75,24.42,24.42,0,0,1,2.86.83,4.81,4.81,0,0,1,1.91,1.31,3.49,3.49,0,0,1,.79,2.42,4.1,4.1,0,0,1-.73,2.38,4.94,4.94,0,0,1-2.19,1.72,9,9,0,0,1-3.55.63A12.33,12.33,0,0,1,144.54,316.3Z" transform="translate(0 0)"/><path d="M168.74,313.69v2.84H156.93V301.27h11.53v2.83h-8v3.31h7.08v2.75h-7.08v3.53Z" transform="translate(0 0)"/><path d="M171.56,301.27h3.53v12.38h7.65v2.88H171.56Z" transform="translate(0 0)"/><path d="M186.47,304.15h-4.89v-2.88h13.3v2.88H190v12.38h-3.53Z" transform="translate(0 0)"/><path d="M208.4,309.75l-2.79,2.83v3.95h-2.18V301.27h2.18v8.52l8.28-8.52h2.48l-6.51,6.86,6.93,8.4h-2.55Z" transform="translate(0 0)"/><path d="M219.1,301.27h2.18v15.26H219.1Z" transform="translate(0 0)"/><path d="M236.93,314.63v1.9H225.86V301.27h10.77v1.89H228v4.69h7.65v1.85H228v4.93Z" transform="translate(0 0)"/><path d="M261.8,301.27l-5.1,15.26h-2.29l-4.16-12.19-4.16,12.19h-2.34l-5.1-15.26h2.25l4.12,12.4,4.29-12.4h2l4.2,12.47,4.21-12.47Z" transform="translate(0 0)"/><path d="M264.46,301.27h2.18v15.26h-2.18Z" transform="translate(0 0)"/><path d="M274.25,303.16H269v-1.89h12.62v1.89h-5.23v13.37h-2.16Z" transform="translate(0 0)"/><path d="M303,310a3.82,3.82,0,0,1,.74,2.38,3.53,3.53,0,0,1-1.56,3.09,8,8,0,0,1-4.55,1.08H289.7V301.27h7.46a7.22,7.22,0,0,1,4.28,1.07,3.36,3.36,0,0,1,1.5,2.89,3.68,3.68,0,0,1-2,3.36A4.07,4.07,0,0,1,303,310Zm-9.75-6.05v3.59h3.51a3.62,3.62,0,0,0,2-.45,1.54,1.54,0,0,0,.67-1.36,1.5,1.5,0,0,0-.67-1.34,3.72,3.72,0,0,0-2-.44Zm6.23,9.48a1.58,1.58,0,0,0,.71-1.42q0-1.89-2.82-1.89h-4.12v3.77h4.12A4,4,0,0,0,299.44,313.41Z" transform="translate(0 0)"/><path d="M318.19,313.69v2.84H306.38V301.27h11.53v2.83h-8v3.31H317v2.75h-7.08v3.53Z" transform="translate(0 0)"/></g><g id="Banners"><g id="Layer_7" data-name="Layer 7"><path d="M0,41.47,21.92,52.22,0,63,21.92,73.71,0,84.45,21.92,95.2,0,105.94l21.92,10.75L0,127.43l21.92,10.75L0,148.92l21.92,10.75L0,170.42l21.92,10.74L0,191.91l21.92,10.74L0,213.4l21.92,10.74L0,234.89H102L80.11,224.14,102,213.4,80.11,202.65,102,191.91,80.11,181.16,102,170.42,80.11,159.67,102,148.92,80.11,138.18,102,127.43,80.11,116.69,102,105.94,80.11,95.2,102,84.45,80.11,73.71,102,63,80.11,52.22,102,41.47Z" transform="translate(0 0)"/><path d="M412.1,217.26l-28.29-70.67a14,14,0,0,0-25.59,0l-15.63,38.88-15.7-39A14,14,0,0,0,308,139.66a14.41,14.41,0,0,0-6.6,6.9l-15.55,38.78-15.55-38.75a14,14,0,0,0-18.89-6.94,14.44,14.44,0,0,0-6.7,6.94l-15.55,38.75-15.55-38.75a14,14,0,0,0-18.89-6.94,14.48,14.48,0,0,0-6.7,6.94l-15.55,38.76-15.55-38.76a14,14,0,0,0-18.9-6.94,14.48,14.48,0,0,0-6.7,6.94l-28.35,70.67c-2.69,6.7.86,14.21,7.92,16.77s15-.81,17.68-7.52l15.55-38.76,15.55,38.73a14,14,0,0,0,18.88,7,14.43,14.43,0,0,0,6.71-7l15.55-38.76,15.56,38.76a14,14,0,0,0,18.87,7,14.35,14.35,0,0,0,6.71-7l15.56-38.76L273,226.48a14,14,0,0,0,18.87,7,14.43,14.43,0,0,0,6.71-7l15.55-38.75,15.55,38.75a13.67,13.67,0,0,0,12.79,8.33h.1a13.69,13.69,0,0,0,12.8-8.33l15.52-38.71,15.53,38.71a13.6,13.6,0,0,0,10.78,8.23h.09c.29,0,.59.07.9.09s.7,0,1.06,0a14.23,14.23,0,0,0,4.87-.85c7.1-2.51,10.65-10,8-16.69Z" transform="translate(0 0)"/><path d="M110.19,138.16h139.5a185.23,185.23,0,0,0-21.39-22.32C186,78.26,133.88,63.68,111.82,83.28,98.9,94.77,99.2,115.46,110.19,138.16Z" transform="translate(0 0)"/><path d="M262.11,41.47H125.28a191.64,191.64,0,0,0,15.81,15.8c42.28,37.57,94.43,52.15,116.48,32.55C269.24,79.49,270.13,61.57,262.11,41.47Z" transform="translate(0 0)"/><path d="M257.57,89.82C245.9,100.2,245,118.08,253,138.18H389.83a194.17,194.17,0,0,0-56.64-43.72c28.74,13,55.71,14.71,70,2,12.94-11.5,12.62-32.22,1.61-55H265.31a185,185,0,0,0,21.44,22.42,190.08,190.08,0,0,0,40.86,27.92c-28.73-13-55.72-14.71-70-2Z" transform="translate(0 0)"/></g><g id="Blue_banner" data-name="Blue banner"><polygon id="Blue_banner-2" data-name="Blue banner" class="cls-5" points="413 137.21 0 122.79 0 101.29 413 115.71 413 137.21"/><path d="M159.94,115.53a2,2,0,0,0-.42-.51,2.22,2.22,0,0,0-.59-.36,2.29,2.29,0,0,0-.7-.14,2.33,2.33,0,0,0-1.13.22,2.09,2.09,0,0,0-.78.66,3,3,0,0,0-.46,1,4.68,4.68,0,0,0-.17,1.14,5.06,5.06,0,0,0,.09,1.1,3.14,3.14,0,0,0,.39,1,2.16,2.16,0,0,0,.73.71,2.41,2.41,0,0,0,1.12.3,1.84,1.84,0,0,0,1.44-.51,2.55,2.55,0,0,0,.67-1.43l1.91.06a4.75,4.75,0,0,1-.44,1.51,3.79,3.79,0,0,1-.87,1.13,3.7,3.7,0,0,1-1.23.68,4.26,4.26,0,0,1-1.54.2,4.52,4.52,0,0,1-1.84-.42,3.88,3.88,0,0,1-1.35-1,4.37,4.37,0,0,1-.82-1.5,5.32,5.32,0,0,1-.23-1.84,5.59,5.59,0,0,1,.36-1.86,4.42,4.42,0,0,1,.92-1.47,4,4,0,0,1,1.43-1,4.64,4.64,0,0,1,1.86-.3,4.89,4.89,0,0,1,1.4.26,3.83,3.83,0,0,1,1.16.67,3.24,3.24,0,0,1,.82,1,3.5,3.5,0,0,1,.38,1.4l-1.91-.07A1.51,1.51,0,0,0,159.94,115.53Z" transform="translate(0 0)"/><path d="M163.4,115.92a4.57,4.57,0,0,1,.92-1.48,4,4,0,0,1,1.42-1,4.93,4.93,0,0,1,3.72.13,4.1,4.1,0,0,1,1.35,1,4.49,4.49,0,0,1,.81,1.53,5.74,5.74,0,0,1,.24,1.88,5.67,5.67,0,0,1-.37,1.82,4.27,4.27,0,0,1-.92,1.45,4.06,4.06,0,0,1-1.41.94,4.89,4.89,0,0,1-1.88.29,4.83,4.83,0,0,1-1.84-.42,4,4,0,0,1-1.35-1,4.25,4.25,0,0,1-.82-1.51,5.5,5.5,0,0,1-.24-1.84A5.74,5.74,0,0,1,163.4,115.92Zm1.7,3a2.87,2.87,0,0,0,.39,1,2.07,2.07,0,0,0,.73.71,2.17,2.17,0,0,0,1.12.3,2.28,2.28,0,0,0,1.14-.22,2.09,2.09,0,0,0,.78-.66,2.92,2.92,0,0,0,.45-.94,4.51,4.51,0,0,0,.17-1.1,4.4,4.4,0,0,0-.09-1.15,2.82,2.82,0,0,0-.39-1,2.25,2.25,0,0,0-.72-.72,2.7,2.7,0,0,0-2.27-.08,2.4,2.4,0,0,0-.78.67,3.09,3.09,0,0,0-.45,1,4.83,4.83,0,0,0-.17,1.14A4.1,4.1,0,0,0,165.1,119Z" transform="translate(0 0)"/><path d="M176.14,113.7,178,120h0l2.2-6.11,2.78.1-.31,9-1.85-.07.22-6.36h0l-2.43,6.28-1.52,0-2-6.38h0l-.22,6.3-1.85-.06.31-9Z" transform="translate(0 0)"/><path d="M191.48,114.23l-.06,1.66-4.74-.16-.06,1.92,4.35.15-.06,1.54-4.35-.15-.08,2.2,4.85.16-.06,1.66-6.82-.23.32-9Z" transform="translate(0 0)"/><path d="M201.33,121.7a2.36,2.36,0,0,1-1.37,1.71,3.43,3.43,0,0,1-1.61.25,3.62,3.62,0,0,1-1.09-.19,2.64,2.64,0,0,1-.92-.53,2.46,2.46,0,0,1-.64-.87,3.13,3.13,0,0,1-.21-1.28l0-.78,1.79.07,0,.4a2.87,2.87,0,0,0,0,.6,1.29,1.29,0,0,0,.16.48.81.81,0,0,0,.34.32,1.24,1.24,0,0,0,.56.14,1.16,1.16,0,0,0,.61-.12.72.72,0,0,0,.32-.35,1.42,1.42,0,0,0,.13-.47c0-.17,0-.34,0-.5l.21-6.06,2,.07-.21,6.15A6,6,0,0,1,201.33,121.7Z" transform="translate(0 0)"/><path d="M203.22,117.31a4.57,4.57,0,0,1,.92-1.48,4,4,0,0,1,1.42-1,4.93,4.93,0,0,1,3.72.13,4.1,4.1,0,0,1,1.35,1,4.49,4.49,0,0,1,.81,1.53,5.74,5.74,0,0,1,.24,1.88,5.41,5.41,0,0,1-.37,1.82,4.27,4.27,0,0,1-.92,1.45,4.06,4.06,0,0,1-1.41.94,5,5,0,0,1-3.72-.13,4,4,0,0,1-1.35-1,4.17,4.17,0,0,1-.82-1.51,5.5,5.5,0,0,1-.24-1.84A5.74,5.74,0,0,1,203.22,117.31Zm1.7,3a2.87,2.87,0,0,0,.39,1,2.1,2.1,0,0,0,.73.72,2.63,2.63,0,0,0,2.26.07,2.09,2.09,0,0,0,.78-.66,2.92,2.92,0,0,0,.45-.94,4.51,4.51,0,0,0,.17-1.1,4.43,4.43,0,0,0-.09-1.15,3,3,0,0,0-.38-1,2.39,2.39,0,0,0-.73-.72,2.7,2.7,0,0,0-2.27-.08,2.4,2.4,0,0,0-.78.67,3.09,3.09,0,0,0-.45,1,4.83,4.83,0,0,0-.17,1.14A4.1,4.1,0,0,0,204.92,120.34Z" transform="translate(0 0)"/><path d="M215.16,115.06l-.32,9-2-.07.31-9Z" transform="translate(0 0)"/><path d="M218.85,115.19l3.54,6.15h0l.21-6,1.85.07-.31,9-2-.07-3.52-6.14h0l-.21,6-1.85-.06.31-9Z" transform="translate(0 0)"/><path d="M236,124.09a4.94,4.94,0,0,1-5.64-.19,3.47,3.47,0,0,1-.9-2.75l.2-5.58,2,.07-.2,5.58a5.79,5.79,0,0,0,0,.72,1.72,1.72,0,0,0,.24.63,1.49,1.49,0,0,0,.55.46,2.2,2.2,0,0,0,.95.2,1.82,1.82,0,0,0,1.48-.42,2.21,2.21,0,0,0,.45-1.46l.2-5.58,2,.06-.19,5.59A3.44,3.44,0,0,1,236,124.09Z" transform="translate(0 0)"/><path d="M240.29,122.71a1.46,1.46,0,0,0,.42.53,2.12,2.12,0,0,0,.62.31,3.09,3.09,0,0,0,.75.12,3.76,3.76,0,0,0,.57,0,1.85,1.85,0,0,0,.57-.15,1.06,1.06,0,0,0,.45-.33.82.82,0,0,0,.2-.55.79.79,0,0,0-.21-.6,1.8,1.8,0,0,0-.6-.4,5.49,5.49,0,0,0-.84-.29c-.32-.09-.64-.18-1-.29a7.4,7.4,0,0,1-1-.34,3.17,3.17,0,0,1-.84-.5,2.19,2.19,0,0,1-.59-.75,2.15,2.15,0,0,1-.19-1,2.37,2.37,0,0,1,.33-1.19,2.67,2.67,0,0,1,.81-.83,3.28,3.28,0,0,1,1.1-.46,4.15,4.15,0,0,1,1.21-.12,5.43,5.43,0,0,1,1.35.2,3.6,3.6,0,0,1,1.13.55,2.78,2.78,0,0,1,.77.93,2.92,2.92,0,0,1,.25,1.34l-1.92-.07a1.48,1.48,0,0,0-.14-.67,1.12,1.12,0,0,0-.37-.43,1.45,1.45,0,0,0-.54-.23,3.39,3.39,0,0,0-.67-.09,1.94,1.94,0,0,0-.48,0,1.29,1.29,0,0,0-.44.16,1.08,1.08,0,0,0-.33.31.85.85,0,0,0-.15.47.71.71,0,0,0,.48.75,4.56,4.56,0,0,0,.8.3l1.36.4.69.21a3.61,3.61,0,0,1,.87.45,2.69,2.69,0,0,1,.73.8,2.21,2.21,0,0,1,.28,1.25,2.74,2.74,0,0,1-.28,1.14,2.49,2.49,0,0,1-.74.88,3.45,3.45,0,0,1-1.19.56,5.43,5.43,0,0,1-1.62.16,5.71,5.71,0,0,1-1.44-.24,3.54,3.54,0,0,1-1.21-.61,2.7,2.7,0,0,1-.81-1,3,3,0,0,1-.26-1.45l1.91.07A1.66,1.66,0,0,0,240.29,122.71Z" transform="translate(0 0)"/><path d="M256.57,122.15a.93.93,0,0,0,0,.27.41.41,0,0,0,0,.21.17.17,0,0,0,.16.09,1.1,1.1,0,0,0,.54-.15,1.66,1.66,0,0,0,.5-.46,3.1,3.1,0,0,0,.36-.73,3,3,0,0,0,.17-.92,3.31,3.31,0,0,0-.22-1.34,2.68,2.68,0,0,0-.69-1,3.07,3.07,0,0,0-1.06-.64,4.36,4.36,0,0,0-1.33-.25,3.75,3.75,0,0,0-1.48.24,3.3,3.3,0,0,0-1.15.74,3.55,3.55,0,0,0-.76,1.15,4.37,4.37,0,0,0-.3,1.47,3.84,3.84,0,0,0,.22,1.51,3.36,3.36,0,0,0,1.88,2,4.16,4.16,0,0,0,1.48.31,4.22,4.22,0,0,0,1.51-.21,3.57,3.57,0,0,0,1.23-.72l1.06,0a4.39,4.39,0,0,1-1.7,1.45,4.73,4.73,0,0,1-2.21.44,5,5,0,0,1-1.87-.41,4.85,4.85,0,0,1-1.51-1,4.42,4.42,0,0,1-1-1.52,4.54,4.54,0,0,1-.32-1.88,4.55,4.55,0,0,1,1.53-3.3,5,5,0,0,1,1.55-.94,4.85,4.85,0,0,1,1.86-.3,5,5,0,0,1,1.64.33,4.6,4.6,0,0,1,1.37.83,3.82,3.82,0,0,1,.93,1.24,3.48,3.48,0,0,1,.31,1.59,3.71,3.71,0,0,1-.41,1.64A3.52,3.52,0,0,1,258,123a3.59,3.59,0,0,1-1,.61,2.09,2.09,0,0,1-.81.18,1,1,0,0,1-.64-.22.76.76,0,0,1-.25-.53h0a1.4,1.4,0,0,1-.61.53,1.75,1.75,0,0,1-.78.15,1.77,1.77,0,0,1-.75-.19,1.94,1.94,0,0,1-.61-.49,2.23,2.23,0,0,1-.41-.7,2.31,2.31,0,0,1-.13-.84,3.93,3.93,0,0,1,.24-1.16,3.27,3.27,0,0,1,.59-1,2.88,2.88,0,0,1,.89-.7,2.43,2.43,0,0,1,1.14-.24,2,2,0,0,1,.82.23,1.27,1.27,0,0,1,.62.7l.22-.67,1,0-.9,3.22A2,2,0,0,0,256.57,122.15Zm-3,0a.92.92,0,0,0,.7.33,1.14,1.14,0,0,0,.63-.16,1.75,1.75,0,0,0,.51-.43,2,2,0,0,0,.34-.59,2.36,2.36,0,0,0,.14-.67,1.06,1.06,0,0,0-.26-.77.91.91,0,0,0-.67-.33,1.19,1.19,0,0,0-.64.15,1.74,1.74,0,0,0-.51.42,2.16,2.16,0,0,0-.34.59,1.84,1.84,0,0,0-.14.64A1.23,1.23,0,0,0,253.53,122.19Z" transform="translate(0 0)"/><polygon points="28.88 113.03 0 122.77 0 101.29 28.88 113.03"/><polygon points="41.15 113.45 17.63 121.39 18.25 103.9 41.15 113.45"/><polygon points="50.36 113.78 32.99 119.64 33.44 106.72 50.36 113.78"/><polygon points="78.87 114.77 49.99 124.52 50.74 103.03 78.87 114.77"/><polygon points="91.13 115.2 67.62 123.13 68.23 105.64 91.13 115.2"/><polygon points="100.35 115.52 82.98 121.38 83.43 108.46 100.35 115.52"/><polygon points="128.86 116.52 99.97 126.26 100.72 104.78 128.86 116.52"/><polygon points="141.12 116.94 117.61 124.88 118.22 107.39 141.12 116.94"/><polygon points="150.34 117.27 132.97 123.13 133.42 110.21 150.34 117.27"/><polygon points="389.42 122.07 413 122.89 413 115.72 389.67 114.91 389.42 122.07"/><rect x="371.59" y="121.76" width="17.71" height="7.17" transform="translate(4.61 -13.2) rotate(2)"/><rect x="356.84" y="128.36" width="14.5" height="7.17" transform="translate(4.83 -12.63) rotate(2)"/><rect x="346.15" y="120.75" width="10.96" height="7.17" transform="translate(4.55 -12.2) rotate(2)"/><rect x="335.63" y="127.54" width="10.27" height="7.17" transform="matrix(1, 0.03, -0.03, 1, 4.78, -11.81)"/><rect x="328.84" y="120.08" width="7.05" height="7.17" transform="translate(4.52 -11.52) rotate(2)"/><rect x="336.13" y="113.22" width="10.27" height="7.17" transform="matrix(1, 0.03, -0.03, 1, 4.28, -11.84)"/><rect x="357.34" y="114.03" width="14.5" height="7.17" transform="translate(4.33 -12.65) rotate(2)"/><polygon points="388.92 136.39 413 137.21 413 130.06 389.17 129.23 388.92 136.39"/><polygon points="309.3 133.33 294.28 126.01 288.56 132.89 287.77 126.57 275.07 132.42 282.26 126.17 262.02 131.48 278.69 124.89 262.18 126.92 277.69 122.95 262.33 122.59 279.43 120.67 262.55 116.4 283.6 118.47 276.33 110.95 289.48 116.71 291.84 111.49 296.07 115.7 303.29 111.89 302.21 115.61 313.57 112.25 306.85 116.47 322.69 112.57 309.19 118.12 324.21 117.31 308.81 120.28 324.06 121.7 305.79 122.57 323.86 127.57 300.65 124.59 309.3 133.33"/><rect x="324.25" y="112.71" width="4.84" height="7.17" transform="translate(4.26 -11.33) rotate(2)"/><rect x="323.75" y="127.03" width="4.84" height="7.17" transform="translate(4.76 -11.3) rotate(2)"/></g><g id="Orange_banner" data-name="Orange banner"><polygon id="Orange_banner-2" data-name="Orange banner" class="cls-6" points="0 174.1 413 159.68 413 138.18 0 152.6 0 174.1"/><polygon points="384.12 149.92 413 159.66 413 138.18 384.12 149.92"/><polygon points="371.85 150.35 395.37 158.28 394.75 140.79 371.85 150.35"/><polygon points="362.64 150.67 380.01 156.53 379.56 143.61 362.64 150.67"/><polygon points="334.13 151.66 363.01 161.41 362.26 139.93 334.13 151.66"/><polygon points="321.87 152.09 345.38 160.03 344.77 142.54 321.87 152.09"/><polygon points="312.65 152.41 330.02 158.28 329.57 145.35 312.65 152.41"/><polygon points="284.14 153.41 313.03 163.16 312.28 141.67 284.14 153.41"/><polygon points="271.88 153.84 295.39 161.77 294.78 144.28 271.88 153.84"/><polygon points="262.66 154.16 280.04 160.02 279.58 147.1 262.66 154.16"/><polygon points="23.58 158.96 0 159.79 0 152.62 23.33 151.8 23.58 158.96"/><rect x="23.7" y="158.65" width="17.71" height="7.17" transform="translate(70.76 323.23) rotate(178)"/><rect x="41.65" y="165.25" width="14.5" height="7.17" transform="matrix(-1, 0.03, -0.03, -1, 103.67, 335.86)"/><rect x="55.9" y="157.64" width="10.96" height="7.17" transform="translate(128.34 320.22) rotate(178)"/><rect x="67.1" y="164.44" width="10.27" height="7.17" transform="translate(150.29 333.42) rotate(178)"/><rect x="77.12" y="156.97" width="7.05" height="7.17" transform="translate(166.84 318.2) rotate(178)"/><rect x="66.6" y="150.11" width="10.27" height="7.17" transform="translate(148.79 304.79) rotate(178)"/><rect x="41.15" y="150.93" width="14.5" height="7.17" transform="translate(102.17 307.24) rotate(178)"/><polygon points="24.08 173.29 0 174.1 0 166.96 23.83 166.12 24.08 173.29"/><polygon points="103.7 170.22 118.72 162.9 124.44 169.78 125.23 163.46 137.93 169.31 130.74 163.07 150.98 168.37 134.31 161.78 150.82 163.81 135.31 159.84 150.67 159.48 133.57 157.57 150.45 153.29 129.4 155.36 136.67 147.84 123.52 153.6 121.16 148.38 116.93 152.59 109.71 148.78 110.79 152.51 99.43 149.14 106.15 153.37 90.31 149.46 103.81 155.01 88.79 154.21 104.19 157.17 88.94 158.59 107.21 159.46 89.14 164.46 112.35 161.49 103.7 170.22"/><rect x="83.91" y="149.6" width="4.84" height="7.17" transform="translate(177.95 303.27) rotate(178)"/><rect x="84.41" y="163.93" width="4.84" height="7.17" transform="translate(179.45 331.89) rotate(178)"/><path d="M189.62,149.91l-7.9.28.5,14.27,3.66-3.93,4.11-.15a5.23,5.23,0,0,0-.37-10.45Zm.16,6.62-4,.14-.1-2.82,4-.14a1.43,1.43,0,1,1,.1,2.85Z" transform="translate(0 0)"/><path d="M218.47,148.9l-7.9.28.5,14.28,3.66-3.94,4.11-.14a5.23,5.23,0,0,0-.37-10.46Zm.16,6.62-4,.14-.1-2.82,4-.14a1.45,1.45,0,0,1,1.48,1.39,1.43,1.43,0,0,1-1.38,1.46Z" transform="translate(0 0)"/><path d="M204.76,163.68l5.15-.18-7.1-6.62,7.08-7.63-5.14.18-4.9,5.28-.18-5.11-4,.14.5,14.27,4.14-4.47Z" transform="translate(0 0)"/><path d="M168.22,164.74l.55-2.84-2.27.08-.1-2.83,2.93-.1.55-2.81-2.27.07-.1-2.84,3-.1.54-2.79,2.67-.09-.56,2.78,2.67-.09.55-2.78,2.65-.09-.54,2.78,2.25-.08.1,2.84-2.89.11-.56,2.81,2.28-.08.1,2.84-2.93.1-.59,2.83-2.64.09.55-2.84-2.65.09-.6,2.85Zm3.78-5.8,2.64-.1.59-2.81-2.68.1Z" transform="translate(0 0)"/><path d="M224.1,163l6.33-8.39a2.75,2.75,0,0,0,.63-1.68,1.41,1.41,0,0,0-1.51-1.32h0a1.74,1.74,0,0,0-1.6,1.86v0l-3.41.12a5.1,5.1,0,0,1,4.88-5.3h0a4.81,4.81,0,0,1,5,4.48,4.57,4.57,0,0,1-1,3l-2.62,3.41,4.23-.15.12,3.52Z" transform="translate(0 0)"/><path d="M235.79,155.34c0-1.51-.07-2.48,0-2.9a5.13,5.13,0,0,1,5.07-4.49,5.26,5.26,0,0,1,5.57,4.12c.05.42.1,1.38.16,2.89s.06,2.48,0,2.92a5.25,5.25,0,0,1-5.27,4.5,5.12,5.12,0,0,1-5.37-4.12C235.9,157.82,235.84,156.83,235.79,155.34Zm5.52,3.76a1.73,1.73,0,0,0,1.67-1.51c0-.31,0-1.15,0-2.49a21.42,21.42,0,0,0-.15-2.37,1.72,1.72,0,0,0-1.78-1.39,1.66,1.66,0,0,0-1.67,1.51c0,.31,0,1.11,0,2.38a21.83,21.83,0,0,0,.15,2.48,1.66,1.66,0,0,0,1.78,1.37Z" transform="translate(0 0)"/></g></g></svg>