<?xml version="1.0" encoding="utf-8"?>
<!-- Generator: Adobe Illustrator 24.0.1, SVG Export Plug-In . SVG Version: 6.00 Build 0)  -->
<svg version="1.1" id="Layer_1" xmlns="http://www.w3.org/2000/svg" xmlns:xlink="http://www.w3.org/1999/xlink" x="0px" y="0px"
	 viewBox="0 0 512 512" style="enable-background:new 0 0 512 512;" xml:space="preserve">
<style type="text/css">
	.st0{fill:url(#SVGID_1_);}
	.st1{fill:url(#SVGID_2_);}
	.st2{fill:url(#SVGID_3_);}
	.st3{fill:url(#SVGID_4_);}
	.st4{fill:url(#SVGID_5_);}
	.st5{fill:url(#SVGID_6_);}
</style>
<linearGradient id="SVGID_1_" gradientUnits="userSpaceOnUse" x1="91" y1="466" x2="421" y2="466">
	<stop  offset="0" style="stop-color:#2C88FF"/>
	<stop  offset="1" style="stop-color:#0A41D3"/>
</linearGradient>
<path class="st0" d="M406,466h-49.2l-10-30H165.2l-10,30H106c-8.3,0-15,6.7-15,15s6.7,15,15,15h300c8.3,0,15-6.7,15-15
	S414.3,466,406,466z"/>
<linearGradient id="SVGID_2_" gradientUnits="userSpaceOnUse" x1="391" y1="121" x2="421" y2="121">
	<stop  offset="0" style="stop-color:#2C88FF"/>
	<stop  offset="1" style="stop-color:#0A41D3"/>
</linearGradient>
<path class="st1" d="M406,106c-8.3,0-15,6.7-15,15s6.7,15,15,15s15-6.7,15-15S414.3,106,406,106z"/>
<linearGradient id="SVGID_3_" gradientUnits="userSpaceOnUse" x1="0" y1="166" x2="512" y2="166">
	<stop  offset="0" style="stop-color:#2C88FF"/>
	<stop  offset="1" style="stop-color:#0A41D3"/>
</linearGradient>
<path class="st2" d="M466,16H45C20.2,16,0,36.2,0,61v255h91v-45c0-8.3,6.7-15,15-15h23.2c1.6-4.4,3.3-8.6,5.3-12.8l-16.4-16.4
	c-5.9-5.9-5.9-15.4,0-21.2l42.4-42.4c5.9-5.9,15.4-5.9,21.2,0l16.4,16.4c4.2-2,8.5-3.8,12.8-5.3V151c0-8.3,6.7-15,15-15h60
	c8.3,0,15,6.7,15,15v23.2c4.4,1.6,8.6,3.3,12.8,5.3l16.4-16.4c5.9-5.9,15.4-5.9,21.2,0l42.4,42.4c5.9,5.9,5.9,15.4,0,21.2
	l-16.4,16.4c2,4.2,3.8,8.5,5.3,12.8H406c8.3,0,15,6.7,15,15v45h91V61C512,36.2,490.8,16,466,16z M406,166c-24.8,0-45-20.2-45-45
	s20.2-45,45-45s45,20.2,45,45S430.8,166,406,166z"/>
<linearGradient id="SVGID_4_" gradientUnits="userSpaceOnUse" x1="211" y1="286" x2="301" y2="286">
	<stop  offset="0" style="stop-color:#2C88FF"/>
	<stop  offset="1" style="stop-color:#0A41D3"/>
</linearGradient>
<path class="st3" d="M211,301c0,5.2,1.2,10.2,2.9,15h84.2c1.7-4.8,2.9-9.8,2.9-15c0-24.8-20.2-45-45-45C231.2,256,211,276.2,211,301
	z"/>
<linearGradient id="SVGID_5_" gradientUnits="userSpaceOnUse" x1="121" y1="241" x2="391" y2="241">
	<stop  offset="0" style="stop-color:#2C88FF"/>
	<stop  offset="1" style="stop-color:#0A41D3"/>
</linearGradient>
<path class="st4" d="M154.8,274.8c-1.7,6.6-7.7,11.2-14.5,11.2H121v30h62c-1-4.9-2-9.9-2-15c0-41.4,33.6-75,75-75s75,33.6,75,75
	c0,5.1-1,10.1-2,15h62v-30h-19.2c-6.8,0-12.8-4.6-14.5-11.2c-2.4-9.3-6.1-18.3-11.1-26.7c-3.5-5.9-2.5-13.4,2.3-18.2l13.6-13.7
	l-21.2-21.2l-13.7,13.7c-4.8,4.9-12.4,5.8-18.2,2.3c-8.4-5-17.4-8.7-26.7-11.1c-6.6-1.7-11.2-7.7-11.2-14.5V166h-30v19.2
	c0,6.8-4.6,12.8-11.2,14.5c-9.3,2.4-18.3,6.1-26.7,11.1c-5.9,3.5-13.4,2.6-18.2-2.3l-13.7-13.7l-21.2,21.2l13.6,13.7
	c4.8,4.8,5.8,12.3,2.3,18.2C160.9,256.5,157.2,265.4,154.8,274.8z"/>
<linearGradient id="SVGID_6_" gradientUnits="userSpaceOnUse" x1="0" y1="376" x2="512" y2="376">
	<stop  offset="0" style="stop-color:#2C88FF"/>
	<stop  offset="1" style="stop-color:#0A41D3"/>
</linearGradient>
<path class="st5" d="M0,361c0,24.8,20.2,45,45,45h421c24.8,0,46-20.2,46-45v-15H0V361z"/>
</svg>
