<svg id="Backwards_Day" data-name="Backwards Day" xmlns="http://www.w3.org/2000/svg" xmlns:xlink="http://www.w3.org/1999/xlink" viewBox="0 0 1280 1024"><defs><style>.cls-1,.cls-11{fill:#dde1e0;}.cls-10,.cls-2{fill:#1d1d1b;}.cls-3{fill:#ededed;}.cls-4,.cls-8{fill:#dadada;}.cls-5{fill:#f6f6f6;}.cls-6{fill:#6b6b6d;stroke:#ededed;}.cls-6,.cls-8{stroke-miterlimit:10;}.cls-7{fill:#eaeaea;}.cls-8{stroke:#dadada;stroke-linecap:round;stroke-width:5px;}.cls-9{clip-path:url(#clip-path);}.cls-10,.cls-11,.cls-15{fill-rule:evenodd;}.cls-12{clip-path:url(#clip-path-2);}.cls-13{clip-path:url(#clip-path-3);}.cls-14{clip-path:url(#clip-path-4);}.cls-16{clip-path:url(#clip-path-5);}.cls-17{clip-path:url(#clip-path-6);}</style><clipPath id="clip-path"><path id="SVGID" class="cls-1" d="M66.72,988.52a4.24,4.24,0,0,0,5.08-3.17l6.48-28.08a4.24,4.24,0,0,0-3.18-5.08L47,945.7A4.22,4.22,0,0,0,42,948.87L35.47,977A4.23,4.23,0,0,0,38.64,982l28.08,6.49Z"/></clipPath><clipPath id="clip-path-2"><path id="SVGID-2" data-name="SVGID" class="cls-1" d="M58.11,939.27a5.47,5.47,0,0,1-2.64-.56,5.19,5.19,0,0,1-1.83-1.55,6.46,6.46,0,0,1-1-2.27,10.41,10.41,0,0,1-.35-2.67,10.16,10.16,0,0,1,.39-3,6.44,6.44,0,0,1,1.09-2.16,4.64,4.64,0,0,1,1.69-1.32,5.14,5.14,0,0,1,2.11-.44,3.93,3.93,0,0,1,2.27.6,4.68,4.68,0,0,1,1.44,1.39A5.86,5.86,0,0,1,62,929a12.07,12.07,0,0,1,.34,1.27l.65,2.53a10.47,10.47,0,0,0,.51,1.51,1.64,1.64,0,0,0,.56.71,1.42,1.42,0,0,0,.79.19,1.6,1.6,0,0,0,.88-.23,2.28,2.28,0,0,0,.58-.58,2.59,2.59,0,0,0,.32-.81,4.46,4.46,0,0,0,.09-.88,5.86,5.86,0,0,0-.11-1.23,2.9,2.9,0,0,0-.4-1,2,2,0,0,0-.76-.7,2.84,2.84,0,0,0-1.23-.32V925.9a4.91,4.91,0,0,1,2.43.55,4.54,4.54,0,0,1,1.67,1.46,5.86,5.86,0,0,1,.93,2.13,10.09,10.09,0,0,1,.3,2.48,8.49,8.49,0,0,1-.3,2.23,6.07,6.07,0,0,1-.93,2,4.93,4.93,0,0,1-1.57,1.44,4.4,4.4,0,0,1-2.2.53,3.74,3.74,0,0,1-3.27-1.55,6.2,6.2,0,0,1-.88-1.58,17.9,17.9,0,0,1-.56-1.8c-.17-.61-.32-1.2-.46-1.79a10.42,10.42,0,0,0-.49-1.57,3.29,3.29,0,0,0-.69-1.12,1.46,1.46,0,0,0-1.09-.44,1.65,1.65,0,0,0-1,.33,2.19,2.19,0,0,0-.62.81,3.61,3.61,0,0,0-.33,1,9.9,9.9,0,0,0-.07,1,5.9,5.9,0,0,0,.17,1.4,4,4,0,0,0,.53,1.18,2.81,2.81,0,0,0,1,.78,2.94,2.94,0,0,0,1.41.31Zm7-40.41L59,896.78v4.29Zm-12.27,8H69.17V912l-11.38,3.71,11.38,3.87v5.12H52.62v-3.41l11.61,0-11.61-4.06v-2.8l11.73-4.1H52.62v-7L56.31,902v-6.19l-3.69-1.25V890.8L69.17,897v3.73Zm5.29-15a5.36,5.36,0,0,1-2.64-.56,5.19,5.19,0,0,1-1.83-1.55,6.46,6.46,0,0,1-1-2.27,10.89,10.89,0,0,1,0-5.63,6.54,6.54,0,0,1,1.09-2.16,4.86,4.86,0,0,1,1.69-1.32,5.14,5.14,0,0,1,2.11-.44,3.93,3.93,0,0,1,2.27.6,4.59,4.59,0,0,1,1.44,1.4,5.8,5.8,0,0,1,.77,1.64,12.13,12.13,0,0,1,.34,1.28l.65,2.52a9.68,9.68,0,0,0,.51,1.51,1.75,1.75,0,0,0,.56.72,1.52,1.52,0,0,0,.79.18,1.6,1.6,0,0,0,.88-.23,2.13,2.13,0,0,0,.58-.58,2.59,2.59,0,0,0,.32-.81,4.38,4.38,0,0,0,.09-.88,5.86,5.86,0,0,0-.11-1.23,2.9,2.9,0,0,0-.4-1,2,2,0,0,0-.76-.69,2.71,2.71,0,0,0-1.23-.33v-3.52a4.91,4.91,0,0,1,2.43.55,4.63,4.63,0,0,1,1.67,1.46,5.83,5.83,0,0,1,.93,2.14,10,10,0,0,1,.3,2.48,8.48,8.48,0,0,1-.3,2.22,6.07,6.07,0,0,1-.93,2,4.93,4.93,0,0,1-1.57,1.44,4.29,4.29,0,0,1-2.2.53,3.74,3.74,0,0,1-3.27-1.55,6.31,6.31,0,0,1-.88-1.57,18.09,18.09,0,0,1-.56-1.81c-.17-.6-.32-1.2-.46-1.79a10.79,10.79,0,0,0-.49-1.57,3.29,3.29,0,0,0-.69-1.12,1.45,1.45,0,0,0-1.09-.43,1.64,1.64,0,0,0-1,.32,2.37,2.37,0,0,0-.62.81,3.61,3.61,0,0,0-.33,1,9.91,9.91,0,0,0-.07,1,5.81,5.81,0,0,0,.17,1.39,4,4,0,0,0,.53,1.18,2.83,2.83,0,0,0,1,.79,3.06,3.06,0,0,0,1.41.3Zm-5.49-14.55v-3.64h7.14v-6.69H52.62v-3.64H69.17v3.64H62.82v6.69h6.35v3.64Zm0-15.63v-3.64H69.17v3.64Zm0-5.3v-3.41l11.08,0-11.08-6.88v-3.64H69.17v3.41l-11.1,0,11.1,6.91v3.62Z"/></clipPath><clipPath id="clip-path-3"><polygon id="SVGID-3" data-name="SVGID" class="cls-1" points="65.29 840.06 56.41 835.14 12.16 914.98 21.03 919.9 65.29 840.06 65.29 840.06"/></clipPath><clipPath id="clip-path-4"><polygon id="SVGID-4" data-name="SVGID" class="cls-1" points="108.86 864.21 64.87 839.82 20.61 919.67 64.6 944.05 108.86 864.21 108.86 864.21"/></clipPath><clipPath id="clip-path-5"><path id="SVGID-5" data-name="SVGID" class="cls-1" d="M60.64,841.25a8.48,8.48,0,0,0,4-16l-1,3.11a5.28,5.28,0,1,1-6.36.35l-.3,1.85,2.25,2.25L60,828l.8-4.84-4.85.79-4.85.79L53.32,827l1.33-.21a8.49,8.49,0,0,0,6,14.49Z"/></clipPath><clipPath id="clip-path-6"><polygon id="SVGID-6" data-name="SVGID" class="cls-1" points="45.34 830.73 61.28 845.08 72.95 832.12 57.01 817.77 45.34 830.73 45.34 830.73"/></clipPath></defs><title>smashing_magazine</title><rect id="Background" class="cls-2" width="1280" height="1024"/><g id="Backwards_logo" data-name="Backwards logo"><polygon class="cls-3" points="489.35 60.85 518.17 48.19 547 35.53 547 60.85 547 86.17 518.17 73.51 489.35 60.85"/><polygon class="cls-4" points="489.35 60.85 547 86.17 523.57 60.85 489.35 60.85"/><polygon class="cls-5" points="489.35 60.85 547 35.53 523.57 60.85 489.35 60.85"/><polygon class="cls-3" points="547 60.85 575.82 48.19 604.65 35.53 604.65 60.85 604.65 86.17 575.82 73.51 547 60.85"/><polygon class="cls-4" points="547 60.85 604.65 86.17 581.22 60.85 547 60.85"/><polygon class="cls-5" points="547 60.85 604.65 35.53 581.22 60.85 547 60.85"/><rect class="cls-5" x="454.03" y="35.59" width="35.32" height="50.58"/><polygon class="cls-3" points="489.35 35.59 471.69 46.61 454.03 35.59 489.35 35.59"/><polygon class="cls-3" points="454.03 86.17 471.69 75.15 489.35 86.17 454.03 86.17"/><path class="cls-6" d="M471.69,75.15"/><polygon class="cls-4" points="471.69 46.61 489.35 35.59 489.35 86.17 471.69 75.15 471.69 46.61"/><g id="Title"><path class="cls-7" d="M1220.85,37h23.78V86.23h-22.17a33.83,33.83,0,0,1-7-.67,13.53,13.53,0,0,1-9-6.34,14.41,14.41,0,0,1-2.19-7.85,13.09,13.09,0,0,1,1.91-7.21,11,11,0,0,1,5.69-4.34,11.53,11.53,0,0,1-3.75-2.8,10.94,10.94,0,0,1-2.28-7.24,12.58,12.58,0,0,1,2.25-7.52Q1211.86,37.16,1220.85,37Zm3.26,8.55a18.6,18.6,0,0,0-5.82.77c-1.76.73-2.64,2.25-2.64,4.54q0,3.1,2,4.32a9.91,9.91,0,0,0,5.2,1.22h12V45.57Zm-1.41,19a12.68,12.68,0,0,0-4.92.84,5.28,5.28,0,0,0-3.13,5.27q0,4.55,3.23,6.15a11.78,11.78,0,0,0,5,.86h11.94V64.56Z"/><path class="cls-7" d="M1198.92,86.23h-10.76l-3.34-10.11H1166.7l-3.24,10.11h-11.15L1169.72,37h11.63Zm-23.28-38-6.21,19.37H1182Z"/><path class="cls-7" d="M1148.18,62q0,11.91-6,18.76t-16.51,6.81q-8.49,0-13.92-5A22.16,22.16,0,0,1,1105,69.47h10.21a15.66,15.66,0,0,0,2.55,5.71q2.77,3.54,8.06,3.54a10.52,10.52,0,0,0,8.51-4.12q3.35-4.12,3.35-12.4t-3.17-12.81a10.06,10.06,0,0,0-8.67-4.52q-5.4,0-8.14,3.2a14,14,0,0,0-2.52,5.34h-10.28a17.72,17.72,0,0,1,3.36-9.18q5.68-8.13,18-8.14a20.28,20.28,0,0,1,15.13,6.07Q1148.19,49.15,1148.18,62Z"/><path class="cls-7" d="M1096.51,86.23h-10.12V69.77l-5-5-15.16,21.48h-13.22l21.23-29L1054.1,37h13.28l19,20.28V37h10.12Z"/><path class="cls-7" d="M1051.52,37l-14,49.21H1028l-5.94-28.78-1.74-9.51-1.73,9.51-5.94,28.78h-9.85L989,37h10.47L1006,65.5l1.52,7.54L1009,65.2,1014.87,37h10.85l5.56,28.34L1032.7,73l1.41-7.84,6.5-28.18Z"/><path class="cls-7" d="M990,86.23H979.25l-3.34-10.11H957.79l-3.24,10.11H943.4L960.81,37h11.63Zm-23.28-38-6.21,19.37h12.6Z"/><path class="cls-7" d="M913.37,37H936.9V86.23h-10V66.94H916.81q-4.29,0-5.85,1.56t-1.63,6.28l-.07,4.57a23.72,23.72,0,0,1-.43,4.24c-.13.67-.36,1.55-.67,2.64H896.81V85a4.07,4.07,0,0,0,1.9-2.8,24.94,24.94,0,0,0,.27-4.57V74.31q0-5.18,1.42-7.69a9.19,9.19,0,0,1,4.82-3.89,9.91,9.91,0,0,1-5.84-4.79,14.75,14.75,0,0,1-1.77-6.89,14,14,0,0,1,.91-5.18A15.54,15.54,0,0,1,901,41.73a12.2,12.2,0,0,1,4.6-3.44A21.52,21.52,0,0,1,913.37,37Zm2.14,8.55a10.19,10.19,0,0,0-4.76.87c-1.88,1-2.82,3-2.82,6,0,2.76,1,4.6,2.92,5.54a11.78,11.78,0,0,0,4.94.8h11.07V45.57Z"/><path class="cls-7" d="M866.55,37h21.21V86.23H866.55q-11.16,0-16.5-9.18-3.94-6.81-3.95-16.62a37.72,37.72,0,0,1,.94-8.15,21.77,21.77,0,0,1,3.51-8,16.32,16.32,0,0,1,8.38-6.24A26,26,0,0,1,866.55,37Zm1.74,8.55q-7,0-9.38,4t-2.36,11.54a25.48,25.48,0,0,0,1.57,9.38q2.88,7.17,10.17,7.17h9.49V45.57Z"/><path class="cls-7" d="M840.79,71a14.53,14.53,0,0,1-5.56,12.07q-5.57,4.4-15.29,4.39-9.51,0-14.73-4.46A14.13,14.13,0,0,1,800,71.84q0-6.57,4.4-10.05a22,22,0,0,1,8.51-3.57l8.64-2a29.51,29.51,0,0,0,6.53-2,4.22,4.22,0,0,0,2.4-3.94,5.06,5.06,0,0,0-2.43-4.47,11.65,11.65,0,0,0-6.5-1.61,13.66,13.66,0,0,0-6.13,1.24,7.05,7.05,0,0,0-4,6.31h-9.88q.27-7.84,5.83-12a21.9,21.9,0,0,1,13.43-4.12q9.43,0,14.3,4.37a14.16,14.16,0,0,1,4.86,11q0,7.25-5,10.65-2.94,2-10.79,3.78l-5.33,1.16a23.35,23.35,0,0,0-6.83,2.31,4.2,4.2,0,0,0-2.15,3.77q0,4.17,4.39,5.71a19,19,0,0,0,6,.8q6.2,0,8.76-3A10,10,0,0,0,831,71Z"/><path class="cls-7" d="M752.58,37H773.8V86.23H752.58q-11.16,0-16.5-9.18-3.95-6.81-4-16.62a38.35,38.35,0,0,1,.94-8.15,21.77,21.77,0,0,1,3.51-8A16.32,16.32,0,0,1,745,38.09,26,26,0,0,1,752.58,37Zm1.74,8.55q-7,0-9.38,4t-2.36,11.54a25.48,25.48,0,0,0,1.57,9.38q2.88,7.17,10.17,7.17h9.49V45.57Z"/><path class="cls-7" d="M727.92,86.23H717.16l-3.33-10.11H695.71l-3.25,10.11H681.31L698.72,37h11.63Zm-23.28-38-6.21,19.37H711Z"/><path class="cls-7" d="M663,58.46,673.25,37h12.11l-17,30.76V86.23H658.06V67.78L641.6,37h11.65Z"/><path class="cls-7" d="M644.24,86.23H634.12v-10h10.12Z"/></g></g><g id="Text"><path class="cls-7" d="M1244.18,164.94h-2.61a5.84,5.84,0,0,0-.11-1.09,3.31,3.31,0,0,0-.36-1,2,2,0,0,0-.66-.73,1.82,1.82,0,0,0-1-.28,1.93,1.93,0,0,0-2,2.08,2.12,2.12,0,0,0,.28,1.1,3.84,3.84,0,0,0,.69.86,6.6,6.6,0,0,0,.92.71l.94.62c.58.4,1.12.79,1.64,1.18a7.47,7.47,0,0,1,1.36,1.26,5.35,5.35,0,0,1,.92,1.55,5.66,5.66,0,0,1,.33,2h-9.89v-2.35H1241a6,6,0,0,0-1.15-1.21c-.44-.35-.89-.67-1.35-1l-1.38-.91a7.64,7.64,0,0,1-1.22-1,4.63,4.63,0,0,1-.87-1.3,4.41,4.41,0,0,1-.32-1.75,4.1,4.1,0,0,1,.37-1.77,4,4,0,0,1,1-1.33,4.76,4.76,0,0,1,1.48-.83,5.37,5.37,0,0,1,1.76-.29,5.17,5.17,0,0,1,2.14.42,4.17,4.17,0,0,1,1.55,1.15,4.92,4.92,0,0,1,.92,1.74A6.2,6.2,0,0,1,1244.18,164.94Z"/><path class="cls-7" d="M1233.79,166.44a12.41,12.41,0,0,1-.39,3.38,6.11,6.11,0,0,1-1.07,2.17,3.88,3.88,0,0,1-1.57,1.15,5.36,5.36,0,0,1-3.81,0,4,4,0,0,1-1.58-1.15,6.12,6.12,0,0,1-1.08-2.17,12.41,12.41,0,0,1-.39-3.38,11.94,11.94,0,0,1,.39-3.3,6,6,0,0,1,1.08-2.14,3.91,3.91,0,0,1,1.58-1.16,5.36,5.36,0,0,1,3.81,0,3.81,3.81,0,0,1,1.57,1.16,6,6,0,0,1,1.07,2.14A11.94,11.94,0,0,1,1233.79,166.44Zm-2.73,0c0-.23,0-.51,0-.83s0-.67-.07-1a7.32,7.32,0,0,0-.19-1,3.71,3.71,0,0,0-.38-.91,1.91,1.91,0,0,0-.61-.65,1.63,1.63,0,0,0-.94-.25,1.67,1.67,0,0,0-.94.25,1.87,1.87,0,0,0-.63.65,3.07,3.07,0,0,0-.38.91,9.06,9.06,0,0,0-.19,1,8.76,8.76,0,0,0-.08,1c0,.32,0,.6,0,.83,0,.39,0,.85,0,1.4a8.25,8.25,0,0,0,.24,1.58,3.33,3.33,0,0,0,.66,1.3,1.58,1.58,0,0,0,1.29.53,1.52,1.52,0,0,0,1.27-.53,3.46,3.46,0,0,0,.65-1.3,8.25,8.25,0,0,0,.24-1.58C1231.05,167.29,1231.06,166.83,1231.06,166.44Z"/><path class="cls-7" d="M1219.13,162v11.21h-3V162H1212v-2.54h11.25V162Z"/><path class="cls-7" d="M1210.41,159.49v13.75h-3v-5.93h-5.56v5.93h-3V159.49h3v5.28h5.56v-5.28Z"/><path class="cls-7" d="M1187.23,167.89v5.35h-3V168l-5.1-8.47h3.37l3.19,5.43,3.22-5.43h3.38Z"/><path class="cls-7" d="M1178,159.49v13.75h-10.44V170.7h7.41v-3.37h-6.66V165h6.66V162h-7.25v-2.54Z"/><path class="cls-7" d="M1161.73,159.49l5.2,13.75h-3l-1.08-3.06h-5.14l-1,3.06h-3.14l5.14-13.75Zm.29,8.44-1.79-5.05h0l-1.73,5.05Z"/><path class="cls-7" d="M1152.3,159.49v13.75h-3v-5.37h-3a2.22,2.22,0,0,0-1.64.5A2.73,2.73,0,0,0,1144,170c-.08.55-.14,1.13-.18,1.73a5.32,5.32,0,0,1-.31,1.56h-3a2.11,2.11,0,0,0,.32-.71,7.1,7.1,0,0,0,.16-.87c0-.31,0-.61.06-.91s0-.55,0-.77a9.13,9.13,0,0,1,.15-1,3.63,3.63,0,0,1,.33-1,2.58,2.58,0,0,1,.6-.75,2.29,2.29,0,0,1,.92-.47v0a3.21,3.21,0,0,1-1.66-1.35,4.12,4.12,0,0,1-.51-2.09,3.82,3.82,0,0,1,.28-1.48,3.56,3.56,0,0,1,.8-1.2,3.91,3.91,0,0,1,1.27-.82,4.44,4.44,0,0,1,1.67-.3Zm-3,6.22v-3.87H1146a2.34,2.34,0,0,0-1.56.45,1.84,1.84,0,0,0-.52,1.46,1.91,1.91,0,0,0,.52,1.5,2.29,2.29,0,0,0,1.56.46Z"/><path class="cls-7" d="M1133.65,166.42a8.22,8.22,0,0,1-.46,2.8,6.77,6.77,0,0,1-1.33,2.27,6.2,6.2,0,0,1-2.13,1.51,7.61,7.61,0,0,1-5.68,0,6.16,6.16,0,0,1-2.12-1.51,6.77,6.77,0,0,1-1.33-2.27,8.22,8.22,0,0,1-.46-2.8,8.58,8.58,0,0,1,.46-2.86,6.86,6.86,0,0,1,1.33-2.29,6,6,0,0,1,2.12-1.54,7.48,7.48,0,0,1,5.68,0,6,6,0,0,1,2.13,1.54,6.86,6.86,0,0,1,1.33,2.29A8.58,8.58,0,0,1,1133.65,166.42Zm-3,0a7.83,7.83,0,0,0-.2-1.75,4.67,4.67,0,0,0-.65-1.51,3.35,3.35,0,0,0-1.15-1.06,3.61,3.61,0,0,0-1.74-.39,3.57,3.57,0,0,0-1.73.39,3.35,3.35,0,0,0-1.15,1.06,4.67,4.67,0,0,0-.65,1.51,7.83,7.83,0,0,0-.2,1.75,7.3,7.3,0,0,0,.2,1.69,4.64,4.64,0,0,0,.65,1.47,3.23,3.23,0,0,0,1.15,1,3.57,3.57,0,0,0,1.73.39,3.61,3.61,0,0,0,1.74-.39,3.23,3.23,0,0,0,1.15-1,4.64,4.64,0,0,0,.65-1.47A7.3,7.3,0,0,0,1130.63,166.42Z"/><path class="cls-7" d="M1118.08,159.49v13.75h-3v-5.68h-5.76v-2.35h5.76V162h-6.64v-2.54Z"/><path class="cls-7" d="M1098.27,162v11.21h-3V162h-4.12v-2.54h11.26V162Z"/><path class="cls-7" d="M1089.55,159.49v13.75h-3v-5.93H1081v5.93h-3V159.49h3v5.28h5.56v-5.28Z"/><path class="cls-7" d="M1075.29,159.49v13.75h-10.43V170.7h7.41v-3.37h-6.66V165h6.66V162H1065v-2.54Z"/><path class="cls-7" d="M1058.09,164.94h-2.62a5.84,5.84,0,0,0-.11-1.09,3.59,3.59,0,0,0-.35-1,2.13,2.13,0,0,0-.67-.73,1.79,1.79,0,0,0-1-.28,1.93,1.93,0,0,0-2,2.08,2.12,2.12,0,0,0,.28,1.1,3.84,3.84,0,0,0,.69.86,6.6,6.6,0,0,0,.92.71l.94.62c.58.4,1.13.79,1.65,1.18a7.41,7.41,0,0,1,1.35,1.26,5.35,5.35,0,0,1,.92,1.55,5.66,5.66,0,0,1,.33,2h-9.89v-2.35h6.37a6,6,0,0,0-1.15-1.21c-.44-.35-.89-.67-1.35-1l-1.38-.91a7.64,7.64,0,0,1-1.22-1,4.39,4.39,0,0,1-.86-1.3,4.24,4.24,0,0,1-.33-1.75,4.1,4.1,0,0,1,.37-1.77,4,4,0,0,1,1-1.33,4.76,4.76,0,0,1,1.48-.83,5.37,5.37,0,0,1,1.76-.29,5.14,5.14,0,0,1,2.14.42,4.09,4.09,0,0,1,1.55,1.15,5.1,5.1,0,0,1,.93,1.74A6.72,6.72,0,0,1,1058.09,164.94Z"/><path class="cls-7" d="M1040.55,173.24V159.76h2.18a2.76,2.76,0,0,0,.48,1.29,2.85,2.85,0,0,0,.89.84,3.58,3.58,0,0,0,1.2.44,6.19,6.19,0,0,0,1.37.11v2.06h-3.38v8.74Z"/><path class="cls-7" d="M1034,168.68h2.92a4.48,4.48,0,0,1-.46,2.19,4.26,4.26,0,0,1-1.3,1.52,5.52,5.52,0,0,1-1.88.88,9,9,0,0,1-2.21.28,8.39,8.39,0,0,1-2.47-.33,5.13,5.13,0,0,1-1.79-.92,3.85,3.85,0,0,1-1.09-1.39,4.28,4.28,0,0,1-.36-1.75,3.35,3.35,0,0,1,.49-1.9,4,4,0,0,1,1.16-1.18,5.12,5.12,0,0,1,1.36-.65c.45-.13.81-.23,1.07-.28.86-.21,1.55-.39,2.08-.54a7.63,7.63,0,0,0,1.26-.42,1.31,1.31,0,0,0,.6-.46,1.2,1.2,0,0,0,.16-.66,1.3,1.3,0,0,0-.2-.73,1.6,1.6,0,0,0-.49-.48,1.92,1.92,0,0,0-.66-.27,3.61,3.61,0,0,0-.73-.07,5.49,5.49,0,0,0-1,.09,2.63,2.63,0,0,0-.84.33,1.71,1.71,0,0,0-.59.63,2.63,2.63,0,0,0-.26,1h-2.92a4.26,4.26,0,0,1,.45-2,4,4,0,0,1,1.22-1.37,5.2,5.2,0,0,1,1.76-.78,8.82,8.82,0,0,1,2.07-.24,6.87,6.87,0,0,1,1.85.25,5,5,0,0,1,1.66.77,4.09,4.09,0,0,1,1.18,1.3,3.61,3.61,0,0,1,.45,1.84,3.44,3.44,0,0,1-.35,1.6,3.48,3.48,0,0,1-.94,1.11,5.32,5.32,0,0,1-1.31.72,11.91,11.91,0,0,1-1.5.47l-1.48.39a9.26,9.26,0,0,0-1.31.4,2.84,2.84,0,0,0-.93.58,1.19,1.19,0,0,0-.36.9,1.32,1.32,0,0,0,.27.86,2,2,0,0,0,.68.53,3,3,0,0,0,.86.26,6.92,6.92,0,0,0,.87.07,4.37,4.37,0,0,0,1.15-.15,2.62,2.62,0,0,0,1-.44,2.21,2.21,0,0,0,.67-.78A2.47,2.47,0,0,0,1034,168.68Z"/><path class="cls-7" d="M1020.54,162v11.21h-3V162h-4.11v-2.54h11.25V162Z"/><path class="cls-7" d="M997.3,164.11h-2.92A5.61,5.61,0,0,1,995,162a5.11,5.11,0,0,1,1.32-1.55,5.82,5.82,0,0,1,1.81-1,7.17,7.17,0,0,1,2.15-.32,6.83,6.83,0,0,1,2.84.56,5.89,5.89,0,0,1,2.12,1.54,6.86,6.86,0,0,1,1.33,2.29,8.58,8.58,0,0,1,.46,2.86,8.22,8.22,0,0,1-.46,2.8,6.77,6.77,0,0,1-1.33,2.27,6.07,6.07,0,0,1-2.12,1.51,7.16,7.16,0,0,1-2.84.55,6.66,6.66,0,0,1-2.33-.39,5.43,5.43,0,0,1-1.85-1.12,5.35,5.35,0,0,1-1.27-1.77,7.07,7.07,0,0,1-.6-2.33h2.93a3.9,3.9,0,0,0,.95,2.24,2.81,2.81,0,0,0,2.17.84,3.57,3.57,0,0,0,1.73-.39,3.23,3.23,0,0,0,1.15-1,4.64,4.64,0,0,0,.65-1.47,7.3,7.3,0,0,0,.2-1.69,7.83,7.83,0,0,0-.2-1.75,4.67,4.67,0,0,0-.65-1.51,3.35,3.35,0,0,0-1.15-1.06,3.57,3.57,0,0,0-1.73-.39,3.16,3.16,0,0,0-1.07.18,3.06,3.06,0,0,0-.92.51,3,3,0,0,0-.67.76A2.65,2.65,0,0,0,997.3,164.11Z"/><path class="cls-7" d="M992.2,159.49v13.75H981.77V170.7h7.41v-3.37h-6.66V165h6.66V162h-7.25v-2.54Z"/><path class="cls-7" d="M979.73,159.49v13.75H976.9V164h0l-5.71,9.2h-3V159.49H971v9.22h0l5.74-9.22Z"/><path class="cls-7" d="M962.43,162v11.21h-3V162h-4.12v-2.54h11.26V162Z"/><path class="cls-7" d="M942.05,168v-8.55h3V168a3.43,3.43,0,0,0,.61,2.26,2.85,2.85,0,0,0,2.24.72,3.4,3.4,0,0,0,1.47-.26,2.17,2.17,0,0,0,.86-.67,2.24,2.24,0,0,0,.4-1,6.72,6.72,0,0,0,.1-1.1v-8.55h3V168a5.27,5.27,0,0,1-1.53,4.16,7.55,7.55,0,0,1-8.63,0A5.22,5.22,0,0,1,942.05,168Z"/><path class="cls-7" d="M939.45,159.49v13.75h-3v-5.37h-3a2.22,2.22,0,0,0-1.64.5,2.79,2.79,0,0,0-.66,1.58c-.07.55-.13,1.13-.17,1.73a5.32,5.32,0,0,1-.31,1.56h-3a2.11,2.11,0,0,0,.32-.71,5.63,5.63,0,0,0,.15-.87c0-.31.06-.61.07-.91s0-.55,0-.77a9.09,9.09,0,0,1,.14-1,3.64,3.64,0,0,1,.34-1,2.43,2.43,0,0,1,.6-.75,2.29,2.29,0,0,1,.92-.47v0a3.21,3.21,0,0,1-1.66-1.35,4.12,4.12,0,0,1-.51-2.09,3.82,3.82,0,0,1,.28-1.48,3.56,3.56,0,0,1,.8-1.2,3.91,3.91,0,0,1,1.27-.82,4.44,4.44,0,0,1,1.67-.3Zm-3,6.22v-3.87h-3.31a2.31,2.31,0,0,0-1.56.45,1.84,1.84,0,0,0-.52,1.46,1.91,1.91,0,0,0,.52,1.5,2.25,2.25,0,0,0,1.56.46Z"/><path class="cls-7" d="M922.7,167.89v5.35h-3V168l-5.1-8.47H918l3.19,5.43,3.22-5.43h3.39Z"/><path class="cls-7" d="M916.28,170.27v3h-3v-3Z"/><path class="cls-7" d="M1243.57,182.59v13.74h-3v-5.67h-5.76v-2.35h5.76v-3.18h-6.64v-2.54Z"/><path class="cls-7" d="M1232.15,182.59v13.74h-3V182.59Z"/><path class="cls-7" d="M1226.48,182.59v13.74h-3V191h-3a2.25,2.25,0,0,0-1.63.5,2.76,2.76,0,0,0-.66,1.58c-.07.55-.13,1.13-.17,1.74a5.19,5.19,0,0,1-.31,1.55h-3a2,2,0,0,0,.32-.7,5.84,5.84,0,0,0,.15-.87c0-.31.06-.61.07-.91s0-.55,0-.77a7.42,7.42,0,0,1,.14-1,3.7,3.7,0,0,1,.34-.95,2.43,2.43,0,0,1,.6-.75,2.29,2.29,0,0,1,.92-.47v0a3.23,3.23,0,0,1-1.67-1.35,4.14,4.14,0,0,1-.51-2.1,4,4,0,0,1,.28-1.47,3.64,3.64,0,0,1,.81-1.2,3.91,3.91,0,0,1,1.27-.82,4.44,4.44,0,0,1,1.67-.3Zm-3,6.22v-3.87h-3.32a2.29,2.29,0,0,0-1.55.45,1.83,1.83,0,0,0-.52,1.46,1.91,1.91,0,0,0,.52,1.5,2.29,2.29,0,0,0,1.55.46Z"/><path class="cls-7" d="M1210.52,191.77h2.93a4.61,4.61,0,0,1-.46,2.2,4.45,4.45,0,0,1-1.3,1.52,5.65,5.65,0,0,1-1.89.87,8.51,8.51,0,0,1-2.2.28,8.83,8.83,0,0,1-2.48-.32,5.4,5.4,0,0,1-1.79-.92,3.75,3.75,0,0,1-1.08-1.4,4.07,4.07,0,0,1-.37-1.75,3.32,3.32,0,0,1,.49-1.89,4.15,4.15,0,0,1,1.17-1.19,5.17,5.17,0,0,1,1.35-.64,11,11,0,0,1,1.07-.28l2.09-.54a7.8,7.8,0,0,0,1.25-.42,1.49,1.49,0,0,0,.61-.46,1.51,1.51,0,0,0,0-1.39,1.72,1.72,0,0,0-.49-.48,1.89,1.89,0,0,0-.67-.27,3.55,3.55,0,0,0-.73-.08,4.8,4.8,0,0,0-1,.1,2.38,2.38,0,0,0-.84.33,1.68,1.68,0,0,0-.58.63,2.32,2.32,0,0,0-.26,1h-2.93a4.14,4.14,0,0,1,.46-2,3.75,3.75,0,0,1,1.22-1.37,5.13,5.13,0,0,1,1.76-.79,9.31,9.31,0,0,1,2.07-.24,7.42,7.42,0,0,1,1.85.25,5.23,5.23,0,0,1,1.65.78,3.94,3.94,0,0,1,1.18,1.29,3.54,3.54,0,0,1,.46,1.84,3.33,3.33,0,0,1-.36,1.61,3.58,3.58,0,0,1-.93,1.11,5.51,5.51,0,0,1-1.31.72,15.35,15.35,0,0,1-1.5.47c-.5.14-1,.27-1.48.38a8.83,8.83,0,0,0-1.31.41,2.64,2.64,0,0,0-.94.58,1.22,1.22,0,0,0-.35.9,1.34,1.34,0,0,0,.27.86,2,2,0,0,0,.67.53,3.51,3.51,0,0,0,.87.26,6.55,6.55,0,0,0,.86.06,4.91,4.91,0,0,0,1.16-.14,3,3,0,0,0,1-.44,2.18,2.18,0,0,0,.66-.78A2.48,2.48,0,0,0,1210.52,191.77Z"/><path class="cls-7" d="M1197.05,185.13v11.2h-3v-11.2h-4.12v-2.54h11.26v2.54Z"/><path class="cls-7" d="M1183,182.59v13.74h-2.83v-9.64h0l-3.37,9.64h-2.32l-3.37-9.74h0v9.74h-2.83V182.59h4.25l3,9.45h0l3.22-9.45Z"/><path class="cls-7" d="M1166.12,189.52a8.27,8.27,0,0,1-.46,2.8,6.62,6.62,0,0,1-1.33,2.26,5.94,5.94,0,0,1-2.13,1.51,7.61,7.61,0,0,1-5.68,0,5.91,5.91,0,0,1-2.12-1.51,6.62,6.62,0,0,1-1.33-2.26,8.27,8.27,0,0,1-.46-2.8,8.54,8.54,0,0,1,.46-2.86,6.91,6.91,0,0,1,1.33-2.3,6.23,6.23,0,0,1,2.12-1.54,7.48,7.48,0,0,1,5.68,0,6.27,6.27,0,0,1,2.13,1.54,6.91,6.91,0,0,1,1.33,2.3A8.54,8.54,0,0,1,1166.12,189.52Zm-3,0a7.76,7.76,0,0,0-.2-1.75,4.58,4.58,0,0,0-.65-1.51,3.25,3.25,0,0,0-1.15-1.06,3.61,3.61,0,0,0-1.74-.4,3.57,3.57,0,0,0-1.73.4,3.25,3.25,0,0,0-1.15,1.06,4.58,4.58,0,0,0-.65,1.51,7.76,7.76,0,0,0-.2,1.75,7.15,7.15,0,0,0,.2,1.68,4.6,4.6,0,0,0,.65,1.48,3.42,3.42,0,0,0,1.15,1,3.57,3.57,0,0,0,1.73.39,3.61,3.61,0,0,0,1.74-.39,3.42,3.42,0,0,0,1.15-1,4.6,4.6,0,0,0,.65-1.48A7.15,7.15,0,0,0,1163.1,189.52Z"/><path class="cls-7" d="M1150.55,182.59v13.74h-2.83v-9.2h0l-5.71,9.2h-3V182.59h2.83v9.22h0l5.74-9.22Z"/><path class="cls-7" d="M1133.25,185.13v11.2h-3v-11.2h-4.11v-2.54h11.25v2.54Z"/><path class="cls-7" d="M1124.53,182.59v13.74h-3v-5.92h-5.57v5.92h-3V182.59h3v5.27h5.57v-5.27Z"/><path class="cls-7" d="M1105.51,189.52a8.27,8.27,0,0,1-.46,2.8,6.62,6.62,0,0,1-1.33,2.26,5.94,5.94,0,0,1-2.13,1.51,7.61,7.61,0,0,1-5.68,0,5.91,5.91,0,0,1-2.12-1.51,6.62,6.62,0,0,1-1.33-2.26,8.27,8.27,0,0,1-.46-2.8,8.54,8.54,0,0,1,.46-2.86,6.91,6.91,0,0,1,1.33-2.3,6.23,6.23,0,0,1,2.12-1.54,7.48,7.48,0,0,1,5.68,0,6.27,6.27,0,0,1,2.13,1.54,6.91,6.91,0,0,1,1.33,2.3A8.54,8.54,0,0,1,1105.51,189.52Zm-3,0a7.76,7.76,0,0,0-.2-1.75,4.58,4.58,0,0,0-.65-1.51,3.25,3.25,0,0,0-1.15-1.06,3.57,3.57,0,0,0-1.73-.4,3.61,3.61,0,0,0-1.74.4,3.25,3.25,0,0,0-1.15,1.06,4.58,4.58,0,0,0-.65,1.51,7.76,7.76,0,0,0-.2,1.75,7.15,7.15,0,0,0,.2,1.68,4.6,4.6,0,0,0,.65,1.48,3.42,3.42,0,0,0,1.15,1,3.61,3.61,0,0,0,1.74.39,3.57,3.57,0,0,0,1.73-.39,3.42,3.42,0,0,0,1.15-1,4.6,4.6,0,0,0,.65-1.48A7.15,7.15,0,0,0,1102.49,189.52Z"/><path class="cls-7" d="M1089.94,182.59v13.74h-3v-5.67h-5.76v-2.35h5.76v-3.18h-6.64v-2.54Z"/><path class="cls-7" d="M1070.14,185.13v11.2h-3v-11.2H1063v-2.54h11.26v2.54Z"/><path class="cls-7" d="M1061.42,182.59v13.74h-3v-5.92h-5.56v5.92h-3V182.59h3v5.27h5.56v-5.27Z"/><path class="cls-7" d="M1047.15,182.59v13.74h-10.43v-2.54h7.41v-3.36h-6.66v-2.35h6.66v-3h-7.25v-2.54Z"/><path class="cls-7" d="M1025.77,191v5.35h-3v-5.27l-5.1-8.47H1021l3.19,5.43,3.22-5.43h3.38Z"/><path class="cls-7" d="M1016.49,182.59v13.74h-10.43v-2.54h7.41v-3.36h-6.66v-2.35h6.66v-3h-7.25v-2.54Z"/><path class="cls-7" d="M1000.27,182.59l5.2,13.74h-3.05l-1.07-3.06h-5.14l-1,3.06H992l5.14-13.74Zm.29,8.43-1.79-5h0L997,191Z"/><path class="cls-7" d="M990.84,182.59v13.74h-3V191h-3a2.27,2.27,0,0,0-1.64.5,2.83,2.83,0,0,0-.66,1.58c-.07.55-.13,1.13-.17,1.74a5.19,5.19,0,0,1-.31,1.55h-3a2,2,0,0,0,.32-.7,5.84,5.84,0,0,0,.15-.87c0-.31.06-.61.07-.91s0-.55,0-.77a7.42,7.42,0,0,1,.14-1,3.7,3.7,0,0,1,.34-.95,2.43,2.43,0,0,1,.6-.75,2.29,2.29,0,0,1,.92-.47v0a3.21,3.21,0,0,1-1.66-1.35,4.14,4.14,0,0,1-.51-2.1,4,4,0,0,1,.27-1.47,3.64,3.64,0,0,1,.81-1.2,3.91,3.91,0,0,1,1.27-.82,4.44,4.44,0,0,1,1.67-.3Zm-3,6.22v-3.87h-3.31a2.31,2.31,0,0,0-1.56.45,1.83,1.83,0,0,0-.52,1.46,1.91,1.91,0,0,0,.52,1.5,2.31,2.31,0,0,0,1.56.46Z"/><path class="cls-7" d="M977.12,193.37v3h-3v-3Z"/><path class="cls-7" d="M1243.57,205.69v13.74h-9.72v-2.54h6.7v-11.2Z"/><path class="cls-7" d="M1228.4,205.69l5.2,13.74h-3l-1.08-3.06h-5.14l-1,3.06h-3.14l5.14-13.74Zm.29,8.43-1.79-5.05h0l-1.73,5.05Z"/><path class="cls-7" d="M1216.91,214.87h2.93a4.57,4.57,0,0,1-.46,2.19,4.27,4.27,0,0,1-1.3,1.52,5.66,5.66,0,0,1-1.89.88,9,9,0,0,1-2.2.28,8.42,8.42,0,0,1-2.48-.33,5.29,5.29,0,0,1-1.79-.91,4,4,0,0,1-1.09-1.4,4.25,4.25,0,0,1-.36-1.75,3.37,3.37,0,0,1,.49-1.9,4.11,4.11,0,0,1,1.17-1.18,5.39,5.39,0,0,1,1.35-.65c.46-.13.81-.22,1.07-.27l2.09-.54a6.83,6.83,0,0,0,1.25-.43,1.41,1.41,0,0,0,.61-.46,1.49,1.49,0,0,0,0-1.38,1.64,1.64,0,0,0-.49-.49,2.08,2.08,0,0,0-.67-.26,3,3,0,0,0-.73-.08,5.56,5.56,0,0,0-1,.09,2.83,2.83,0,0,0-.84.33,1.79,1.79,0,0,0-.58.64,2.32,2.32,0,0,0-.26,1h-2.93a4.2,4.2,0,0,1,.45-2,4,4,0,0,1,1.23-1.38,5.11,5.11,0,0,1,1.76-.78,8.76,8.76,0,0,1,2.07-.24,6.85,6.85,0,0,1,1.84.25,5.16,5.16,0,0,1,1.66.77,4.08,4.08,0,0,1,1.18,1.3,3.61,3.61,0,0,1,.46,1.84,3.29,3.29,0,0,1-.36,1.6,3.37,3.37,0,0,1-.93,1.11,4.89,4.89,0,0,1-1.31.72,11.33,11.33,0,0,1-1.5.47c-.51.15-1,.27-1.49.39a11.37,11.37,0,0,0-1.31.4,3,3,0,0,0-.93.58,1.19,1.19,0,0,0-.35.91,1.31,1.31,0,0,0,.27.85,1.84,1.84,0,0,0,.67.53,2.86,2.86,0,0,0,.86.26,5.45,5.45,0,0,0,.87.07,4.5,4.5,0,0,0,1.16-.15,2.78,2.78,0,0,0,1-.44,2.29,2.29,0,0,0,.66-.78A2.47,2.47,0,0,0,1216.91,214.87Z"/><path class="cls-7" d="M1203.44,208.23v11.2h-3v-11.2h-4.12v-2.54h11.26v2.54Z"/><path class="cls-7" d="M1189.37,205.69v13.74h-5.93a6.6,6.6,0,0,1-2.74-.53,5.48,5.48,0,0,1-2-1.45,6.34,6.34,0,0,1-1.16-2.2,9.37,9.37,0,0,1-.39-2.77,8.39,8.39,0,0,1,.48-3,5.81,5.81,0,0,1,1.31-2.12,5.27,5.27,0,0,1,2-1.27,7.12,7.12,0,0,1,2.47-.42Zm-3,11.2v-8.66h-2.16a4.68,4.68,0,0,0-1.87.32,2.92,2.92,0,0,0-1.23.91,3.84,3.84,0,0,0-.66,1.43,7.8,7.8,0,0,0-.2,1.88,5.39,5.39,0,0,0,.29,1.92,3.29,3.29,0,0,0,.77,1.28,2.75,2.75,0,0,0,1.09.71,3.93,3.93,0,0,0,1.27.21Z"/><path class="cls-7" d="M1171.35,205.69l5.2,13.74h-3l-1.08-3.06h-5.14l-1,3.06h-3.13l5.14-13.74Zm.29,8.43-1.79-5.05h0l-1.73,5.05Z"/><path class="cls-7" d="M1159.79,214.08v5.35h-3v-5.27l-5.11-8.47H1155l3.2,5.43,3.21-5.43h3.39Z"/><path class="cls-7" d="M1145.76,212.62a8.27,8.27,0,0,1-.47,2.8,6.7,6.7,0,0,1-1.32,2.26,6.2,6.2,0,0,1-2.13,1.51,7.63,7.63,0,0,1-5.69,0,6.12,6.12,0,0,1-2.11-1.51,6.56,6.56,0,0,1-1.33-2.26,8.27,8.27,0,0,1-.46-2.8,8.54,8.54,0,0,1,.46-2.86,6.65,6.65,0,0,1,1.33-2.3,5.94,5.94,0,0,1,2.11-1.54,7.51,7.51,0,0,1,5.69,0,6,6,0,0,1,2.13,1.54,6.79,6.79,0,0,1,1.32,2.3A8.54,8.54,0,0,1,1145.76,212.62Zm-3,0a7.31,7.31,0,0,0-.2-1.76,4.75,4.75,0,0,0-.64-1.51,3.38,3.38,0,0,0-1.16-1.06,4,4,0,0,0-3.46,0,3.38,3.38,0,0,0-1.16,1.06,4.75,4.75,0,0,0-.64,1.51,7.31,7.31,0,0,0-.2,1.76,6.78,6.78,0,0,0,.2,1.68,4.44,4.44,0,0,0,.64,1.47,3.26,3.26,0,0,0,1.16,1,3.94,3.94,0,0,0,3.46,0,3.26,3.26,0,0,0,1.16-1,4.44,4.44,0,0,0,.64-1.47A6.78,6.78,0,0,0,1142.73,212.62Z"/><path class="cls-7" d="M1130.19,205.69v13.74h-3v-5.68h-5.75V211.4h5.75v-3.17h-6.64v-2.54Z"/><path class="cls-7" d="M1110.38,208.23v11.2h-3v-11.2h-4.12v-2.54h11.26v2.54Z"/><path class="cls-7" d="M1101.66,205.69v13.74h-3V213.5h-5.56v5.93h-3V205.69h3V211h5.56v-5.27Z"/><path class="cls-7" d="M1087.4,205.69v13.74H1077v-2.54h7.41v-3.37h-6.66v-2.35h6.66v-2.94h-7.26v-2.54Z"/><path class="cls-7" d="M1069.58,205.69v13.74h-2.83v-9.64h0l-3.37,9.64H1061l-3.37-9.74h0v9.74h-2.82V205.69H1059l3,9.45h0l3.21-9.45Z"/><path class="cls-7" d="M1052.72,212.62a8.27,8.27,0,0,1-.47,2.8,6.7,6.7,0,0,1-1.32,2.26,6.2,6.2,0,0,1-2.13,1.51,7.63,7.63,0,0,1-5.69,0,6.12,6.12,0,0,1-2.11-1.51,6.56,6.56,0,0,1-1.33-2.26,8.27,8.27,0,0,1-.46-2.8,8.54,8.54,0,0,1,.46-2.86,6.65,6.65,0,0,1,1.33-2.3,5.94,5.94,0,0,1,2.11-1.54,7.51,7.51,0,0,1,5.69,0,6,6,0,0,1,2.13,1.54,6.79,6.79,0,0,1,1.32,2.3A8.54,8.54,0,0,1,1052.72,212.62Zm-3,0a7.31,7.31,0,0,0-.2-1.76,4.75,4.75,0,0,0-.64-1.51,3.38,3.38,0,0,0-1.16-1.06,4,4,0,0,0-3.46,0,3.38,3.38,0,0,0-1.16,1.06,4.75,4.75,0,0,0-.64,1.51,7.31,7.31,0,0,0-.2,1.76,6.78,6.78,0,0,0,.2,1.68,4.44,4.44,0,0,0,.64,1.47,3.26,3.26,0,0,0,1.16,1,3.94,3.94,0,0,0,3.46,0,3.26,3.26,0,0,0,1.16-1,4.44,4.44,0,0,0,.64-1.47A6.78,6.78,0,0,0,1049.69,212.62Z"/><path class="cls-7" d="M1037.15,205.69v13.74h-2.83v-9.2h0l-5.72,9.2h-3V205.69h2.83v9.22h0l5.73-9.22Z"/><path class="cls-7" d="M1019.84,208.23v11.2h-3v-11.2h-4.12v-2.54H1024v2.54Z"/><path class="cls-7" d="M1011.12,205.69v13.74h-3V213.5h-5.56v5.93h-3V205.69h3V211h5.56v-5.27Z"/><path class="cls-7" d="M997,216.47v3h-3v-3Z"/><path class="cls-7" d="M1235.52,238.2v-9.42h3v9.28c0,.25,0,.5,0,.76a2.12,2.12,0,0,0,.18.73,1.14,1.14,0,0,0,.47.55,1.72,1.72,0,0,0,.92.21,1.89,1.89,0,0,0,.88-.17,1.34,1.34,0,0,0,.53-.47,1.93,1.93,0,0,0,.27-.72,5.41,5.41,0,0,0,.07-.93v-.61h2.74v1.19a4.34,4.34,0,0,1-.39,1.93,3.52,3.52,0,0,1-1,1.31,4.13,4.13,0,0,1-1.44.75,5.89,5.89,0,0,1-1.68.25,5.24,5.24,0,0,1-2.44-.48,3.57,3.57,0,0,1-2-2.68A9.07,9.07,0,0,1,1235.52,238.2Z"/><path class="cls-7" d="M1229.11,228.78l5.2,13.75h-3l-1.08-3.06h-5.14l-1,3.06h-3.13l5.14-13.75Zm.29,8.44-1.79-5.05h0l-1.73,5.05Z"/><path class="cls-7" d="M1219.68,228.78v13.75h-2.83v-9.2h0l-5.72,9.2h-3V228.78h2.83V238h0l5.73-9.22Z"/><path class="cls-7" d="M1193.76,237.33v-8.55h3v8.55a3.43,3.43,0,0,0,.61,2.26,2.86,2.86,0,0,0,2.24.72,3.4,3.4,0,0,0,1.47-.26,2.17,2.17,0,0,0,.86-.67,2.24,2.24,0,0,0,.4-.95,6.72,6.72,0,0,0,.1-1.1v-8.55h3v8.55a5.27,5.27,0,0,1-1.53,4.16,7.55,7.55,0,0,1-8.63,0A5.22,5.22,0,0,1,1193.76,237.33Z"/><path class="cls-7" d="M1187.41,228.78l5.19,13.75h-3l-1.08-3.06h-5.14l-1,3.06h-3.14l5.14-13.75Zm.28,8.44-1.78-5.05h0l-1.74,5.05Z"/><path class="cls-7" d="M1178,228.78v13.75h-3v-5.37h-3a2.2,2.2,0,0,0-1.63.5,2.66,2.66,0,0,0-.66,1.58c-.08.55-.13,1.13-.17,1.73a5.32,5.32,0,0,1-.31,1.56h-3a2.11,2.11,0,0,0,.32-.71,5.63,5.63,0,0,0,.15-.87c0-.31.06-.61.07-.91s0-.55,0-.77a7.62,7.62,0,0,1,.14-1,3.36,3.36,0,0,1,.34-.95,2.55,2.55,0,0,1,.59-.75,2.4,2.4,0,0,1,.93-.47v0a3.23,3.23,0,0,1-1.67-1.35,4.12,4.12,0,0,1-.51-2.09,4,4,0,0,1,.28-1.48,3.74,3.74,0,0,1,.81-1.2,3.81,3.81,0,0,1,1.27-.82,4.44,4.44,0,0,1,1.67-.3Zm-3,6.22v-3.87h-3.31a2.34,2.34,0,0,0-1.56.45,1.88,1.88,0,0,0-.52,1.46,1.94,1.94,0,0,0,.52,1.5,2.29,2.29,0,0,0,1.56.46Z"/><path class="cls-7" d="M1161.23,237.18v5.35h-3v-5.28l-5.1-8.47h3.37l3.19,5.43,3.22-5.43h3.38Z"/><path class="cls-7" d="M1143.54,234.5v1.93l-1,0a3,3,0,0,0-1,.22,1.67,1.67,0,0,0-.76.58,2,2,0,0,0-.3,1.18,2,2,0,0,0,.64,1.55,2.23,2.23,0,0,0,1.56.56,2.34,2.34,0,0,0,1-.21,2.12,2.12,0,0,0,.72-.56,2.54,2.54,0,0,0,.44-.85,3.9,3.9,0,0,0,.18-1h2.59a5.44,5.44,0,0,1-.33,2.08,4.39,4.39,0,0,1-1,1.53,4.52,4.52,0,0,1-1.59.95,6.16,6.16,0,0,1-2.07.33,6.27,6.27,0,0,1-1.89-.29,4.86,4.86,0,0,1-1.59-.85,4.06,4.06,0,0,1-1.11-1.38,4.16,4.16,0,0,1-.41-1.89,3.17,3.17,0,0,1,.63-2,3,3,0,0,1,1.75-1.08v0a2.34,2.34,0,0,1-1.41-1,3.14,3.14,0,0,1-.47-1.73,3.09,3.09,0,0,1,.4-1.6,3.91,3.91,0,0,1,1-1.17A4.6,4.6,0,0,1,1141,229a6.05,6.05,0,0,1,1.62-.24,5.12,5.12,0,0,1,1.88.34,4.11,4.11,0,0,1,2.4,2.43,5.67,5.67,0,0,1,.38,1.89h-2.6a2.67,2.67,0,0,0-.51-1.72,1.85,1.85,0,0,0-1.57-.68,2.07,2.07,0,0,0-1.33.46,1.62,1.62,0,0,0-.58,1.33,1.46,1.46,0,0,0,.28.92,1.87,1.87,0,0,0,.71.53,2.88,2.88,0,0,0,.94.22A4.92,4.92,0,0,0,1143.54,234.5Z"/><path class="cls-7" d="M1129.68,242.53V229.05h2.18a3,3,0,0,0,.48,1.29,2.85,2.85,0,0,0,.89.84,3.67,3.67,0,0,0,1.2.44,6.23,6.23,0,0,0,1.38.11v2.06h-3.39v8.74Z"/><path class="cls-7" d="M1125.35,239.56v3H1124a1.55,1.55,0,0,0,.08.6,1.73,1.73,0,0,0,.28.54,2.06,2.06,0,0,0,.46.42,1.6,1.6,0,0,0,.54.23v1.38a4.21,4.21,0,0,1-1.16-.35,3.46,3.46,0,0,1-1-.67,3.15,3.15,0,0,1-.65-1,3,3,0,0,1-.24-1.2v-3Z"/><path class="cls-7" d="M1115.11,234.23h-2.61a5.84,5.84,0,0,0-.11-1.09,3.31,3.31,0,0,0-.36-1,2,2,0,0,0-.66-.73,1.82,1.82,0,0,0-1-.28,2,2,0,0,0-1.45.55,2,2,0,0,0-.57,1.53,2.12,2.12,0,0,0,.28,1.1,3.58,3.58,0,0,0,.69.86,6.6,6.6,0,0,0,.92.71l.94.62c.58.4,1.12.79,1.64,1.18a7.47,7.47,0,0,1,1.36,1.26,5.35,5.35,0,0,1,.92,1.55,5.66,5.66,0,0,1,.33,2h-9.89v-2.35h6.37a6,6,0,0,0-1.15-1.21c-.44-.35-.89-.67-1.35-1l-1.38-.91a7.64,7.64,0,0,1-1.22-1,4.63,4.63,0,0,1-.87-1.3,4.41,4.41,0,0,1-.32-1.75,4.1,4.1,0,0,1,.37-1.77,4,4,0,0,1,1-1.33,4.76,4.76,0,0,1,1.48-.83,5.37,5.37,0,0,1,1.76-.29,5.17,5.17,0,0,1,2.14.42,4.17,4.17,0,0,1,1.55,1.15,4.92,4.92,0,0,1,.92,1.74A6.2,6.2,0,0,1,1115.11,234.23Z"/><path class="cls-7" d="M1104.72,235.73a12.41,12.41,0,0,1-.39,3.38,6.11,6.11,0,0,1-1.07,2.17,3.88,3.88,0,0,1-1.57,1.15,5.36,5.36,0,0,1-3.81,0,4,4,0,0,1-1.58-1.15,6.12,6.12,0,0,1-1.08-2.17,12.41,12.41,0,0,1-.39-3.38,11.94,11.94,0,0,1,.39-3.3,6,6,0,0,1,1.08-2.14,3.91,3.91,0,0,1,1.58-1.16,5.36,5.36,0,0,1,3.81,0,3.81,3.81,0,0,1,1.57,1.16,6,6,0,0,1,1.07,2.14A11.94,11.94,0,0,1,1104.72,235.73Zm-2.73,0c0-.23,0-.51,0-.83s0-.67-.07-1a7.32,7.32,0,0,0-.19-1,3.55,3.55,0,0,0-.38-.91,1.91,1.91,0,0,0-.61-.65,1.63,1.63,0,0,0-.94-.25,1.67,1.67,0,0,0-.94.25,1.87,1.87,0,0,0-.63.65,3,3,0,0,0-.38.91,9.06,9.06,0,0,0-.19,1,8.76,8.76,0,0,0-.08,1c0,.32,0,.6,0,.83,0,.39,0,.85,0,1.4a8.25,8.25,0,0,0,.24,1.58,3.22,3.22,0,0,0,.66,1.29,1.56,1.56,0,0,0,1.29.54,1.5,1.5,0,0,0,1.27-.54,3.34,3.34,0,0,0,.65-1.29,8.25,8.25,0,0,0,.24-1.58C1102,236.58,1102,236.12,1102,235.73Z"/><path class="cls-7" d="M1093.71,234.23h-2.62a5.82,5.82,0,0,0-.1-1.09,3.31,3.31,0,0,0-.36-1,2,2,0,0,0-.66-.73,1.82,1.82,0,0,0-1-.28,2,2,0,0,0-1.46.55,2.07,2.07,0,0,0-.56,1.53,2.12,2.12,0,0,0,.28,1.1,3.35,3.35,0,0,0,.69.86,7.14,7.14,0,0,0,.91.71c.34.21.65.42,1,.62.57.4,1.12.79,1.64,1.18a7.82,7.82,0,0,1,1.36,1.26,5.32,5.32,0,0,1,.91,1.55,5.45,5.45,0,0,1,.34,2h-9.89v-2.35h6.37a6.06,6.06,0,0,0-1.16-1.21c-.43-.35-.88-.67-1.34-1l-1.38-.91a7.64,7.64,0,0,1-1.22-1,4.63,4.63,0,0,1-.87-1.3,4.24,4.24,0,0,1-.33-1.75,4.1,4.1,0,0,1,.38-1.77,4,4,0,0,1,1-1.33,4.6,4.6,0,0,1,1.47-.83,5.46,5.46,0,0,1,1.76-.29,5.19,5.19,0,0,1,2.15.42,4.17,4.17,0,0,1,1.55,1.15,4.92,4.92,0,0,1,.92,1.74A6.2,6.2,0,0,1,1093.71,234.23Z"/><path class="cls-7" d="M1083.32,235.73a12,12,0,0,1-.4,3.38,5.94,5.94,0,0,1-1.06,2.17,3.88,3.88,0,0,1-1.57,1.15,5.36,5.36,0,0,1-3.81,0,3.91,3.91,0,0,1-1.58-1.15,5.8,5.8,0,0,1-1.08-2.17,12.41,12.41,0,0,1-.39-3.38,11.94,11.94,0,0,1,.39-3.3,5.66,5.66,0,0,1,1.08-2.14,3.84,3.84,0,0,1,1.58-1.16,5.36,5.36,0,0,1,3.81,0,3.81,3.81,0,0,1,1.57,1.16,5.79,5.79,0,0,1,1.06,2.14A11.54,11.54,0,0,1,1083.32,235.73Zm-2.73,0c0-.23,0-.51,0-.83s0-.67-.07-1a7.32,7.32,0,0,0-.19-1,3.55,3.55,0,0,0-.38-.91,1.91,1.91,0,0,0-.61-.65,1.89,1.89,0,0,0-1.88,0,2,2,0,0,0-.64.65,3.22,3.22,0,0,0-.37.91,9.06,9.06,0,0,0-.19,1,8.76,8.76,0,0,0-.08,1c0,.32,0,.6,0,.83,0,.39,0,.85,0,1.4a6.94,6.94,0,0,0,.24,1.58,3.21,3.21,0,0,0,.65,1.29,1.58,1.58,0,0,0,1.3.54,1.52,1.52,0,0,0,1.27-.54,3.34,3.34,0,0,0,.65-1.29,8.25,8.25,0,0,0,.24-1.58C1080.57,236.58,1080.59,236.12,1080.59,235.73Z"/><path class="cls-7" d="M1071.87,239.56v3h-3v-3Z"/></g><g id="Calendar"><g id="Shape"><rect class="cls-5" x="374.34" y="118.1" width="529.69" height="981.22" transform="translate(1247.89 -30.47) rotate(90)"/><polygon class="cls-3" points="1129.79 873.55 915.95 741.13 1129.79 343.87 1129.79 873.55"/><polygon class="cls-3" points="148.57 343.87 362.41 741.13 148.57 873.55 148.57 343.87"/><polygon class="cls-4" points="915.95 741.13 1129.79 873.55 148.57 873.55 362.41 741.13 915.95 741.13"/></g><g id="Rings"><rect class="cls-2" x="164.9" y="358.24" width="41.09" height="23.64" rx="1.1"/><line class="cls-8" x1="177.28" y1="316.2" x2="177.28" y2="370.02"/><line class="cls-8" x1="193.6" y1="316.2" x2="193.6" y2="370.02"/><rect class="cls-2" x="247.07" y="358.24" width="41.09" height="23.64" rx="1.1"/><line class="cls-8" x1="259.46" y1="316.2" x2="259.46" y2="370.02"/><line class="cls-8" x1="275.77" y1="316.2" x2="275.77" y2="370.02"/><rect class="cls-2" x="329.25" y="358.24" width="41.09" height="23.64" rx="1.1"/><line class="cls-8" x1="341.63" y1="316.2" x2="341.63" y2="370.02"/><line class="cls-8" x1="357.95" y1="316.2" x2="357.95" y2="370.02"/><rect class="cls-2" x="411.42" y="358.24" width="41.09" height="23.64" rx="1.1"/><line class="cls-8" x1="423.81" y1="316.2" x2="423.81" y2="370.02"/><line class="cls-8" x1="440.13" y1="316.2" x2="440.13" y2="370.02"/><rect class="cls-2" x="493.6" y="359.31" width="41.09" height="23.64" rx="1.1"/><line class="cls-8" x1="505.99" y1="317.27" x2="505.99" y2="371.09"/><line class="cls-8" x1="522.3" y1="317.27" x2="522.3" y2="371.09"/><rect class="cls-2" x="575.78" y="359.31" width="41.09" height="23.64" rx="1.1"/><line class="cls-8" x1="588.16" y1="317.27" x2="588.16" y2="371.09"/><line class="cls-8" x1="604.48" y1="317.27" x2="604.48" y2="371.09"/><rect class="cls-2" x="657.95" y="359.31" width="41.09" height="23.64" rx="1.1"/><line class="cls-8" x1="670.34" y1="317.27" x2="670.34" y2="371.09"/><line class="cls-8" x1="686.66" y1="317.27" x2="686.66" y2="371.09"/><rect class="cls-2" x="740.13" y="359.31" width="41.09" height="23.64" rx="1.1"/><line class="cls-8" x1="752.51" y1="317.27" x2="752.51" y2="371.09"/><line class="cls-8" x1="768.83" y1="317.27" x2="768.83" y2="371.09"/><rect class="cls-2" x="822.31" y="359.31" width="41.09" height="23.64" rx="1.1"/><line class="cls-8" x1="834.69" y1="317.27" x2="834.69" y2="371.09"/><line class="cls-8" x1="851.01" y1="317.27" x2="851.01" y2="371.09"/><rect class="cls-2" x="904.48" y="359.31" width="41.09" height="23.64" rx="1.1"/><line class="cls-8" x1="916.87" y1="317.27" x2="916.87" y2="371.09"/><line class="cls-8" x1="933.18" y1="317.27" x2="933.18" y2="371.09"/><rect class="cls-2" x="986.66" y="359.31" width="41.09" height="23.64" rx="1.1"/><line class="cls-8" x1="999.04" y1="317.27" x2="999.04" y2="371.09"/><line class="cls-8" x1="1015.36" y1="317.27" x2="1015.36" y2="371.09"/><rect class="cls-2" x="1068.84" y="359.31" width="41.09" height="23.64" rx="1.1"/><line class="cls-8" x1="1081.22" y1="317.27" x2="1081.22" y2="371.09"/><line class="cls-8" x1="1097.54" y1="317.27" x2="1097.54" y2="371.09"/></g><g id="Days_numbers" data-name="Days &amp; numbers"><path class="cls-2" d="M912.19,473.76v17.82h-3.72V479.07h-.05L904,491.58h-3.07L896.51,479h0v12.63h-3.72V473.76h5.59l4,12.25h0l4.22-12.25Z"/><path class="cls-2" d="M890,482.74a10.72,10.72,0,0,1-.61,3.63,8.77,8.77,0,0,1-1.75,2.94,7.88,7.88,0,0,1-2.79,1.95,10,10,0,0,1-7.47,0,7.84,7.84,0,0,1-2.78-1.95,8.77,8.77,0,0,1-1.75-2.94,10.72,10.72,0,0,1-.61-3.63,11,11,0,0,1,.61-3.7,9,9,0,0,1,1.75-3,7.81,7.81,0,0,1,2.78-2,9.92,9.92,0,0,1,7.47,0,7.85,7.85,0,0,1,2.79,2,9,9,0,0,1,1.75,3A11,11,0,0,1,890,482.74Zm-4,0a9.47,9.47,0,0,0-.27-2.27,6.07,6.07,0,0,0-.85-2,4.24,4.24,0,0,0-1.51-1.37,5.35,5.35,0,0,0-4.56,0,4.33,4.33,0,0,0-1.51,1.37,6.07,6.07,0,0,0-.85,2,9.47,9.47,0,0,0-.27,2.27,8.88,8.88,0,0,0,.27,2.19,5.85,5.85,0,0,0,.85,1.9,4.42,4.42,0,0,0,1.51,1.37,5.35,5.35,0,0,0,4.56,0,4.33,4.33,0,0,0,1.51-1.37,5.85,5.85,0,0,0,.85-1.9A8.88,8.88,0,0,0,886.07,482.74Z"/><path class="cls-2" d="M869.58,473.76v17.82h-3.72V479.65h-.05l-7.51,11.93h-4V473.76h3.72v11.95h.05l7.53-11.95Z"/><path class="cls-2" d="M820.26,476.5V491h-4V476.5h-5.41v-3.3h14.8v3.3Z"/><path class="cls-2" d="M793.48,484.28V473.2h4v11.08a4.45,4.45,0,0,0,.8,2.94,3.78,3.78,0,0,0,2.94.93,4.51,4.51,0,0,0,1.93-.34,2.88,2.88,0,0,0,1.13-.87,3,3,0,0,0,.53-1.23,8.45,8.45,0,0,0,.13-1.43V473.2h4v11.08q0,3.64-2,5.39a10,10,0,0,1-11.34,0A6.71,6.71,0,0,1,793.48,484.28Z"/><path class="cls-2" d="M790.07,473.2V491h-13.7v-3.29h9.73v-4.37h-8.75v-3.05h8.75V476.5h-9.53v-3.3Z"/><path class="cls-2" d="M729.32,491.3l-4.86-17.82h3.89l3,12.28h.05l3.09-12.28h3.72l3.13,12.13h.05l2.86-12.13h4L743.4,491.3h-4l-3-12.13h0l-3.06,12.13Z"/><path class="cls-2" d="M722.64,473.48V491.3H708.93V488h9.74v-4.36h-8.75v-3.05h8.75v-3.82h-9.53v-3.29Z"/><path class="cls-2" d="M706.25,473.48V491.3h-7.78a8.71,8.71,0,0,1-3.61-.69,7,7,0,0,1-2.55-1.88,7.83,7.83,0,0,1-1.53-2.85,12,12,0,0,1-.51-3.59,11.06,11.06,0,0,1,.62-3.87,7.54,7.54,0,0,1,1.72-2.74,7,7,0,0,1,2.61-1.65,9.28,9.28,0,0,1,3.25-.55Zm-4,14.52V476.77h-2.83a6.32,6.32,0,0,0-2.46.42,3.82,3.82,0,0,0-1.61,1.18,5,5,0,0,0-.87,1.86,10.16,10.16,0,0,0-.27,2.43,7.27,7.27,0,0,0,.38,2.5,4.61,4.61,0,0,0,1,1.66,3.74,3.74,0,0,0,1.44.91,5.26,5.26,0,0,0,1.67.27Z"/><path class="cls-2" d="M657.77,476.43V491h-4V476.43h-5.41v-3.29h14.8v3.29Z"/><path class="cls-2" d="M646.32,473.14V491h-4v-7.69H635V491h-4V473.14h4V480h7.31v-6.84Z"/><path class="cls-2" d="M612.26,484.22V473.14h4v11.08a4.46,4.46,0,0,0,.8,2.93,3.75,3.75,0,0,0,2.94.94,4.51,4.51,0,0,0,1.93-.34,2.88,2.88,0,0,0,1.13-.87,2.82,2.82,0,0,0,.53-1.24,7.43,7.43,0,0,0,.13-1.42V473.14h4v11.08q0,3.64-2,5.39a10.05,10.05,0,0,1-11.35,0C612.94,488.43,612.26,486.63,612.26,484.22Z"/><path class="cls-2" d="M574.54,473.82v17.82h-4v-7.36H563v-3h7.56v-4.12h-8.73v-3.29Z"/><path class="cls-2" d="M559.54,473.82v17.82h-4v-7h-4a3,3,0,0,0-2.15.64,3.58,3.58,0,0,0-.86,2.05c-.1.72-.17,1.46-.22,2.25a6.81,6.81,0,0,1-.41,2h-4a2.47,2.47,0,0,0,.42-.91,8,8,0,0,0,.2-1.14q.06-.6.09-1.17c0-.39,0-.72,0-1a10.44,10.44,0,0,1,.19-1.35,4.38,4.38,0,0,1,.44-1.23,3.41,3.41,0,0,1,.79-1,3.21,3.21,0,0,1,1.21-.61v-.05a4.21,4.21,0,0,1-2.19-1.75,5.25,5.25,0,0,1-.67-2.72,4.8,4.8,0,0,1,.37-1.9,4.41,4.41,0,0,1,1.06-1.56,4.87,4.87,0,0,1,1.67-1.06,5.85,5.85,0,0,1,2.19-.39Zm-4,8.06v-5h-4.35a3,3,0,0,0-2,.59,2.34,2.34,0,0,0-.69,1.88,2.46,2.46,0,0,0,.69,1.95,3,3,0,0,0,2,.6Z"/><path class="cls-2" d="M541.29,473.82v17.82h-4V473.82Z"/><path class="cls-2" d="M491.1,485.59h3.84a5.56,5.56,0,0,1-2.31,4.82,7.41,7.41,0,0,1-2.48,1.13,11.17,11.17,0,0,1-2.89.37,10.94,10.94,0,0,1-3.25-.43,7.06,7.06,0,0,1-2.36-1.18,4.85,4.85,0,0,1-1.42-1.81,5.26,5.26,0,0,1-.49-2.27,4.33,4.33,0,0,1,.65-2.46,5.47,5.47,0,0,1,1.53-1.54,6.64,6.64,0,0,1,1.78-.83,13.91,13.91,0,0,1,1.4-.36l2.75-.7a11,11,0,0,0,1.64-.55,1.85,1.85,0,0,0,.8-.6,1.92,1.92,0,0,0-.05-1.8,2,2,0,0,0-.65-.62,2.57,2.57,0,0,0-.87-.35,4.47,4.47,0,0,0-1-.1,7.06,7.06,0,0,0-1.35.12,3.37,3.37,0,0,0-1.1.43,2.17,2.17,0,0,0-.77.82,3,3,0,0,0-.34,1.32h-3.85a5.38,5.38,0,0,1,.6-2.63,5.07,5.07,0,0,1,1.6-1.78,6.85,6.85,0,0,1,2.32-1,11.43,11.43,0,0,1,2.71-.32,9.24,9.24,0,0,1,2.43.33,6.9,6.9,0,0,1,2.18,1,5.41,5.41,0,0,1,1.55,1.68,4.61,4.61,0,0,1,.59,2.39,4.12,4.12,0,0,1-1.69,3.51,6.64,6.64,0,0,1-1.72.94,18.73,18.73,0,0,1-2,.61c-.66.18-1.31.35-1.95.5a14.16,14.16,0,0,0-1.72.52,3.72,3.72,0,0,0-1.22.75,1.53,1.53,0,0,0-.47,1.18,1.75,1.75,0,0,0,.35,1.11,2.41,2.41,0,0,0,.89.68,3.9,3.9,0,0,0,1.13.34,7.91,7.91,0,0,0,1.14.09,6.33,6.33,0,0,0,1.52-.19,4.05,4.05,0,0,0,1.28-.57,2.89,2.89,0,0,0,.87-1A3.19,3.19,0,0,0,491.1,485.59Z"/><path class="cls-2" d="M472.46,473.69l6.83,17.82h-4l-1.41-4h-6.76l-1.36,4h-4.12l6.75-17.82Zm.38,10.93-2.35-6.54h-.05l-2.28,6.54Z"/><path class="cls-2" d="M458.4,477v14.53h-4V477H449v-3.29h14.79V477Z"/><path class="cls-2" d="M414.18,486.08H418a5.89,5.89,0,0,1-.61,2.84,5.52,5.52,0,0,1-1.71,2,7.15,7.15,0,0,1-2.48,1.14,11.56,11.56,0,0,1-2.89.36,11.39,11.39,0,0,1-3.25-.42,6.75,6.75,0,0,1-2.35-1.19,4.9,4.9,0,0,1-1.43-1.81,5.37,5.37,0,0,1-.48-2.27,4.32,4.32,0,0,1,.64-2.46,5.31,5.31,0,0,1,1.53-1.53,7.06,7.06,0,0,1,1.79-.84c.6-.17,1.06-.29,1.4-.36l2.74-.7a9.54,9.54,0,0,0,1.65-.55,1.74,1.74,0,0,0,.79-.6,1.52,1.52,0,0,0,.21-.84,1.64,1.64,0,0,0-.26-.95,2.26,2.26,0,0,0-.64-.63,2.79,2.79,0,0,0-.87-.35,5.32,5.32,0,0,0-1-.1,7.11,7.11,0,0,0-1.35.13,3.23,3.23,0,0,0-1.1.42,2.28,2.28,0,0,0-.77.83,3.08,3.08,0,0,0-.34,1.32h-3.84a5.35,5.35,0,0,1,.59-2.63,5.13,5.13,0,0,1,1.61-1.79,6.91,6.91,0,0,1,2.31-1,11.51,11.51,0,0,1,2.72-.31,9.66,9.66,0,0,1,2.43.32,6.85,6.85,0,0,1,2.17,1,5.37,5.37,0,0,1,1.56,1.69,4.64,4.64,0,0,1,.59,2.38,4.32,4.32,0,0,1-.47,2.08,4.38,4.38,0,0,1-1.22,1.44,6.92,6.92,0,0,1-1.72.93,16.27,16.27,0,0,1-2,.62c-.65.18-1.3.35-1.94.5a12.16,12.16,0,0,0-1.72.52,3.67,3.67,0,0,0-1.23.75,1.56,1.56,0,0,0-.47,1.17,1.68,1.68,0,0,0,.36,1.11,2.51,2.51,0,0,0,.88.69,4.3,4.3,0,0,0,1.14.34,9.25,9.25,0,0,0,1.14.08,6.39,6.39,0,0,0,1.52-.18,3.89,3.89,0,0,0,1.27-.58,2.67,2.67,0,0,0,.87-1A3.19,3.19,0,0,0,414.18,486.08Z"/><path class="cls-2" d="M385.15,485.25V474.17h4v11.08a4.43,4.43,0,0,0,.81,2.94,3.77,3.77,0,0,0,2.93.93,4.74,4.74,0,0,0,1.94-.33,2.88,2.88,0,0,0,1.12-.88,3,3,0,0,0,.54-1.23,8.45,8.45,0,0,0,.12-1.43V474.17h4v11.08q0,3.64-2,5.39a10,10,0,0,1-11.34,0Q385.15,488.88,385.15,485.25Z"/><path class="cls-2" d="M381.74,474.17V492H378V480.06h0L370.46,492h-4V474.17h3.72v12h.05l7.53-12Z"/><path d="M743.91,524.92v12.19h-3.6V519.44h2.94a2.9,2.9,0,0,0,.13.71,3.11,3.11,0,0,0,.69,1.26,3.32,3.32,0,0,0,1.73.93,15.46,15.46,0,0,0,2.32.22v2.36Z"/><path d="M663.19,537.11H650.93v-3.06h7.81a3.6,3.6,0,0,0-.82-1c-.32-.28-.93-.73-1.81-1.34l-1.41-1a11.6,11.6,0,0,1-2.56-2.26A5.5,5.5,0,0,1,651,525a5.32,5.32,0,0,1,1.68-4.11,6.38,6.38,0,0,1,4.52-1.56q3.6,0,5,2.65a8.36,8.36,0,0,1,.83,3.64h-3.42a5.64,5.64,0,0,0-.4-2.17,2.19,2.19,0,0,0-2.18-1.18,2.24,2.24,0,0,0-1.8.74,2.8,2.8,0,0,0-.63,1.87,3.6,3.6,0,0,0,1.09,2.53,25.45,25.45,0,0,0,3.15,2.46,9.94,9.94,0,0,1,3.56,3.74A8.33,8.33,0,0,1,663.19,537.11Z"/><path d="M574.54,531.25a7.22,7.22,0,0,1-.87,3.41q-1.47,2.45-5.28,2.45a6,6,0,0,1-4.65-1.7,5.63,5.63,0,0,1-1.57-3.94,4.32,4.32,0,0,1,1.34-3.37,2.55,2.55,0,0,1,1.38-.81,3.28,3.28,0,0,1-1.23-.92,3.82,3.82,0,0,1-.94-2.63,4.35,4.35,0,0,1,1.57-3.52,6.28,6.28,0,0,1,4.14-1.31,7.14,7.14,0,0,1,2.33.33,4.84,4.84,0,0,1,1.64,1,5.7,5.7,0,0,1,1.36,1.92,8.93,8.93,0,0,1,.46,2.5h-3.29a3.28,3.28,0,0,0-.56-2.09,2.14,2.14,0,0,0-1.83-.78,2.18,2.18,0,0,0-1.68.64,2.29,2.29,0,0,0-.6,1.64,2,2,0,0,0,1.17,2.07,6.87,6.87,0,0,0,2.39.33v2.49a7.31,7.31,0,0,0-2.56.33,2.27,2.27,0,0,0-1.43,2.32,2.52,2.52,0,0,0,2.58,2.72,2.36,2.36,0,0,0,2.32-1.28,3.92,3.92,0,0,0,.35-1.75Z"/><path d="M482.38,530.59h2v-11h3.95l6.58,10.72v3h-7.09v3.8h-3.44v-3.8h-2Zm9.94,0L487.85,523v7.61Z"/><path d="M418,532.09a5.3,5.3,0,0,1-1.83,3.84,6.37,6.37,0,0,1-4.19,1.35,5.79,5.79,0,0,1-4.76-1.93,6.68,6.68,0,0,1-1.6-4.37,5.42,5.42,0,0,1,1.66-4.29,5.95,5.95,0,0,1,5.73-1.2,7.57,7.57,0,0,1,1.27.7l-.64-3.86h-7.31v-3h9.85l1.26,9.76-3.16.14a2.19,2.19,0,0,0-1.24-1.08A3.42,3.42,0,0,0,412,528a2.26,2.26,0,0,0-2,.93,4,4,0,0,0-.64,2.29,3.64,3.64,0,0,0,.69,2.28,2.67,2.67,0,0,0,3.71.3,3.4,3.4,0,0,0,.8-1.75Z"/><path d="M900.06,566.61a4.78,4.78,0,0,1,1.66-3.36,6,6,0,0,1,4-1.26,5.48,5.48,0,0,1,3,.78,6.19,6.19,0,0,1,2,2.06,9.92,9.92,0,0,1,1.19,3.75,24.31,24.31,0,0,1,.18,3.29,11.26,11.26,0,0,1-1.25,5.63,5.35,5.35,0,0,1-5,2.79,5.54,5.54,0,0,1-4.64-1.89,6.81,6.81,0,0,1-1.5-4.36A5.64,5.64,0,0,1,901.2,570a5.16,5.16,0,0,1,3.91-1.6,5.05,5.05,0,0,1,2,.36,3.91,3.91,0,0,1,1.52,1.12,11.89,11.89,0,0,0-.54-3.1,2.53,2.53,0,0,0-2.45-1.9,1.94,1.94,0,0,0-1.71.83,1.69,1.69,0,0,0-.34.94Zm8.45,7.63a3,3,0,0,0-1-2.56,2.52,2.52,0,0,0-1.6-.54A2.48,2.48,0,0,0,904,572a3.36,3.36,0,0,0-.77,2.37,3.64,3.64,0,0,0,.67,2.26,2.2,2.2,0,0,0,1.85.88,2.51,2.51,0,0,0,2-.91A3.4,3.4,0,0,0,908.51,574.24Z"/><path d="M813,562.85h12.65l0,3.12h-8.92a24,24,0,0,1,3.25,4.44,21.06,21.06,0,0,1,3.16,9.88h-3.65a16.81,16.81,0,0,0-.61-3.9,25,25,0,0,0-1.36-4,24.19,24.19,0,0,0-2.36-4.06,22.75,22.75,0,0,0-2.21-2.74Z"/><path d="M748.18,574.93a5.18,5.18,0,0,1-1.55,3.8,6.1,6.1,0,0,1-4.54,1.56,6.58,6.58,0,0,1-4.68-1.56,5,5,0,0,1-1.68-3.8,5.5,5.5,0,0,1,.67-2.69,5,5,0,0,1,2-1.94,3.62,3.62,0,0,1-1.69-1.72,5.37,5.37,0,0,1-.38-1.86,4.32,4.32,0,0,1,1.47-3.29,7,7,0,0,1,8.31,0,4.3,4.3,0,0,1,1.48,3.29,5.17,5.17,0,0,1-.39,1.86,4.16,4.16,0,0,1-1.7,1.84,4.32,4.32,0,0,1,2,1.82A5.4,5.4,0,0,1,748.18,574.93Zm-3.66-.23a2.79,2.79,0,0,0-.69-2.05,2.89,2.89,0,0,0-3.77,0,3.33,3.33,0,0,0,0,4.07,2.85,2.85,0,0,0,3.79,0A2.79,2.79,0,0,0,744.52,574.7Zm-.3-7.59a2.19,2.19,0,0,0-.6-1.64,2.26,2.26,0,0,0-1.67-.59,2,2,0,0,0-2.25,2.23,2.14,2.14,0,0,0,.59,1.57,2.17,2.17,0,0,0,1.66.61,2.23,2.23,0,0,0,1.67-.61A2.15,2.15,0,0,0,744.22,567.11Z"/><path d="M663.19,568.33a5.27,5.27,0,0,1-1.66,4.19,5.52,5.52,0,0,1-3.79,1.46,4.7,4.7,0,0,1-2.43-.58,4,4,0,0,1-1-.92,10.91,10.91,0,0,0,.49,3.06,2.49,2.49,0,0,0,2.44,1.9,2.09,2.09,0,0,0,1.45-.49,2,2,0,0,0,.66-1.26h3.51a4.65,4.65,0,0,1-1.84,3.43,6,6,0,0,1-3.62,1.17,5.78,5.78,0,0,1-5.8-4.08,15,15,0,0,1-.83-5.35,13.81,13.81,0,0,1,.86-5.32,5.59,5.59,0,0,1,5.61-3.57,5.65,5.65,0,0,1,4.32,1.76A6.4,6.4,0,0,1,663.19,568.33ZM657,571.15a2.44,2.44,0,0,0,2-.78,3.67,3.67,0,0,0,.65-2.36,3.13,3.13,0,0,0-1-2.64,2.42,2.42,0,0,0-1.55-.5,2.37,2.37,0,0,0-1.94.87,3.71,3.71,0,0,0-.71,2.38,2.85,2.85,0,0,0,1.2,2.62A2.42,2.42,0,0,0,657,571.15Z"/><path d="M570.33,567.51V579.7h-3.61V562h2.94a2.9,2.9,0,0,0,.14.7,2.93,2.93,0,0,0,.69,1.27,3.32,3.32,0,0,0,1.72.93,17,17,0,0,0,2.33.22v2.36Z"/><path d="M555.26,561.9c2.28,0,3.88.8,4.8,2.38a17.17,17.17,0,0,1,0,13.49c-.92,1.58-2.52,2.36-4.8,2.36s-3.88-.78-4.79-2.36a17.17,17.17,0,0,1,0-13.49C551.38,562.7,553,561.9,555.26,561.9Zm2.58,9.13a16.61,16.61,0,0,0-.5-4.73,2,2,0,0,0-2.08-1.53,2,2,0,0,0-2,1.53,22.74,22.74,0,0,0,0,9.39,2,2,0,0,0,2,1.62,2,2,0,0,0,2.08-1.62A16.72,16.72,0,0,0,557.84,571Z"/><path d="M490.73,568.11v12.18h-3.6V562.62h2.93a3,3,0,0,0,.14.71,3.15,3.15,0,0,0,.69,1.27,3.27,3.27,0,0,0,1.72.92,15.64,15.64,0,0,0,2.33.22v2.37Z"/><path d="M478.05,568.11v12.18h-3.61V562.62h2.94a3,3,0,0,0,.14.71,3.15,3.15,0,0,0,.69,1.27,3.27,3.27,0,0,0,1.72.92,15.64,15.64,0,0,0,2.33.22v2.37Z"/><path d="M413.82,568.11v12.18h-3.61V562.62h2.94a3,3,0,0,0,.14.71,3,3,0,0,0,.68,1.27,3.3,3.3,0,0,0,1.73.92,15.49,15.49,0,0,0,2.33.22v2.37Z"/><path d="M404.93,580.29H392.66v-3.06h7.82a3.94,3.94,0,0,0-.82-1c-.33-.27-.93-.72-1.81-1.34l-1.41-1a11.6,11.6,0,0,1-2.56-2.25,5.49,5.49,0,0,1-1.19-3.49,5.34,5.34,0,0,1,1.68-4.11,6.43,6.43,0,0,1,4.52-1.55q3.6,0,5,2.64a8.41,8.41,0,0,1,.83,3.65h-3.42a5.55,5.55,0,0,0-.4-2.17,2.19,2.19,0,0,0-2.18-1.19,2.24,2.24,0,0,0-1.81.75,2.82,2.82,0,0,0-.62,1.86,3.62,3.62,0,0,0,1.09,2.54,27.62,27.62,0,0,0,3.15,2.46,9.8,9.8,0,0,1,3.56,3.74A8.32,8.32,0,0,1,404.93,580.29Z"/><path d="M906.72,611.43v12.18h-3.61V605.94h2.94a3.6,3.6,0,0,0,.83,2,3.24,3.24,0,0,0,1.72.92,15.49,15.49,0,0,0,2.33.22v2.37Z"/><path d="M898,618.19a7.22,7.22,0,0,1-.86,3.41q-1.49,2.45-5.28,2.45a6.05,6.05,0,0,1-4.66-1.7,5.62,5.62,0,0,1-1.57-3.94,4.38,4.38,0,0,1,1.34-3.37,2.6,2.6,0,0,1,1.39-.81,3.2,3.2,0,0,1-1.24-.92,3.87,3.87,0,0,1-.94-2.63,4.33,4.33,0,0,1,1.58-3.51,6.18,6.18,0,0,1,4.13-1.31,7.21,7.21,0,0,1,2.34.33,4.68,4.68,0,0,1,1.64.95,5.53,5.53,0,0,1,1.35,1.91,8.58,8.58,0,0,1,.46,2.5h-3.28a3.34,3.34,0,0,0-.56-2.09,2.14,2.14,0,0,0-1.83-.78,2.22,2.22,0,0,0-1.69.64,2.32,2.32,0,0,0-.59,1.64,2,2,0,0,0,1.17,2.07,6.36,6.36,0,0,0,2.38.33v2.49a7.35,7.35,0,0,0-2.56.33,2.26,2.26,0,0,0-1.42,2.33,2.52,2.52,0,0,0,2.57,2.71,2.36,2.36,0,0,0,2.33-1.28,3.9,3.9,0,0,0,.34-1.75Z"/><path d="M820.52,611.38v12.19h-3.61V605.9h2.94a3,3,0,0,0,.14.71,2.89,2.89,0,0,0,.69,1.26,3.18,3.18,0,0,0,1.72.93,15.49,15.49,0,0,0,2.33.22v2.36Z"/><path d="M799.19,617.05h2V606h3.95l6.58,10.72v3h-7.09v3.8h-3.44v-3.8h-2Zm9.94,0-4.47-7.61v7.61Z"/><path d="M744,611.4v12.19h-3.61V605.92h2.94a2.9,2.9,0,0,0,.14.7,2.93,2.93,0,0,0,.69,1.27,3.36,3.36,0,0,0,1.72.93,15.49,15.49,0,0,0,2.33.22v2.36Z"/><path d="M735.2,618.86a5.22,5.22,0,0,1-1.82,3.84,6.42,6.42,0,0,1-4.2,1.35,5.8,5.8,0,0,1-4.76-1.93,6.67,6.67,0,0,1-1.59-4.37,5.45,5.45,0,0,1,1.65-4.29,5.63,5.63,0,0,1,3.87-1.47,5.38,5.38,0,0,1,1.87.28,7.4,7.4,0,0,1,1.27.69l-.64-3.86h-7.32v-3h9.85l1.26,9.76-3.15.15a2.23,2.23,0,0,0-1.25-1.09,3.62,3.62,0,0,0-1.11-.16,2.24,2.24,0,0,0-2,.94,3.9,3.9,0,0,0-.64,2.28,3.75,3.75,0,0,0,.68,2.29,2.35,2.35,0,0,0,2,.9,2.3,2.3,0,0,0,1.73-.61,3.4,3.4,0,0,0,.8-1.75Z"/><path d="M659,611.26v12.18h-3.61V605.77h2.94a2.53,2.53,0,0,0,.14.71,3,3,0,0,0,.68,1.27,3.3,3.3,0,0,0,1.73.92,15.49,15.49,0,0,0,2.33.22v2.37Z"/><path d="M638.1,610.22a4.78,4.78,0,0,1,1.66-3.36,6,6,0,0,1,4-1.26,5.48,5.48,0,0,1,3,.78,6.19,6.19,0,0,1,2,2.06,9.92,9.92,0,0,1,1.19,3.75,24.42,24.42,0,0,1,.18,3.29,11.26,11.26,0,0,1-1.25,5.63,5.35,5.35,0,0,1-5,2.79,5.57,5.57,0,0,1-4.64-1.88,6.84,6.84,0,0,1-1.5-4.37,5.66,5.66,0,0,1,1.53-4.08,5.18,5.18,0,0,1,3.91-1.6,5.05,5.05,0,0,1,2,.36,3.91,3.91,0,0,1,1.52,1.12,11.89,11.89,0,0,0-.54-3.1,2.54,2.54,0,0,0-2.45-1.9,1.93,1.93,0,0,0-1.71.83,1.69,1.69,0,0,0-.34.94Zm8.45,7.63a3,3,0,0,0-1-2.56,2.52,2.52,0,0,0-1.6-.54,2.45,2.45,0,0,0-1.87.83,3.33,3.33,0,0,0-.77,2.37,3.68,3.68,0,0,0,.67,2.26,2.22,2.22,0,0,0,1.85.87,2.51,2.51,0,0,0,2-.9A3.5,3.5,0,0,0,646.55,617.85Z"/><path d="M570.33,611.86v12.19h-3.61V606.38h2.94a3,3,0,0,0,.14.71,2.83,2.83,0,0,0,.69,1.26,3.18,3.18,0,0,0,1.72.93,15.49,15.49,0,0,0,2.33.22v2.36Z"/><path d="M548.89,606.61h12.65l0,3.12h-8.91a24,24,0,0,1,3.25,4.44,21.06,21.06,0,0,1,3.16,9.88h-3.66a16.56,16.56,0,0,0-.6-3.9,25,25,0,0,0-1.36-4,24.25,24.25,0,0,0-2.37-4.06,21.21,21.21,0,0,0-2.2-2.74Z"/><path d="M490.73,611.21V623.4h-3.6V605.73h2.93a3,3,0,0,0,.14.71,3,3,0,0,0,.69,1.26,3.29,3.29,0,0,0,1.72.93,15.64,15.64,0,0,0,2.33.22v2.36Z"/><path d="M482,618.5a5.21,5.21,0,0,1-1.54,3.8,6.14,6.14,0,0,1-4.55,1.56,6.62,6.62,0,0,1-4.68-1.56,5,5,0,0,1-1.67-3.8,5.4,5.4,0,0,1,.67-2.69,4.9,4.9,0,0,1,2-1.94,3.57,3.57,0,0,1-1.68-1.73,5.08,5.08,0,0,1-.39-1.85,4.32,4.32,0,0,1,1.47-3.29,7,7,0,0,1,8.32,0,4.32,4.32,0,0,1,1.47,3.29,5.08,5.08,0,0,1-.39,1.85,4.1,4.1,0,0,1-1.69,1.85,4.3,4.3,0,0,1,2,1.82A5.3,5.3,0,0,1,482,618.5Zm-3.65-.23a2.79,2.79,0,0,0-.7-2.06,2.87,2.87,0,0,0-3.76,0,2.79,2.79,0,0,0-.7,2.06,2.84,2.84,0,0,0,.68,2,2.5,2.5,0,0,0,1.9.72,2.46,2.46,0,0,0,1.89-.72A2.8,2.8,0,0,0,478.31,618.27Zm-.31-7.59a2.19,2.19,0,0,0-.6-1.64,2.26,2.26,0,0,0-1.67-.59,2,2,0,0,0-2.25,2.23,2.18,2.18,0,0,0,.59,1.57,2.23,2.23,0,0,0,1.66.61,2.27,2.27,0,0,0,1.67-.61A2.15,2.15,0,0,0,478,610.68Z"/><path d="M413.82,611.38v12.18h-3.61V605.89h2.94a3,3,0,0,0,.14.71,3,3,0,0,0,.68,1.27,3.3,3.3,0,0,0,1.73.92A15.49,15.49,0,0,0,418,609v2.37Z"/><path d="M405,612.11a5.3,5.3,0,0,1-1.65,4.2,5.57,5.57,0,0,1-3.79,1.45,4.65,4.65,0,0,1-2.43-.58,3.66,3.66,0,0,1-1-.92,11.35,11.35,0,0,0,.48,3.06,2.51,2.51,0,0,0,2.45,1.9,2,2,0,0,0,2.11-1.75h3.51a4.65,4.65,0,0,1-1.84,3.43,6,6,0,0,1-3.62,1.17,5.8,5.8,0,0,1-5.81-4.08,15,15,0,0,1-.82-5.35,13.66,13.66,0,0,1,.86-5.32,6.18,6.18,0,0,1,9.92-1.81A6.42,6.42,0,0,1,405,612.11Zm-6.21,2.83a2.47,2.47,0,0,0,2-.79,3.65,3.65,0,0,0,.64-2.36,3.12,3.12,0,0,0-1-2.64,2.62,2.62,0,0,0-3.49.37,3.71,3.71,0,0,0-.71,2.38,2.85,2.85,0,0,0,1.2,2.62A2.48,2.48,0,0,0,398.75,614.94Z"/><path d="M912,667.34H899.73v-3.05h7.82a4.06,4.06,0,0,0-.83-1c-.32-.27-.93-.72-1.81-1.34l-1.41-1a11.6,11.6,0,0,1-2.56-2.26,5.52,5.52,0,0,1-1.19-3.48,5.32,5.32,0,0,1,1.69-4.12,6.41,6.41,0,0,1,4.52-1.55c2.4,0,4.06.88,5,2.64a8.27,8.27,0,0,1,.83,3.65h-3.42a5.82,5.82,0,0,0-.39-2.17,2.59,2.59,0,0,0-4-.44,2.79,2.79,0,0,0-.63,1.86,3.63,3.63,0,0,0,1.1,2.54,26.49,26.49,0,0,0,3.15,2.46,9.83,9.83,0,0,1,3.55,3.74A8.17,8.17,0,0,1,912,667.34Z"/><path d="M891.75,649.55c2.28,0,3.88.8,4.8,2.38a17.17,17.17,0,0,1,0,13.49c-.92,1.58-2.52,2.36-4.8,2.36s-3.88-.78-4.79-2.36a17.17,17.17,0,0,1,0-13.49C887.87,650.35,889.47,649.55,891.75,649.55Zm2.58,9.13a16.61,16.61,0,0,0-.5-4.73,2,2,0,0,0-2.08-1.53,2,2,0,0,0-2,1.53,22.74,22.74,0,0,0,0,9.39,2,2,0,0,0,2,1.62,2,2,0,0,0,2.08-1.62A16.72,16.72,0,0,0,894.33,658.68Z"/><path d="M822,667.3H809.78v-3.06h7.81a3.94,3.94,0,0,0-.82-1c-.33-.28-.93-.72-1.81-1.34l-1.41-1A11.87,11.87,0,0,1,811,658.7a5.54,5.54,0,0,1-1.19-3.49,5.34,5.34,0,0,1,1.68-4.11,6.43,6.43,0,0,1,4.52-1.55q3.6,0,5,2.64a8.41,8.41,0,0,1,.83,3.65h-3.42a5.55,5.55,0,0,0-.4-2.17,2.57,2.57,0,0,0-4-.44,2.76,2.76,0,0,0-.63,1.86,3.64,3.64,0,0,0,1.09,2.54,27.62,27.62,0,0,0,3.15,2.46,9.8,9.8,0,0,1,3.56,3.74A8.28,8.28,0,0,1,822,667.3Z"/><path d="M802.8,655.12V667.3h-3.61V649.63h2.94a3.6,3.6,0,0,0,.83,2,3.27,3.27,0,0,0,1.72.92,15.64,15.64,0,0,0,2.33.22v2.37Z"/><path d="M748.18,667.78H735.92v-3.06h7.81a3.94,3.94,0,0,0-.82-1c-.32-.27-.92-.72-1.81-1.34l-1.41-1a11.84,11.84,0,0,1-2.56-2.25,5.54,5.54,0,0,1-1.19-3.48,5.39,5.39,0,0,1,1.68-4.12,6.45,6.45,0,0,1,4.53-1.55c2.4,0,4.06.88,5,2.64a8.41,8.41,0,0,1,.83,3.65h-3.42a5.82,5.82,0,0,0-.39-2.17,2.59,2.59,0,0,0-4-.44,2.78,2.78,0,0,0-.63,1.86,3.63,3.63,0,0,0,1.1,2.54,26.69,26.69,0,0,0,3.15,2.46,9.91,9.91,0,0,1,3.55,3.74A8.17,8.17,0,0,1,748.18,667.78Z"/><path d="M734.12,667.78H721.85v-3.06h7.82a4.18,4.18,0,0,0-.82-1c-.33-.27-.93-.72-1.81-1.34l-1.41-1a11.6,11.6,0,0,1-2.56-2.25,5.54,5.54,0,0,1-1.19-3.48,5.35,5.35,0,0,1,1.68-4.12,6.43,6.43,0,0,1,4.52-1.55q3.6,0,5,2.64a8.55,8.55,0,0,1,.83,3.65H730.5a5.59,5.59,0,0,0-.4-2.17,2.19,2.19,0,0,0-2.18-1.18,2.23,2.23,0,0,0-1.81.74,2.78,2.78,0,0,0-.63,1.86,3.63,3.63,0,0,0,1.1,2.54,27.62,27.62,0,0,0,3.15,2.46,9.87,9.87,0,0,1,3.56,3.74A8.32,8.32,0,0,1,734.12,667.78Z"/><path d="M663.19,667.34H650.93v-3.05h7.81a3.81,3.81,0,0,0-.82-1c-.32-.27-.93-.72-1.81-1.34l-1.41-1a11.6,11.6,0,0,1-2.56-2.26,5.52,5.52,0,0,1-1.19-3.48,5.35,5.35,0,0,1,1.68-4.12,6.43,6.43,0,0,1,4.52-1.55q3.6,0,5,2.64a8.41,8.41,0,0,1,.83,3.65h-3.42a5.59,5.59,0,0,0-.4-2.17,2.19,2.19,0,0,0-2.18-1.18,2.21,2.21,0,0,0-1.8.74,2.79,2.79,0,0,0-.63,1.86,3.62,3.62,0,0,0,1.09,2.54,26.49,26.49,0,0,0,3.15,2.46,9.87,9.87,0,0,1,3.56,3.74A8.32,8.32,0,0,1,663.19,667.34Z"/><path d="M649.25,661.92a7.18,7.18,0,0,1-.87,3.41c-1,1.64-2.74,2.45-5.28,2.45a6,6,0,0,1-4.65-1.7,5.61,5.61,0,0,1-1.58-3.94,4.32,4.32,0,0,1,1.35-3.36,2.52,2.52,0,0,1,1.38-.82,3.17,3.17,0,0,1-1.23-.91,3.84,3.84,0,0,1-.94-2.63A4.34,4.34,0,0,1,639,650.9a6.28,6.28,0,0,1,4.14-1.31,7.14,7.14,0,0,1,2.33.33,4.75,4.75,0,0,1,1.64,1,5.57,5.57,0,0,1,1.36,1.91,8.93,8.93,0,0,1,.46,2.5h-3.29a3.25,3.25,0,0,0-.56-2.08,2.14,2.14,0,0,0-1.83-.78,2.21,2.21,0,0,0-1.68.63,2.29,2.29,0,0,0-.6,1.65,2,2,0,0,0,1.17,2.07,6.87,6.87,0,0,0,2.39.33v2.48a7.27,7.27,0,0,0-2.56.33,2.28,2.28,0,0,0-1.43,2.33,2.61,2.61,0,0,0,.77,2,2.65,2.65,0,0,0,1.81.7,2.38,2.38,0,0,0,2.33-1.28,4.12,4.12,0,0,0,.34-1.76Z"/><path d="M574.54,667.78H562.28v-3.06h7.81a3.94,3.94,0,0,0-.82-1c-.32-.27-.93-.72-1.81-1.34l-1.41-1a11.6,11.6,0,0,1-2.56-2.25,5.54,5.54,0,0,1-1.19-3.48,5.35,5.35,0,0,1,1.68-4.12,6.43,6.43,0,0,1,4.53-1.55q3.59,0,5,2.64a8.41,8.41,0,0,1,.83,3.65h-3.42a5.59,5.59,0,0,0-.4-2.17,2.19,2.19,0,0,0-2.18-1.18,2.21,2.21,0,0,0-1.8.74,2.78,2.78,0,0,0-.63,1.86,3.59,3.59,0,0,0,1.1,2.54,26.3,26.3,0,0,0,3.14,2.46,9.87,9.87,0,0,1,3.56,3.74A8.32,8.32,0,0,1,574.54,667.78Z"/><path d="M548,661.26h2v-11h4L560.6,661v3h-7.09v3.8h-3.45V664h-2Zm9.94,0-4.47-7.61v7.61Z"/><path d="M494.94,667.09H482.68V664h7.82a4,4,0,0,0-.82-1c-.33-.28-.93-.73-1.82-1.34l-1.41-1a12.12,12.12,0,0,1-2.56-2.25,5.54,5.54,0,0,1-1.18-3.49,5.32,5.32,0,0,1,1.68-4.11,6.37,6.37,0,0,1,4.52-1.56c2.4,0,4.07.89,5,2.65a8.37,8.37,0,0,1,.82,3.64h-3.42a5.87,5.87,0,0,0-.39-2.17,2.21,2.21,0,0,0-2.19-1.18,2.24,2.24,0,0,0-1.8.74,2.8,2.8,0,0,0-.63,1.87,3.61,3.61,0,0,0,1.1,2.53,25.45,25.45,0,0,0,3.15,2.46,9.84,9.84,0,0,1,3.55,3.75A8.1,8.1,0,0,1,494.94,667.09Z"/><path d="M481,662.36a5.22,5.22,0,0,1-1.82,3.84,6.42,6.42,0,0,1-4.2,1.35,5.83,5.83,0,0,1-4.76-1.92,6.71,6.71,0,0,1-1.59-4.38,5.47,5.47,0,0,1,1.65-4.29,5.63,5.63,0,0,1,3.87-1.47,5.32,5.32,0,0,1,1.86.28,7.05,7.05,0,0,1,1.28.69l-.65-3.86h-7.31v-3h9.85l1.26,9.76-3.15.15a2.23,2.23,0,0,0-1.25-1.09,3.63,3.63,0,0,0-1.11-.15,2.24,2.24,0,0,0-2,.93,3.9,3.9,0,0,0-.64,2.28,3.68,3.68,0,0,0,.68,2.29,2.35,2.35,0,0,0,2,.9,2.27,2.27,0,0,0,1.72-.61,3.28,3.28,0,0,0,.8-1.75Z"/><path d="M574.54,706.09a7.23,7.23,0,0,1-.87,3.42Q572.2,712,568.39,712a6,6,0,0,1-4.65-1.7,5.64,5.64,0,0,1-1.57-4,4.31,4.31,0,0,1,1.34-3.36,2.59,2.59,0,0,1,1.38-.82,3.14,3.14,0,0,1-1.23-.91,3.84,3.84,0,0,1-.94-2.63,4.35,4.35,0,0,1,1.57-3.52,6.28,6.28,0,0,1,4.14-1.31,7.14,7.14,0,0,1,2.33.33,4.75,4.75,0,0,1,1.64.95,5.66,5.66,0,0,1,1.36,1.91,9,9,0,0,1,.46,2.5h-3.29a3.25,3.25,0,0,0-.56-2.08,2.14,2.14,0,0,0-1.83-.78,2.21,2.21,0,0,0-1.68.63,2.31,2.31,0,0,0-.6,1.65,2,2,0,0,0,1.17,2.07,6.92,6.92,0,0,0,2.39.33v2.48a7.31,7.31,0,0,0-2.56.33,2.28,2.28,0,0,0-1.43,2.33,2.61,2.61,0,0,0,.77,2,2.65,2.65,0,0,0,1.81.7,2.38,2.38,0,0,0,2.33-1.28,4.09,4.09,0,0,0,.34-1.76Z"/><path d="M555.18,699.33v12.19h-3.61V693.85h2.94a2.47,2.47,0,0,0,.14.7,3,3,0,0,0,.68,1.27,3.39,3.39,0,0,0,1.73.93,17,17,0,0,0,2.33.22v2.36Z"/><path d="M418,667.32H405.77v-3.06h7.81a3.94,3.94,0,0,0-.82-1c-.32-.28-.93-.72-1.81-1.34l-1.41-1a11.87,11.87,0,0,1-2.56-2.25,5.54,5.54,0,0,1-1.19-3.49,5.34,5.34,0,0,1,1.68-4.11,6.39,6.39,0,0,1,4.53-1.55q3.58,0,5,2.64a8.4,8.4,0,0,1,.83,3.64h-3.42a5.64,5.64,0,0,0-.4-2.17,2.57,2.57,0,0,0-4-.43,2.76,2.76,0,0,0-.63,1.86,3.6,3.6,0,0,0,1.09,2.53,26.22,26.22,0,0,0,3.15,2.47,9.8,9.8,0,0,1,3.56,3.74A8.28,8.28,0,0,1,418,667.32Z"/><path d="M392,654.1a4.79,4.79,0,0,1,1.67-3.36,5.94,5.94,0,0,1,4-1.26,5.48,5.48,0,0,1,3,.78,6.16,6.16,0,0,1,2,2.06,9.92,9.92,0,0,1,1.2,3.75,24.55,24.55,0,0,1,.17,3.29,11.26,11.26,0,0,1-1.24,5.63,5.36,5.36,0,0,1-5,2.79,5.58,5.58,0,0,1-4.65-1.89,6.84,6.84,0,0,1-1.49-4.36,5.64,5.64,0,0,1,1.53-4.08,5.58,5.58,0,0,1,5.88-1.24,3.91,3.91,0,0,1,1.52,1.12,11.41,11.41,0,0,0-.55-3.1,2.53,2.53,0,0,0-2.44-1.9,2,2,0,0,0-1.72.83,1.75,1.75,0,0,0-.33.94Zm8.46,7.63a3,3,0,0,0-1-2.56,2.59,2.59,0,0,0-3.47.28,3.36,3.36,0,0,0-.76,2.37,3.62,3.62,0,0,0,.67,2.27,2.22,2.22,0,0,0,1.85.87,2.45,2.45,0,0,0,2-.91A3.41,3.41,0,0,0,400.43,661.73Z"/><path d="M912.19,712H899.93V708.9h7.81a3.81,3.81,0,0,0-.82-1c-.32-.27-.93-.72-1.81-1.34l-1.41-1a11.6,11.6,0,0,1-2.56-2.26,5.52,5.52,0,0,1-1.19-3.48,5.35,5.35,0,0,1,1.68-4.12,6.43,6.43,0,0,1,4.53-1.55q3.58,0,5,2.64a8.44,8.44,0,0,1,.83,3.65h-3.42a5.59,5.59,0,0,0-.4-2.17,2.19,2.19,0,0,0-2.18-1.18,2.24,2.24,0,0,0-1.8.74,2.8,2.8,0,0,0-.63,1.87,3.59,3.59,0,0,0,1.1,2.53,24.32,24.32,0,0,0,3.14,2.46,9.87,9.87,0,0,1,3.56,3.74A8.33,8.33,0,0,1,912.19,712Z"/><path d="M885.58,694.52h12.64l0,3.12h-8.92a22.64,22.64,0,0,1,3.25,4.43,21.11,21.11,0,0,1,3.17,9.89h-3.66a16.14,16.14,0,0,0-.61-3.9,23,23,0,0,0-1.36-4,23.9,23.9,0,0,0-2.36-4.06,22.75,22.75,0,0,0-2.2-2.74Z"/><path d="M825.58,711H813.32V708h7.82a4.22,4.22,0,0,0-.83-1c-.32-.28-.93-.72-1.81-1.34l-1.41-1a11.87,11.87,0,0,1-2.56-2.25,5.54,5.54,0,0,1-1.19-3.49,5.34,5.34,0,0,1,1.68-4.11,6.39,6.39,0,0,1,4.53-1.55c2.4,0,4.06.88,5,2.64a8.26,8.26,0,0,1,.83,3.64H822a5.76,5.76,0,0,0-.39-2.16,2.58,2.58,0,0,0-4-.44,2.76,2.76,0,0,0-.63,1.86,3.65,3.65,0,0,0,1.1,2.54,27.62,27.62,0,0,0,3.15,2.46,9.76,9.76,0,0,1,3.55,3.74A8.14,8.14,0,0,1,825.58,711Z"/><path d="M811.64,706.11a5.18,5.18,0,0,1-1.55,3.8,6.1,6.1,0,0,1-4.54,1.56,6.58,6.58,0,0,1-4.68-1.56,5,5,0,0,1-1.68-3.8,5.5,5.5,0,0,1,.67-2.69,5,5,0,0,1,2-1.94,3.62,3.62,0,0,1-1.69-1.72,5.28,5.28,0,0,1-.38-1.86,4.33,4.33,0,0,1,1.47-3.29,7.07,7.07,0,0,1,8.31,0,4.31,4.31,0,0,1,1.48,3.29,5.09,5.09,0,0,1-.39,1.86,4.16,4.16,0,0,1-1.7,1.84,4.32,4.32,0,0,1,2,1.82A5.4,5.4,0,0,1,811.64,706.11Zm-3.66-.23a2.79,2.79,0,0,0-.69-2,2.89,2.89,0,0,0-3.77,0,3.33,3.33,0,0,0,0,4.07,2.85,2.85,0,0,0,3.79,0A2.79,2.79,0,0,0,808,705.88Zm-.3-7.59a2.19,2.19,0,0,0-.6-1.64,2.31,2.31,0,0,0-1.67-.59,2.24,2.24,0,0,0-1.66.59,2.19,2.19,0,0,0-.59,1.64,2.14,2.14,0,0,0,.59,1.57,2.17,2.17,0,0,0,1.66.61,2.24,2.24,0,0,0,1.67-.61A2.15,2.15,0,0,0,807.68,698.29Z"/><path d="M748.18,711.47H735.92v-3.06h7.81a3.6,3.6,0,0,0-.82-1c-.32-.28-.93-.73-1.81-1.34l-1.41-1a11.6,11.6,0,0,1-2.56-2.26,5.5,5.5,0,0,1-1.19-3.48,5.32,5.32,0,0,1,1.68-4.11,6.39,6.39,0,0,1,4.53-1.56c2.4,0,4.06.88,5,2.65A8.36,8.36,0,0,1,748,700h-3.42a5.87,5.87,0,0,0-.39-2.17,2.21,2.21,0,0,0-2.19-1.18,2.24,2.24,0,0,0-1.8.74,2.8,2.8,0,0,0-.63,1.87,3.61,3.61,0,0,0,1.1,2.53,24.66,24.66,0,0,0,3.15,2.46,10,10,0,0,1,3.55,3.74A8.18,8.18,0,0,1,748.18,711.47Z"/><path d="M734.15,700a5.3,5.3,0,0,1-1.65,4.2,5.58,5.58,0,0,1-3.79,1.46,4.72,4.72,0,0,1-2.44-.59,3.72,3.72,0,0,1-1-.91,11.35,11.35,0,0,0,.48,3.06,2.52,2.52,0,0,0,2.45,1.9,2,2,0,0,0,1.44-.49,2.08,2.08,0,0,0,.67-1.27h3.5A4.55,4.55,0,0,1,732,710.8a5.92,5.92,0,0,1-3.61,1.18,5.8,5.8,0,0,1-5.81-4.08,15,15,0,0,1-.82-5.35,13.71,13.71,0,0,1,.86-5.33,5.58,5.58,0,0,1,5.61-3.57,5.67,5.67,0,0,1,4.31,1.76A6.43,6.43,0,0,1,734.15,700Zm-6.21,2.83a2.44,2.44,0,0,0,2-.79,3.64,3.64,0,0,0,.64-2.35,3.13,3.13,0,0,0-1-2.65,2.45,2.45,0,0,0-1.54-.5,2.38,2.38,0,0,0-1.95.88,3.69,3.69,0,0,0-.71,2.38,2.86,2.86,0,0,0,1.2,2.62A2.55,2.55,0,0,0,727.94,702.84Z"/><path d="M663.19,706.11a7.15,7.15,0,0,1-.87,3.41c-1,1.64-2.74,2.45-5.28,2.45a6,6,0,0,1-4.65-1.7,5.61,5.61,0,0,1-1.58-3.94,4.32,4.32,0,0,1,1.35-3.36,2.52,2.52,0,0,1,1.38-.82,3.17,3.17,0,0,1-1.23-.91,3.84,3.84,0,0,1-.94-2.63,4.34,4.34,0,0,1,1.57-3.52,6.28,6.28,0,0,1,4.14-1.31,7.14,7.14,0,0,1,2.33.33,4.75,4.75,0,0,1,1.64.95,5.57,5.57,0,0,1,1.36,1.91,8.93,8.93,0,0,1,.46,2.5h-3.29a3.25,3.25,0,0,0-.56-2.08,2.14,2.14,0,0,0-1.83-.78,2.21,2.21,0,0,0-1.68.63,2.29,2.29,0,0,0-.6,1.65,2,2,0,0,0,1.17,2.07,6.92,6.92,0,0,0,2.39.33v2.48a7.27,7.27,0,0,0-2.56.33,2.28,2.28,0,0,0-1.43,2.33,2.61,2.61,0,0,0,.77,2,2.65,2.65,0,0,0,1.81.7,2.38,2.38,0,0,0,2.33-1.28,4.12,4.12,0,0,0,.34-1.76Z"/><path d="M642.83,693.74c2.28,0,3.87.8,4.79,2.38a17.17,17.17,0,0,1,0,13.49c-.92,1.58-2.51,2.36-4.79,2.36s-3.88-.78-4.8-2.36a17.17,17.17,0,0,1,0-13.49C639,694.54,640.55,693.74,642.83,693.74Zm2.58,9.13a16.18,16.18,0,0,0-.51-4.73,2,2,0,0,0-2.07-1.53,2,2,0,0,0-2.06,1.53,22.74,22.74,0,0,0,0,9.39,2,2,0,0,0,2.06,1.62,2,2,0,0,0,2.07-1.62A16.29,16.29,0,0,0,645.41,702.87Z"/></g><g id="Calendar_title" data-name="Calendar title"><path class="cls-2" d="M894.79,424h-5.41a10.12,10.12,0,0,1,1.21-3.86,9.36,9.36,0,0,1,2.44-2.82,10.73,10.73,0,0,1,3.34-1.74,13.13,13.13,0,0,1,4-.59,12.93,12.93,0,0,1,5.24,1,11.22,11.22,0,0,1,3.93,2.8A12.41,12.41,0,0,1,912,423a15.43,15.43,0,0,1,.86,5.21,14.94,14.94,0,0,1-.86,5.11,12.19,12.19,0,0,1-2.45,4.12,11.23,11.23,0,0,1-3.93,2.75,13.09,13.09,0,0,1-5.24,1,12.59,12.59,0,0,1-4.3-.7,10,10,0,0,1-3.41-2,10.23,10.23,0,0,1-2.35-3.22,12.66,12.66,0,0,1-1.1-4.25h5.4a7.12,7.12,0,0,0,1.76,4.07,5.19,5.19,0,0,0,4,1.54,6.58,6.58,0,0,0,3.2-.71,6,6,0,0,0,2.13-1.92,8,8,0,0,0,1.19-2.68,12.53,12.53,0,0,0,.38-3.07,13.46,13.46,0,0,0-.38-3.19,8.23,8.23,0,0,0-1.19-2.75,5.91,5.91,0,0,0-2.13-1.93,6.58,6.58,0,0,0-3.2-.72,5.9,5.9,0,0,0-2,.33,5.67,5.67,0,0,0-1.69.93,5.46,5.46,0,0,0-1.24,1.39A4.21,4.21,0,0,0,894.79,424Z"/><path class="cls-2" d="M878.44,415.58,888,440.63h-5.61l-2-5.58h-9.49L869,440.63h-5.8l9.49-25.05ZM879,431l-3.31-9.19h-.07l-3.2,9.19Z"/><path class="cls-2" d="M861,415.58v25.05H843.07V436h12.37V415.58Z"/><path class="cls-2" d="M840,415.58v25.05H820.68V436h13.69v-6.14h-12.3v-4.28h12.3v-5.37H821v-4.63Z"/><path class="cls-2" d="M816.91,415.58v25.05h-5.22V423.86h-.07l-10.56,16.77h-5.58V415.58h5.23v16.8h.07l10.59-16.8Z"/><path class="cls-2" d="M790.58,415.58v25.05h-11a12.15,12.15,0,0,1-5.06-1A10,10,0,0,1,771,437a11,11,0,0,1-2.15-4,17,17,0,0,1-.71-5,15.4,15.4,0,0,1,.87-5.44,10.59,10.59,0,0,1,2.42-3.86,9.84,9.84,0,0,1,3.66-2.31,13.08,13.08,0,0,1,4.56-.78ZM785,436V420.21h-4a9.25,9.25,0,0,0-3.47.58,5.46,5.46,0,0,0-2.25,1.67,6.79,6.79,0,0,0-1.23,2.61,14.4,14.4,0,0,0-.37,3.42,10.29,10.29,0,0,0,.53,3.51,6.52,6.52,0,0,0,1.42,2.33,5,5,0,0,0,2,1.28A7.18,7.18,0,0,0,780,436Z"/><path class="cls-2" d="M757.31,415.58l9.6,25.05h-5.62l-2-5.58h-9.49l-1.92,5.58H742.1l9.49-25.05Zm.54,15.37-3.31-9.19h-.07l-3.2,9.19Z"/><path class="cls-2" d="M739.9,415.58v25.05h-5.58v-9.79h-5.58a4.25,4.25,0,0,0-3,.91,5,5,0,0,0-1.2,2.88c-.14,1-.25,2.06-.32,3.16a9.52,9.52,0,0,1-.57,2.84H718a3.69,3.69,0,0,0,.59-1.28,11.35,11.35,0,0,0,.28-1.6q.09-.84.12-1.65c0-.54.05-1,.07-1.4a15.36,15.36,0,0,1,.27-1.89,6.53,6.53,0,0,1,.62-1.74,4.92,4.92,0,0,1,1.11-1.37,4.4,4.4,0,0,1,1.7-.86v-.07a5.92,5.92,0,0,1-3.07-2.45,7.45,7.45,0,0,1-1-3.83,7,7,0,0,1,.52-2.68,6.41,6.41,0,0,1,1.49-2.19,7.09,7.09,0,0,1,2.35-1.49,8.31,8.31,0,0,1,3.07-.55Zm-5.58,11.33v-7.05H728.2a4.32,4.32,0,0,0-2.88.83,3.34,3.34,0,0,0-1,2.65,3.49,3.49,0,0,0,1,2.73,4.27,4.27,0,0,0,2.88.84Z"/><path class="cls-2" d="M714.56,435.23v5.4H709v-5.4Z"/></g></g><g id="_31st" data-name="31st"><path class="cls-7" d="M1214.49,988.63a17.88,17.88,0,0,1-8.34-2.08q-6-3.57-6-12.74,0-7.44,4.16-11.23a13.84,13.84,0,0,1,9.63-3.79,10.65,10.65,0,0,1,8.22,3.24c1.33,1.45,2,2.56,2,3.34a7.6,7.6,0,0,1,2.23-3,9.49,9.49,0,0,1,6.43-2.26,10.68,10.68,0,0,1,8.6,3.79q3.19,3.8,3.2,10a17,17,0,0,1-.81,5.62,11.32,11.32,0,0,1-2.32,4,13.64,13.64,0,0,1-4.68,3.27,21.11,21.11,0,0,1-6.1,1.1v-7.92a8.1,8.1,0,0,0,5.09-1.35,5.13,5.13,0,0,0,1.91-4.41,5.3,5.3,0,0,0-1.55-4.06,5.66,5.66,0,0,0-4-1.44q-3.81,0-5.06,2.82a15.88,15.88,0,0,0-.81,5.76h-6.07a17.26,17.26,0,0,0-.81-6.17q-1.43-3.45-5.69-3.45a6.39,6.39,0,0,0-4.93,1.86,6.22,6.22,0,0,0-1.71,4.35q0,4.08,3.13,5.62a9.79,9.79,0,0,0,4.29.83Z"/><path class="cls-7" d="M1231,941.93h-29.79v-8.7h43.19v7.09a7.1,7.1,0,0,0-1.73.33,7.46,7.46,0,0,0-3.1,1.66,8,8,0,0,0-2.26,4.16,37.16,37.16,0,0,0-.54,5.61H1231Z"/><path class="cls-7" d="M1201.23,918.58v-9h8.91v9Z"/></g><g id="Smashing_logo" data-name="Smashing logo"><path class="cls-1" d="M66.72,988.52a4.24,4.24,0,0,0,5.08-3.17l6.48-28.08a4.24,4.24,0,0,0-3.18-5.08L47,945.7A4.22,4.22,0,0,0,42,948.87L35.47,977A4.23,4.23,0,0,0,38.64,982l28.08,6.49Z"/><path class="cls-1" d="M56.87,967.11"/><path id="SVGID-7" data-name="SVGID" class="cls-1" d="M66.72,988.52a4.24,4.24,0,0,0,5.08-3.17l6.48-28.08a4.24,4.24,0,0,0-3.18-5.08L47,945.7A4.22,4.22,0,0,0,42,948.87L35.47,977A4.23,4.23,0,0,0,38.64,982l28.08,6.49Z"/><g class="cls-9"><path class="cls-1" d="M66.24,987.62a4.23,4.23,0,0,0,5.08-3.17l6.17-26.71a4.23,4.23,0,0,0-3.17-5.08l-10.38-2.4c-3.65,1.8-11.95,7-7.82,15.59,3.58,7.44-1,14.53-5.42,18.19Z"/></g><path class="cls-10" d="M39,980.2l7.51-3.36a14.9,14.9,0,0,1-3.36-9.54q0-5.5,3.93-5.51a4.8,4.8,0,0,1,3.77,1.66,25.44,25.44,0,0,1,3.47,6.45q4.33,10.46,12.15,10.45a9.48,9.48,0,0,0,8.15-4,16.79,16.79,0,0,0,2.94-10.22,25.68,25.68,0,0,0-2.83-11.85L67.36,957c1.77,2.06,2.64,4.93,2.65,8.6,0,3.3-1.31,4.94-3.93,4.94a3.53,3.53,0,0,1-2.79-1.62A34.08,34.08,0,0,1,59.93,962q-2.07-5.33-5.06-7.66a11.3,11.3,0,0,0-7.2-2.34,10.59,10.59,0,0,0-8.87,4.19q-3.21,4.14-3.21,11.32a25.26,25.26,0,0,0,.68,6.49A31,31,0,0,0,39,980.2Z"/><polygon class="cls-11" points="47.65 937.11 38 937.11 38 936.19 46.34 936.19 46.34 936.16 38 932.85 38 931.98 46.34 928.68 46.34 928.66 38 928.66 38 927.74 47.65 927.74 47.65 929.09 39.19 932.41 47.65 935.75 47.65 937.11"/><path class="cls-11" d="M41.78,914.48l4.95,1.86-4.95,1.94Zm5.87,1.31L38,912v1l3,1.18v4.39l-3,1.16v1l9.65-3.88Z"/><path class="cls-11" d="M38,896.7h4.91v4.1h-.79v-3.29a4.32,4.32,0,0,0-1.42.2,3.36,3.36,0,0,0-1.12.65,3,3,0,0,0-.74,1.07,3.74,3.74,0,0,0-.26,1.42,3.53,3.53,0,0,0,.36,1.65,3.56,3.56,0,0,0,1,1.14,4.94,4.94,0,0,0,1.37.65,6.15,6.15,0,0,0,3.11,0,4.69,4.69,0,0,0,1.35-.65,3.25,3.25,0,0,0,1-1.14,3.41,3.41,0,0,0,.37-1.65,3.26,3.26,0,0,0-.23-1.24,2.9,2.9,0,0,0-.57-1,2.58,2.58,0,0,0-.78-.63,2,2,0,0,0-.84-.29v-.92a3.89,3.89,0,0,1,1.39.5,3.68,3.68,0,0,1,1.61,2.1,4.8,4.8,0,0,1,.2,1.43,4.5,4.5,0,0,1-.42,2,4,4,0,0,1-1.1,1.42,4.73,4.73,0,0,1-1.6.85,6.4,6.4,0,0,1-3.81,0,4.64,4.64,0,0,1-1.6-.85,4.23,4.23,0,0,1-1.11-1.42,4.64,4.64,0,0,1-.4-2,4.74,4.74,0,0,1,.11-1,3.3,3.3,0,0,1,.34-.94,3.46,3.46,0,0,1,.6-.78,3.4,3.4,0,0,1,.9-.61v0L38,897.36Z"/><path class="cls-11" d="M41.78,883.59l4.95,1.86-4.95,1.94Zm5.87,1.31L38,881.11v1l3,1.18v4.39l-3,1.16v1l9.65-3.88Z"/><polygon class="cls-11" points="47.65 874.53 46.87 874.53 46.87 868.61 38.81 874.97 38 874.97 38 867.45 38.78 867.45 38.78 873.94 46.84 867.58 47.65 867.58 47.65 874.53"/><rect class="cls-1" x="38" y="859.14" width="9.65" height="0.92"/><polygon class="cls-11" points="47.65 850.96 38 850.96 38 850.04 46.16 850.04 46.16 850.01 38 844.39 38 843.36 47.65 843.36 47.65 844.28 39.48 844.28 39.48 844.31 47.65 849.93 47.65 850.96"/><polygon class="cls-11" points="47.65 835.25 38 835.25 38 828.52 38.78 828.52 38.78 834.33 42.59 834.33 42.59 828.95 43.38 828.95 43.38 834.33 46.87 834.33 46.87 828.59 47.65 828.59 47.65 835.25"/><path id="SVGID-8" data-name="SVGID" class="cls-1" d="M58.11,939.27a5.47,5.47,0,0,1-2.64-.56,5.19,5.19,0,0,1-1.83-1.55,6.46,6.46,0,0,1-1-2.27,10.41,10.41,0,0,1-.35-2.67,10.16,10.16,0,0,1,.39-3,6.44,6.44,0,0,1,1.09-2.16,4.64,4.64,0,0,1,1.69-1.32,5.14,5.14,0,0,1,2.11-.44,3.93,3.93,0,0,1,2.27.6,4.68,4.68,0,0,1,1.44,1.39A5.86,5.86,0,0,1,62,929a12.07,12.07,0,0,1,.34,1.27l.65,2.53a10.47,10.47,0,0,0,.51,1.51,1.64,1.64,0,0,0,.56.71,1.42,1.42,0,0,0,.79.19,1.6,1.6,0,0,0,.88-.23,2.28,2.28,0,0,0,.58-.58,2.59,2.59,0,0,0,.32-.81,4.46,4.46,0,0,0,.09-.88,5.86,5.86,0,0,0-.11-1.23,2.9,2.9,0,0,0-.4-1,2,2,0,0,0-.76-.7,2.84,2.84,0,0,0-1.23-.32V925.9a4.91,4.91,0,0,1,2.43.55,4.54,4.54,0,0,1,1.67,1.46,5.86,5.86,0,0,1,.93,2.13,10.09,10.09,0,0,1,.3,2.48,8.49,8.49,0,0,1-.3,2.23,6.07,6.07,0,0,1-.93,2,4.93,4.93,0,0,1-1.57,1.44,4.4,4.4,0,0,1-2.2.53,3.74,3.74,0,0,1-3.27-1.55,6.2,6.2,0,0,1-.88-1.58,17.9,17.9,0,0,1-.56-1.8c-.17-.61-.32-1.2-.46-1.79a10.42,10.42,0,0,0-.49-1.57,3.29,3.29,0,0,0-.69-1.12,1.46,1.46,0,0,0-1.09-.44,1.65,1.65,0,0,0-1,.33,2.19,2.19,0,0,0-.62.81,3.61,3.61,0,0,0-.33,1,9.9,9.9,0,0,0-.07,1,5.9,5.9,0,0,0,.17,1.4,4,4,0,0,0,.53,1.18,2.81,2.81,0,0,0,1,.78,2.94,2.94,0,0,0,1.41.31Zm7-40.41L59,896.78v4.29Zm-12.27,8H69.17V912l-11.38,3.71,11.38,3.87v5.12H52.62v-3.41l11.61,0-11.61-4.06v-2.8l11.73-4.1H52.62v-7L56.31,902v-6.19l-3.69-1.25V890.8L69.17,897v3.73Zm5.29-15a5.36,5.36,0,0,1-2.64-.56,5.19,5.19,0,0,1-1.83-1.55,6.46,6.46,0,0,1-1-2.27,10.89,10.89,0,0,1,0-5.63,6.54,6.54,0,0,1,1.09-2.16,4.86,4.86,0,0,1,1.69-1.32,5.14,5.14,0,0,1,2.11-.44,3.93,3.93,0,0,1,2.27.6,4.59,4.59,0,0,1,1.44,1.4,5.8,5.8,0,0,1,.77,1.64,12.13,12.13,0,0,1,.34,1.28l.65,2.52a9.68,9.68,0,0,0,.51,1.51,1.75,1.75,0,0,0,.56.72,1.52,1.52,0,0,0,.79.18,1.6,1.6,0,0,0,.88-.23,2.13,2.13,0,0,0,.58-.58,2.59,2.59,0,0,0,.32-.81,4.38,4.38,0,0,0,.09-.88,5.86,5.86,0,0,0-.11-1.23,2.9,2.9,0,0,0-.4-1,2,2,0,0,0-.76-.69,2.71,2.71,0,0,0-1.23-.33v-3.52a4.91,4.91,0,0,1,2.43.55,4.63,4.63,0,0,1,1.67,1.46,5.83,5.83,0,0,1,.93,2.14,10,10,0,0,1,.3,2.48,8.48,8.48,0,0,1-.3,2.22,6.07,6.07,0,0,1-.93,2,4.93,4.93,0,0,1-1.57,1.44,4.29,4.29,0,0,1-2.2.53,3.74,3.74,0,0,1-3.27-1.55,6.31,6.31,0,0,1-.88-1.57,18.09,18.09,0,0,1-.56-1.81c-.17-.6-.32-1.2-.46-1.79a10.79,10.79,0,0,0-.49-1.57,3.29,3.29,0,0,0-.69-1.12,1.45,1.45,0,0,0-1.09-.43,1.64,1.64,0,0,0-1,.32,2.37,2.37,0,0,0-.62.81,3.61,3.61,0,0,0-.33,1,9.91,9.91,0,0,0-.07,1,5.81,5.81,0,0,0,.17,1.39,4,4,0,0,0,.53,1.18,2.83,2.83,0,0,0,1,.79,3.06,3.06,0,0,0,1.41.3Zm-5.49-14.55v-3.64h7.14v-6.69H52.62v-3.64H69.17v3.64H62.82v6.69h6.35v3.64Zm0-15.63v-3.64H69.17v3.64Zm0-5.3v-3.41l11.08,0-11.08-6.88v-3.64H69.17v3.41l-11.1,0,11.1,6.91v3.62Z"/><g class="cls-12"><polygon id="SVGID-9" data-name="SVGID" class="cls-1" points="65.29 840.06 56.41 835.14 12.16 914.98 21.03 919.9 65.29 840.06 65.29 840.06"/><g class="cls-13"><polygon class="cls-1" points="65.28 840.07 60.84 837.61 16.58 917.46 21.02 919.92 65.28 840.07 65.28 840.07"/><polygon class="cls-1" points="60.84 837.61 56.4 835.15 12.14 915 16.58 917.46 60.84 837.61 60.84 837.61"/></g><polygon id="SVGID-10" data-name="SVGID" class="cls-1" points="108.86 864.21 64.87 839.82 20.61 919.67 64.6 944.05 108.86 864.21 108.86 864.21"/><g class="cls-14"><polygon class="cls-1" points="108.84 864.22 103.34 861.17 59.09 941.02 64.59 944.07 108.84 864.22 108.84 864.22"/><polygon class="cls-1" points="103.34 861.17 97.85 858.13 53.59 937.97 59.09 941.02 103.34 861.17 103.34 861.17"/><polygon class="cls-1" points="97.85 858.13 92.35 855.08 48.09 934.92 53.59 937.97 97.85 858.13 97.85 858.13"/><polygon class="cls-1" points="92.35 855.08 86.85 852.03 42.59 931.87 48.09 934.92 92.35 855.08 92.35 855.08"/><polygon class="cls-1" points="86.85 852.03 81.35 848.98 37.09 928.83 42.59 931.87 86.85 852.03 86.85 852.03"/><polygon class="cls-1" points="81.35 848.98 75.85 845.93 31.59 925.78 37.09 928.83 81.35 848.98 81.35 848.98"/><polygon class="cls-1" points="75.85 845.93 70.35 842.89 26.09 922.73 31.59 925.78 75.85 845.93 75.85 845.93"/><polygon class="cls-1" points="70.35 842.89 64.85 839.84 20.6 919.68 26.09 922.73 70.35 842.89 70.35 842.89"/></g></g><path class="cls-1" d="M58.11,935.75a2.94,2.94,0,0,1-1.41-.31,2.81,2.81,0,0,1-1-.78,4,4,0,0,1-.53-1.18,5.9,5.9,0,0,1-.17-1.4,9.9,9.9,0,0,1,.07-1,3.61,3.61,0,0,1,.33-1,2.19,2.19,0,0,1,.62-.81,1.65,1.65,0,0,1,1-.33,1.46,1.46,0,0,1,1.09.44,3.29,3.29,0,0,1,.69,1.12,10.42,10.42,0,0,1,.49,1.57c.14.59.29,1.18.46,1.79a17.9,17.9,0,0,0,.56,1.8,6.2,6.2,0,0,0,.88,1.58,3.74,3.74,0,0,0,3.27,1.55,4.4,4.4,0,0,0,2.2-.53,4.93,4.93,0,0,0,1.57-1.44,6.07,6.07,0,0,0,.93-2,8.49,8.49,0,0,0,.3-2.23,10.09,10.09,0,0,0-.3-2.48,5.86,5.86,0,0,0-.93-2.13,4.54,4.54,0,0,0-1.67-1.46,4.91,4.91,0,0,0-2.43-.55v3.52a2.84,2.84,0,0,1,1.23.32,2,2,0,0,1,.76.7,2.9,2.9,0,0,1,.4,1,5.86,5.86,0,0,1,.11,1.23,4.46,4.46,0,0,1-.09.88,2.59,2.59,0,0,1-.32.81,2.28,2.28,0,0,1-.58.58,1.6,1.6,0,0,1-.88.23,1.42,1.42,0,0,1-.79-.19,1.64,1.64,0,0,1-.56-.71,10.47,10.47,0,0,1-.51-1.51l-.65-2.53A12.07,12.07,0,0,0,62,929a5.86,5.86,0,0,0-.77-1.65,4.68,4.68,0,0,0-1.44-1.39,3.93,3.93,0,0,0-2.27-.6,5.14,5.14,0,0,0-2.11.44,4.64,4.64,0,0,0-1.69,1.32,6.44,6.44,0,0,0-1.09,2.16,10.16,10.16,0,0,0-.39,3,10.41,10.41,0,0,0,.35,2.67,6.46,6.46,0,0,0,1,2.27,5.19,5.19,0,0,0,1.83,1.55,5.47,5.47,0,0,0,2.64.56Z"/><polygon class="cls-1" points="59.02 901.07 59.02 896.78 65.09 898.86 59.02 901.07"/><polygon class="cls-1" points="69.17 900.72 69.17 896.99 52.62 890.8 52.62 894.58 56.3 895.83 56.3 902.01 52.62 903.31 52.62 906.9 52.62 910.31 64.35 910.31 52.62 914.41 52.62 917.21 64.23 921.27 52.62 921.31 52.62 924.72 69.17 924.72 69.17 919.6 57.79 915.73 69.17 912.02 69.17 906.9 52.82 906.9 69.17 900.72"/><path class="cls-1" d="M58.11,888.42a3.06,3.06,0,0,1-1.41-.3,2.83,2.83,0,0,1-1-.79,4,4,0,0,1-.53-1.18,5.81,5.81,0,0,1-.17-1.39,9.91,9.91,0,0,1,.07-1,3.61,3.61,0,0,1,.33-1,2.37,2.37,0,0,1,.62-.81,1.64,1.64,0,0,1,1-.32,1.45,1.45,0,0,1,1.09.43,3.29,3.29,0,0,1,.69,1.12,10.79,10.79,0,0,1,.49,1.57c.14.59.29,1.19.46,1.79a18.09,18.09,0,0,0,.56,1.81,6.31,6.31,0,0,0,.88,1.57,3.74,3.74,0,0,0,3.27,1.55,4.29,4.29,0,0,0,2.2-.53,4.93,4.93,0,0,0,1.57-1.44,6.07,6.07,0,0,0,.93-2,8.48,8.48,0,0,0,.3-2.22,10,10,0,0,0-.3-2.48,5.83,5.83,0,0,0-.93-2.14,4.63,4.63,0,0,0-1.67-1.46,4.91,4.91,0,0,0-2.43-.55v3.52a2.71,2.71,0,0,1,1.23.33,2,2,0,0,1,.76.69,2.9,2.9,0,0,1,.4,1,5.86,5.86,0,0,1,.11,1.23,4.38,4.38,0,0,1-.09.88,2.59,2.59,0,0,1-.32.81,2.13,2.13,0,0,1-.58.58,1.6,1.6,0,0,1-.88.23,1.52,1.52,0,0,1-.79-.18,1.75,1.75,0,0,1-.56-.72,9.68,9.68,0,0,1-.51-1.51l-.65-2.52a12.13,12.13,0,0,0-.34-1.28,5.8,5.8,0,0,0-.77-1.64,4.59,4.59,0,0,0-1.44-1.4,3.93,3.93,0,0,0-2.27-.6,5.14,5.14,0,0,0-2.11.44,4.86,4.86,0,0,0-1.69,1.32,6.54,6.54,0,0,0-1.09,2.16,10.89,10.89,0,0,0,0,5.63,6.46,6.46,0,0,0,1,2.27,5.19,5.19,0,0,0,1.83,1.55,5.36,5.36,0,0,0,2.64.56Z"/><polygon class="cls-1" points="69.17 877.39 69.17 873.75 62.82 873.75 62.82 867.06 69.17 867.06 69.17 863.42 52.62 863.42 52.62 867.06 59.76 867.06 59.76 873.75 52.62 873.75 52.62 877.39 69.17 877.39"/><rect class="cls-1" x="52.62" y="858.12" width="16.55" height="3.64"/><polygon class="cls-1" points="69.17 856.46 69.17 852.84 58.07 845.93 69.17 845.89 69.17 842.48 52.62 842.48 52.62 846.12 63.7 853 52.62 853.05 52.62 856.46 69.17 856.46"/><polygon class="cls-15" points="59.02 901.07 65.09 898.86 59.02 896.78 59.02 901.07"/><path id="SVGID-11" data-name="SVGID" class="cls-1" d="M60.64,841.25a8.48,8.48,0,0,0,4-16l-1,3.11a5.28,5.28,0,1,1-6.36.35l-.3,1.85,2.25,2.25L60,828l.8-4.84-4.85.79-4.85.79L53.32,827l1.33-.21a8.49,8.49,0,0,0,6,14.49Z"/><g class="cls-16"><polygon id="SVGID-12" data-name="SVGID" class="cls-1" points="45.34 830.73 61.28 845.08 72.95 832.12 57.01 817.77 45.34 830.73 45.34 830.73"/><g class="cls-17"><polygon class="cls-1" points="45.35 830.73 47.62 832.77 59.3 819.81 57.02 817.76 45.35 830.73 45.35 830.73"/><polygon class="cls-1" points="47.62 832.77 49.9 834.83 61.57 821.86 59.3 819.81 47.62 832.77 47.62 832.77"/><polygon class="cls-1" points="49.9 834.83 52.18 836.88 63.85 823.91 61.57 821.86 49.9 834.83 49.9 834.83"/><polygon class="cls-1" points="52.18 836.88 54.46 838.93 66.13 825.96 63.85 823.91 52.18 836.88 52.18 836.88"/><polygon class="cls-1" points="54.46 838.93 56.73 840.98 68.41 828.01 66.13 825.96 54.46 838.93 54.46 838.93"/><polygon class="cls-1" points="56.73 840.98 59.01 843.03 70.68 830.07 68.41 828.01 56.73 840.98 56.73 840.98"/><polygon class="cls-1" points="59.01 843.03 61.29 845.08 72.96 832.12 70.68 830.07 59.01 843.03 59.01 843.03"/></g></g></g></svg>