<?xml version="1.0" encoding="utf-8"?>
<!-- Generator: Adobe Illustrator 24.0.1, SVG Export Plug-In . SVG Version: 6.00 Build 0)  -->
<svg version="1.1" id="Layer_1" xmlns="http://www.w3.org/2000/svg" xmlns:xlink="http://www.w3.org/1999/xlink" x="0px" y="0px"
	 viewBox="0 0 512 512" style="enable-background:new 0 0 512 512;" xml:space="preserve">
<style type="text/css">
	.st0{fill:#E7ECED;}
	.st1{fill:#FFFFFF;}
	.st2{fill:url(#SVGID_1_);}
	.st3{fill:url(#SVGID_2_);}
	.st4{fill:#DD352E;}
	.st5{fill:#EBBA16;}
	.st6{fill:#23A24D;}
	.st7{fill:url(#SVGID_3_);}
	.st8{fill:url(#SVGID_4_);}
	.st9{fill:url(#SVGID_5_);}
	.st10{fill:url(#SVGID_6_);}
	.st11{fill:url(#SVGID_7_);}
	.st12{fill:url(#SVGID_8_);}
	.st13{fill:url(#SVGID_9_);}
	.st14{fill:url(#SVGID_10_);}
	.st15{fill:url(#SVGID_11_);}
	.st16{fill:url(#SVGID_12_);}
</style>
<path class="st0" d="M475.7,503.5H36.3c-15.3,0-27.7-12.4-27.7-27.7V102.4h494.9v373.3C503.5,491.1,491.1,503.5,475.7,503.5z"/>
<path class="st1" d="M76.8,153.6h384v307.2h-384V153.6z"/>
<linearGradient id="SVGID_1_" gradientUnits="userSpaceOnUse" x1="51.1992" y1="307.2012" x2="204.8008" y2="307.2012">
	<stop  offset="0" style="stop-color:#2C88FF"/>
	<stop  offset="1" style="stop-color:#0A41D3"/>
</linearGradient>
<path class="st2" d="M51.2,153.6h153.6v307.2H51.2V153.6z"/>
<linearGradient id="SVGID_2_" gradientUnits="userSpaceOnUse" x1="8.5352" y1="59.7344" x2="503.4648" y2="59.7344">
	<stop  offset="0" style="stop-color:#2C88FF"/>
	<stop  offset="1" style="stop-color:#0A41D3"/>
</linearGradient>
<path class="st3" d="M503.5,110.9H8.5V36.3c0-15.3,12.4-27.7,27.7-27.7h439.5c15.3,0,27.7,12.4,27.7,27.7V110.9z"/>
<path class="st4" d="M42.7,42.7h34.1v34.1H42.7V42.7z"/>
<path class="st5" d="M110.9,42.7h34.1v34.1h-34.1V42.7z"/>
<path class="st6" d="M179.2,42.7h34.1v34.1h-34.1V42.7z"/>
<path class="st1" d="M153.1,224.8c-2.1-9.8-10.3-17.8-20.2-19.6c-16.3-3-30.4,9.4-30.4,25.2c0,7,2.8,13.3,7.4,17.9
	c1.4,1.4,1.2,3.8-0.5,4.9c-8.7,5.7-14.7,15.3-15.4,26.3c9.7,6.7,21.4,10.6,34,10.6s24.3-3.9,34-10.6c-0.7-11-6.6-20.6-15.4-26.3
	c-1.7-1.1-1.8-3.5-0.4-4.9C152.1,242.5,155.1,234,153.1,224.8z"/>
<g>
	<linearGradient id="SVGID_3_" gradientUnits="userSpaceOnUse" x1="42.668" y1="307.1992" x2="469.332" y2="307.1992">
		<stop  offset="0" style="stop-color:#2C88FF"/>
		<stop  offset="1" style="stop-color:#0A41D3"/>
	</linearGradient>
	<path class="st7" d="M460.8,469.3H51.2c-4.7,0-8.5-3.8-8.5-8.5V153.6c0-4.7,3.8-8.5,8.5-8.5h409.6c4.7,0,8.5,3.8,8.5,8.5v307.2
		C469.3,465.5,465.5,469.3,460.8,469.3z M59.7,452.3h392.5V162.1H59.7V452.3z"/>
	<path class="st1" d="M162.1,341.3H93.9c-4.7,0-8.5-3.8-8.5-8.5s3.8-8.5,8.5-8.5h68.3c4.7,0,8.5,3.8,8.5,8.5
		S166.8,341.3,162.1,341.3z"/>
	<path class="st1" d="M162.1,375.5H93.9c-4.7,0-8.5-3.8-8.5-8.5s3.8-8.5,8.5-8.5h68.3c4.7,0,8.5,3.8,8.5,8.5
		S166.8,375.5,162.1,375.5z"/>
	<path class="st1" d="M162.1,409.6H93.9c-4.7,0-8.5-3.8-8.5-8.5s3.8-8.5,8.5-8.5h68.3c4.7,0,8.5,3.8,8.5,8.5
		S166.8,409.6,162.1,409.6z"/>
	<linearGradient id="SVGID_4_" gradientUnits="userSpaceOnUse" x1="85.4713" y1="247.4691" x2="170.5403" y2="247.4691">
		<stop  offset="0" style="stop-color:#2C88FF"/>
		<stop  offset="1" style="stop-color:#0A41D3"/>
	</linearGradient>
	<path class="st8" d="M128,298.7c-14,0-27.4-4.2-38.9-12.2c-2.5-1.7-3.8-4.6-3.7-7.6c0.7-11.2,6-21.8,14.4-29.2
		c-3.9-5.6-6-12.3-6-19.3c0-10.2,4.5-19.7,12.3-26.2c7.8-6.5,18.1-9.2,28.2-7.3c13.3,2.4,24.2,13,27,26.2c2,9.4,0,19-5.3,26.6
		c8.4,7.4,13.7,18,14.4,29.2c0.2,3-1.2,5.8-3.7,7.5C155.4,294.5,142,298.7,128,298.7z M103.3,275.2c15.1,8.4,34.3,8.4,49.4,0
		c-1.6-6.1-5.3-11.3-10.8-14.9c-2.9-1.9-4.8-5-5.2-8.5c-0.4-3.5,0.9-7,3.3-9.5c4.1-4.1,5.8-9.9,4.5-15.7c-1.4-6.4-6.9-11.8-13.4-13
		c-5.2-0.9-10.2,0.3-14.2,3.6c-3.9,3.3-6.2,8-6.2,13.1c0,4.5,1.8,8.7,4.9,11.9c2.5,2.5,3.7,6,3.3,9.5c-0.4,3.5-2.3,6.6-5.2,8.5
		C108.6,263.9,104.8,269.2,103.3,275.2z M151.3,246.1C151.3,246.1,151.3,246.1,151.3,246.1C151.3,246.1,151.3,246.1,151.3,246.1z"/>
	<linearGradient id="SVGID_5_" gradientUnits="userSpaceOnUse" x1="42.668" y1="307.1992" x2="213.332" y2="307.1992">
		<stop  offset="0" style="stop-color:#2C88FF"/>
		<stop  offset="1" style="stop-color:#0A41D3"/>
	</linearGradient>
	<path class="st9" d="M204.8,469.3H51.2c-4.7,0-8.5-3.8-8.5-8.5V153.6c0-4.7,3.8-8.5,8.5-8.5h153.6c4.7,0,8.5,3.8,8.5,8.5v307.2
		C213.3,465.5,209.5,469.3,204.8,469.3z M59.7,452.3h136.5V162.1H59.7V452.3z"/>
	<linearGradient id="SVGID_6_" gradientUnits="userSpaceOnUse" x1="247.4648" y1="307.2012" x2="315.7344" y2="307.2012">
		<stop  offset="0" style="stop-color:#2C88FF"/>
		<stop  offset="1" style="stop-color:#0A41D3"/>
	</linearGradient>
	<path class="st10" d="M307.2,426.7H256c-4.7,0-8.5-3.8-8.5-8.5V196.3c0-4.7,3.8-8.5,8.5-8.5h51.2c4.7,0,8.5,3.8,8.5,8.5v221.9
		C315.7,422.8,311.9,426.7,307.2,426.7z M264.5,409.6h34.1V204.8h-34.1V409.6z"/>
	<linearGradient id="SVGID_7_" gradientUnits="userSpaceOnUse" x1="349.8672" y1="307.2012" x2="418.1328" y2="307.2012">
		<stop  offset="0" style="stop-color:#2C88FF"/>
		<stop  offset="1" style="stop-color:#0A41D3"/>
	</linearGradient>
	<path class="st11" d="M409.6,426.7h-51.2c-4.7,0-8.5-3.8-8.5-8.5V196.3c0-4.7,3.8-8.5,8.5-8.5h51.2c4.7,0,8.5,3.8,8.5,8.5v221.9
		C418.1,422.8,414.3,426.7,409.6,426.7z M366.9,409.6h34.1V204.8h-34.1V409.6z"/>
	<linearGradient id="SVGID_8_" gradientUnits="userSpaceOnUse" x1="0" y1="256" x2="512" y2="256">
		<stop  offset="0" style="stop-color:#2C88FF"/>
		<stop  offset="1" style="stop-color:#0A41D3"/>
	</linearGradient>
	<path class="st12" d="M473.6,512H38.4C17.2,512,0,494.8,0,473.6V38.4C0,17.2,17.2,0,38.4,0h435.2C494.8,0,512,17.2,512,38.4v435.2
		C512,494.8,494.8,512,473.6,512z M38.4,17.1c-11.8,0-21.3,9.6-21.3,21.3v435.2c0,11.8,9.6,21.3,21.3,21.3h435.2
		c11.8,0,21.3-9.6,21.3-21.3V38.4c0-11.8-9.6-21.3-21.3-21.3H38.4z"/>
	<linearGradient id="SVGID_9_" gradientUnits="userSpaceOnUse" x1="34.1328" y1="59.7324" x2="85.332" y2="59.7324">
		<stop  offset="0" style="stop-color:#2C88FF"/>
		<stop  offset="1" style="stop-color:#0A41D3"/>
	</linearGradient>
	<path class="st13" d="M76.8,85.3H42.7c-4.7,0-8.5-3.8-8.5-8.5V42.7c0-4.7,3.8-8.5,8.5-8.5h34.1c4.7,0,8.5,3.8,8.5,8.5v34.1
		C85.3,81.5,81.5,85.3,76.8,85.3z M51.2,68.3h17.1V51.2H51.2V68.3z"/>
	<linearGradient id="SVGID_10_" gradientUnits="userSpaceOnUse" x1="102.3984" y1="59.7324" x2="153.6016" y2="59.7324">
		<stop  offset="0" style="stop-color:#2C88FF"/>
		<stop  offset="1" style="stop-color:#0A41D3"/>
	</linearGradient>
	<path class="st14" d="M145.1,85.3h-34.1c-4.7,0-8.5-3.8-8.5-8.5V42.7c0-4.7,3.8-8.5,8.5-8.5h34.1c4.7,0,8.5,3.8,8.5,8.5v34.1
		C153.6,81.5,149.8,85.3,145.1,85.3z M119.5,68.3h17.1V51.2h-17.1V68.3z"/>
	<linearGradient id="SVGID_11_" gradientUnits="userSpaceOnUse" x1="170.668" y1="59.7324" x2="221.8672" y2="59.7324">
		<stop  offset="0" style="stop-color:#2C88FF"/>
		<stop  offset="1" style="stop-color:#0A41D3"/>
	</linearGradient>
	<path class="st15" d="M213.3,85.3h-34.1c-4.7,0-8.5-3.8-8.5-8.5V42.7c0-4.7,3.8-8.5,8.5-8.5h34.1c4.7,0,8.5,3.8,8.5,8.5v34.1
		C221.9,81.5,218,85.3,213.3,85.3z M187.7,68.3h17.1V51.2h-17.1V68.3z"/>
	<linearGradient id="SVGID_12_" gradientUnits="userSpaceOnUse" x1="0" y1="59.7324" x2="512" y2="59.7324">
		<stop  offset="0" style="stop-color:#2C88FF"/>
		<stop  offset="1" style="stop-color:#0A41D3"/>
	</linearGradient>
	<path class="st16" d="M503.5,119.5H8.5c-4.7,0-8.5-3.8-8.5-8.5V38.4C0,17.2,17.2,0,38.4,0h435.2C494.8,0,512,17.2,512,38.4v72.5
		C512,115.6,508.2,119.5,503.5,119.5z M17.1,102.4h477.9v-64c0-11.8-9.6-21.3-21.3-21.3H38.4c-11.8,0-21.3,9.6-21.3,21.3V102.4z"/>
</g>
</svg>
